<svg width="40" height="40" viewBox="0 0 40 40" fill="none" xmlns="http://www.w3.org/2000/svg">
<g clip-path="url(#clip0_3566_22529)">
<path d="M20.311 23.4651C20.7626 22.8425 21.311 22.52 21.611 22.3748C20.4175 21.9458 19.411 21.8748 18.7659 21.8812C17.811 21.8909 17.1078 21.8974 16.5529 22.4103C15.782 23.1167 15.8626 24.2716 15.8852 24.5232L12.1981 25.4006L8.51101 26.2812C8.41746 26.049 7.96908 24.9812 6.96263 24.6974C6.23682 24.4941 5.60779 24.8038 4.75295 25.2264C4.1723 25.5135 3.30456 26.0296 2.43359 26.9522C2.76585 26.9458 3.40134 26.9845 4.08521 27.3393C5.04005 27.8329 5.48521 28.6296 5.63037 28.9232C5.49811 29.5071 4.77876 32.9135 6.93037 36.0329C8.40134 38.1683 10.6465 38.9683 11.4368 39.2522C12.411 39.9554 13.982 40.2071 15.6207 39.8167C17.2594 39.4264 18.5497 38.4877 19.1046 37.4232C19.682 36.8103 21.3271 35.0845 21.6788 32.5135C22.1949 28.7554 20.0239 26.0393 19.6433 25.578C19.6404 25.249 19.6791 24.3393 20.311 23.4651ZM31.1339 36.4038C31.0436 36.9554 31.1275 37.7845 31.5146 37.9232C31.9662 38.0877 32.8049 37.2909 33.0307 36.4038C33.25 35.5361 32.8307 34.7877 32.6791 34.5458C32.6597 34.5393 32.6371 34.5296 32.6178 34.5232C32.35 34.6683 31.321 35.2748 31.1339 36.4038Z" fill="#E7F2F1"/>
<path d="M37.8734 25.4226C38.2831 24.5484 38.3863 23.4322 37.9573 23.1064C37.8637 23.0355 37.4927 22.8097 36.3702 23.4355C36.025 23.629 35.5927 23.4484 35.4798 23.0742C35.2798 22.4097 34.9508 21.5903 34.5476 21.5871C33.996 21.5806 33.5153 23.0968 33.4089 24.2451L33.3992 24.371C31.0186 24.8968 29.2411 27.0226 29.2411 29.5645C29.2411 31.8226 30.6411 33.7484 32.6186 34.5226C32.6315 34.5129 32.6411 34.5097 32.6508 34.5032C32.6573 34.5161 32.6669 34.529 32.6798 34.5451C33.2605 34.7645 33.8895 34.8839 34.5476 34.8839C37.4766 34.8839 39.854 32.5032 39.854 29.5645C39.854 27.8903 39.0831 26.3968 37.8734 25.4226ZM6.95049 21.3484C9.50855 20.3387 10.7634 17.4419 9.75372 14.8774C8.95049 12.8355 6.95372 11.629 4.88275 11.729C4.86985 11.6387 4.85694 11.5516 4.84081 11.4581C4.7311 10.9098 4.52466 10.3855 4.23114 9.90967C4.15372 10.0903 4.0763 10.271 3.99565 10.4484C3.91823 10.629 3.84081 10.8097 3.76339 10.9871C3.63436 10.8161 3.41178 10.571 3.07307 10.3677C2.87307 10.2484 2.68597 10.1774 2.53436 10.1322C2.62791 10.6581 2.70533 11.2258 2.75694 11.8322C2.77307 11.9935 2.77952 12.1484 2.7892 12.3032C0.579523 13.4742 -0.446284 16.1516 0.492426 18.5387C1.5021 21.1032 4.39243 22.3613 6.95049 21.3484ZM27.4153 18.1645C27.4734 18.0742 27.5379 17.9871 27.6089 17.9032C28.525 16.8032 29.7605 14.9871 30.4508 12.4677C30.8347 11.0677 30.9605 9.75805 30.9573 8.61612C31.1444 8.98708 31.854 10.3193 33.4186 10.8097C34.5444 11.1645 36.0476 11.0581 36.225 10.5193C36.4282 9.90321 34.6411 9.51289 33.5508 7.4387C32.9476 6.29354 33.0315 5.5387 32.2798 5.06128C31.6089 4.63547 30.7863 4.71934 30.1798 4.88063C30.4282 4.45483 30.954 3.41612 30.7186 2.12902C30.5121 0.987085 29.7282 -0.0935599 29.3411 0.00644015C29.0444 0.0806337 29.1831 0.787085 28.7121 1.79031C28.396 2.45805 27.9669 2.90967 27.654 3.19676C26.6103 2.795 25.5014 2.5894 24.3831 2.59031C24.2798 2.59031 24.1766 2.59354 24.0734 2.59676C22.9218 2.63547 21.9153 2.88386 21.0766 3.21289C20.7669 2.9258 20.3379 2.45805 20.0218 1.79031C19.5508 0.787085 19.6863 0.0806337 19.3927 0.00644015C19.0024 -0.0935599 18.2218 0.987085 18.0121 2.12902C17.7766 3.41612 18.3218 4.48386 18.5702 4.90967C17.9637 4.74838 17.1218 4.63547 16.4508 5.06128C15.6992 5.5387 15.7863 6.29354 15.1831 7.4387C14.0895 9.51289 12.3057 9.90321 12.5089 10.5193C12.6863 11.0581 14.1895 11.1645 15.3153 10.8097C16.8798 10.3193 17.625 8.96128 17.8121 8.59031C17.8057 9.62902 17.9089 10.8064 18.2153 12.0645C18.2476 12.1968 18.2831 12.3322 18.3186 12.4677C19.0089 14.9871 20.2444 16.8032 21.1605 17.9032C21.2315 17.9871 21.296 18.0742 21.354 18.1645C21.5702 18.4935 21.7186 18.8677 21.825 19.2516C22.1379 20.3742 23.1702 21.2064 24.3831 21.2064C25.5992 21.2064 26.6315 20.3742 26.9411 19.2516C27.0508 18.8677 27.1992 18.4935 27.4153 18.1645Z" fill="#E7F2F1"/>
<path d="M19.3437 35.8028C19.4728 36.3415 19.376 36.8963 19.105 37.4222C18.5502 38.4867 17.2599 39.4254 15.6212 39.8157C13.9824 40.206 12.4115 39.9544 11.4373 39.2512C10.9566 38.906 10.6212 38.4544 10.4953 37.9157C10.1083 36.2834 11.7728 34.4867 14.2179 33.9028C16.6599 33.3189 18.9566 34.1705 19.3437 35.8028Z" fill="#F48CA7"/>
<path d="M19.6433 25.578C20.0239 26.0393 22.1949 28.7554 21.6788 32.5135C21.3271 35.0845 19.682 36.8103 19.1046 37.4232C19.3755 36.8974 19.4723 36.3425 19.3433 35.8038C18.9562 34.1716 16.6594 33.32 14.2175 33.9038C11.7723 34.4877 10.1078 36.2845 10.4949 37.9167C10.6207 38.4554 10.9562 38.907 11.4368 39.2522C10.6465 38.9683 8.40134 38.1683 6.93037 36.0329C4.77875 32.9135 5.49811 29.5071 5.63037 28.9232C5.48521 28.6296 5.04005 27.8329 4.08521 27.3393C3.40134 26.9845 2.76585 26.9458 2.43359 26.9522C3.30456 26.0296 4.1723 25.5135 4.75295 25.2264C5.60779 24.8038 6.23682 24.4941 6.96263 24.6974C7.96908 24.9812 8.41747 26.049 8.51101 26.2812L12.1981 25.4006L15.8852 24.5232C15.8626 24.2716 15.782 23.1167 16.5529 22.4103C17.1078 21.8974 17.811 21.8909 18.7659 21.8812C19.411 21.8748 20.4175 21.9458 21.611 22.3748C21.311 22.52 20.7626 22.8425 20.311 23.4651C19.6788 24.3393 19.64 25.249 19.6433 25.578ZM18.8368 32.02C19.2433 31.9232 19.4949 31.5135 19.3981 31.1038C19.3752 31.0069 19.3334 30.9155 19.2751 30.8348C19.2168 30.7541 19.1431 30.6857 19.0583 30.6335C18.9734 30.5814 18.8792 30.5465 18.7808 30.5309C18.6825 30.5153 18.582 30.5192 18.4852 30.5425C18.3881 30.5653 18.2965 30.607 18.2156 30.6652C18.1347 30.7235 18.066 30.7971 18.0136 30.8819C17.9611 30.9667 17.9259 31.061 17.91 31.1594C17.8941 31.2578 17.8977 31.3584 17.9207 31.4554C17.9674 31.6517 18.0901 31.8214 18.2619 31.9273C18.4337 32.0331 18.6405 32.0665 18.8368 32.02ZM9.2465 34.307C9.65617 34.2103 9.90779 33.8006 9.80779 33.3941C9.78518 33.297 9.74358 33.2053 9.68539 33.1242C9.6272 33.0432 9.55357 32.9745 9.46873 32.922C9.38389 32.8696 9.28952 32.8344 9.19103 32.8185C9.09255 32.8027 8.99191 32.8065 8.89488 32.8296C8.48843 32.9264 8.23682 33.3361 8.33359 33.7458C8.43037 34.1522 8.84005 34.4038 9.2465 34.307Z" fill="#FEC4B9"/>
<path d="M32.6799 34.546C32.8315 34.7879 33.2508 35.5363 33.0315 36.404C32.8057 37.2911 31.967 38.0879 31.5154 37.9234C31.1283 37.7847 31.0444 36.9557 31.1347 36.404C31.3218 35.275 32.3508 34.6686 32.6186 34.5234C32.6379 34.5298 32.6605 34.5395 32.6799 34.546ZM37.9573 23.1073C38.3863 23.4331 38.2831 24.5492 37.8734 25.4234C37.6218 25.9653 37.2541 26.4137 36.8218 26.5266C36.3896 26.6395 36.1444 26.3492 35.6831 26.5266C34.867 26.8395 34.925 28.0169 34.5476 28.046C34.0766 28.0815 33.2637 26.3008 33.3992 24.3718L33.4089 24.246C33.5154 23.0976 33.996 21.5815 34.5476 21.5879C34.9508 21.5911 35.2799 22.4105 35.4799 23.075C35.5928 23.4492 36.025 23.6298 36.3702 23.4363C37.4928 22.8105 37.8637 23.0363 37.9573 23.1073Z" fill="#E15C63"/>
<path d="M33.8161 31.4714C34.6516 31.7133 34.9677 32.7456 34.4709 33.4585C33.8645 34.3262 33.0774 34.6843 32.6516 34.5036C32.2322 34.3262 31.9612 33.5198 32.1128 32.5165C32.1935 31.9811 32.5903 31.5294 33.1225 31.4359C33.3445 31.3963 33.5725 31.4062 33.7903 31.4649C33.7967 31.4682 33.8064 31.4714 33.8161 31.4714Z" fill="#FFC05A"/>
<path d="M36.8221 29.9454C37.2415 29.9454 37.5802 30.2841 37.5802 30.7067C37.5802 31.126 37.2415 31.4647 36.8221 31.4647C36.4028 31.4647 36.064 31.126 36.064 30.7067C36.0636 30.6069 36.0829 30.5079 36.1208 30.4156C36.1587 30.3232 36.2145 30.2393 36.2849 30.1686C36.3554 30.0978 36.4391 30.0417 36.5313 30.0034C36.6234 29.9651 36.7223 29.9454 36.8221 29.9454ZM31.5157 28.8067C31.9318 28.8067 32.2737 29.1454 32.2737 29.5647C32.2737 29.9841 31.9318 30.326 31.5157 30.326C31.318 30.3203 31.1304 30.2377 30.9926 30.0959C30.8549 29.954 30.7778 29.7641 30.7778 29.5664C30.7778 29.3686 30.8549 29.1787 30.9926 29.0368C31.1304 28.895 31.318 28.8124 31.5157 28.8067ZM19.3995 31.1035C19.4963 31.5131 19.2447 31.9228 18.8382 32.0196C18.6419 32.0661 18.4351 32.0328 18.2633 31.9269C18.0916 31.8211 17.9688 31.6514 17.9221 31.4551C17.8991 31.3581 17.8955 31.2575 17.9114 31.159C17.9273 31.0606 17.9625 30.9663 18.015 30.8815C18.0674 30.7967 18.1361 30.7231 18.217 30.6649C18.2979 30.6066 18.3896 30.5649 18.4866 30.5422C18.8931 30.4422 19.3028 30.697 19.3995 31.1035ZM9.80921 33.3938C9.90921 33.8002 9.6576 34.2099 9.24792 34.3067C8.84147 34.4035 8.43179 34.1518 8.33501 33.7454C8.23824 33.3357 8.48985 32.926 8.89631 32.8293C9.30598 32.7325 9.71243 32.9841 9.80921 33.3938ZM3.0476 16.6164C3.20243 17.0067 3.01211 17.4486 2.62179 17.6002C2.23147 17.7551 1.79276 17.5647 1.63792 17.1744C1.56486 16.9866 1.56895 16.7774 1.6493 16.5926C1.72965 16.4077 1.87975 16.2621 2.06695 16.1873C2.45405 16.0325 2.89598 16.226 3.0476 16.6164ZM7.98631 14.6647C8.14114 15.0551 7.9476 15.4938 7.5605 15.6486C7.17018 15.8035 6.72824 15.6131 6.57663 15.2228C6.53964 15.1302 6.52129 15.0312 6.52263 14.9314C6.52398 14.8317 6.54499 14.7332 6.58447 14.6416C6.62395 14.55 6.68111 14.4671 6.75269 14.3976C6.82427 14.3282 6.90885 14.2735 7.00159 14.2368C7.09433 14.2001 7.19341 14.1821 7.29313 14.1837C7.39286 14.1853 7.49129 14.2067 7.58277 14.2464C7.67424 14.2862 7.75698 14.3436 7.82622 14.4154C7.89547 14.4872 7.94987 14.5719 7.98631 14.6647Z" fill="#543927"/>
<path d="M8.74834 17.6285C8.94511 18.2898 7.55156 19.3285 6.34188 19.8059C5.13543 20.2834 3.40963 20.4769 3.1064 19.8608C3.02253 19.6963 2.95801 19.2963 3.74511 18.3834C3.78927 17.996 3.9377 17.6279 4.1746 17.3183C4.41149 17.0087 4.72796 16.7692 5.09027 16.6253C5.45231 16.4819 5.84655 16.4398 6.23071 16.5035C6.61487 16.5671 6.97446 16.7341 7.27092 16.9866C8.47092 17.1156 8.6935 17.4511 8.74834 17.6285Z" fill="#F49C60"/>
<path d="M9.75372 14.8779C10.7634 17.4424 9.50855 20.3392 6.95049 21.3489C4.39243 22.3618 1.5021 21.1037 0.492426 18.5392C-0.446284 16.1521 0.579523 13.4747 2.7892 12.3037C2.77952 12.1489 2.77307 11.994 2.75694 11.8327C2.70533 11.2263 2.62791 10.6585 2.53436 10.1327C2.68597 10.1779 2.87307 10.2489 3.07307 10.3682C3.41178 10.5714 3.63436 10.8166 3.76339 10.9876C3.84081 10.8102 3.91823 10.6295 3.99565 10.4489C4.0763 10.2714 4.15372 10.0908 4.23114 9.91016C4.52466 10.386 4.7311 10.9103 4.84081 11.4585C4.85694 11.5521 4.86985 11.6392 4.88275 11.7295C6.95372 11.6295 8.95049 12.836 9.75372 14.8779ZM6.34081 19.8069C7.55049 19.3295 8.94404 18.2908 8.74726 17.6295C8.69243 17.4521 8.46984 17.1166 7.26984 16.9876C6.97339 16.7351 6.6138 16.5681 6.22964 16.5044C5.84548 16.4408 5.45124 16.4829 5.0892 16.6263C4.35372 16.9166 3.83436 17.594 3.74404 18.3844C2.95694 19.2973 3.02146 19.6973 3.10533 19.8618C3.40856 20.4779 5.13436 20.2844 6.34081 19.8069ZM7.56017 15.6489C7.94726 15.494 8.14081 15.0553 7.98597 14.665C7.94954 14.5721 7.89514 14.4874 7.82589 14.4156C7.75664 14.3438 7.67391 14.2864 7.58243 14.2467C7.49096 14.2069 7.39253 14.1856 7.2928 14.1839C7.19307 14.1823 7.094 14.2004 7.00126 14.2371C6.90852 14.2738 6.82394 14.3284 6.75236 14.3979C6.68078 14.4674 6.62362 14.5503 6.58414 14.6419C6.54466 14.7335 6.52365 14.8319 6.5223 14.9317C6.52095 15.0314 6.5393 15.1304 6.5763 15.2231C6.72791 15.6134 7.16985 15.8037 7.56017 15.6489ZM2.62146 17.6005C3.01178 17.4489 3.2021 17.0069 3.04726 16.6166C3.0113 16.5239 2.95736 16.4391 2.88852 16.3673C2.81969 16.2955 2.73733 16.238 2.64619 16.1981C2.55505 16.1582 2.45692 16.1368 2.35746 16.135C2.25799 16.1332 2.15915 16.151 2.06662 16.1876C1.87942 16.2623 1.72932 16.408 1.64897 16.5928C1.56862 16.7777 1.56453 16.9868 1.63759 17.1747C1.79243 17.565 2.23114 17.7553 2.62146 17.6005Z" fill="#F9B132"/>
<path d="M28.4284 8.51953C28.8446 8.51953 29.18 8.85502 29.18 9.27114C29.183 9.37149 29.1658 9.4714 29.1294 9.56497C29.093 9.65853 29.0383 9.74385 28.9683 9.81587C28.8984 9.88788 28.8147 9.94513 28.7223 9.98423C28.6298 10.0233 28.5304 10.0435 28.43 10.0435C28.3297 10.0435 28.2303 10.0233 28.1378 9.98423C28.0454 9.94513 27.9617 9.88788 27.8918 9.81587C27.8218 9.74385 27.7671 9.65853 27.7307 9.56497C27.6943 9.4714 27.6771 9.37149 27.68 9.27114C27.68 8.85502 28.0155 8.51953 28.4284 8.51953ZM20.4704 8.51953C20.8833 8.51953 21.2188 8.85502 21.2188 9.27114C21.2188 9.47006 21.1397 9.66082 20.9991 9.80147C20.8584 9.94213 20.6677 10.0211 20.4688 10.0211C20.2698 10.0211 20.0791 9.94213 19.9384 9.80147C19.7978 9.66082 19.7188 9.47006 19.7188 9.27114C19.7187 8.85502 20.0542 8.51953 20.4704 8.51953Z" fill="#543927"/>
<path d="M27.4148 18.1646C27.1987 18.4936 27.0503 18.8678 26.9406 19.2517C26.6309 20.3742 25.5987 21.2065 24.3825 21.2065C23.1696 21.2065 22.1374 20.3742 21.8245 19.2517C21.718 18.8678 21.5696 18.4936 21.3535 18.1646C21.4729 18.0033 22.5374 16.6484 24.3825 16.6484C24.5729 16.6484 26.2987 16.6775 27.4148 18.1646Z" fill="#655F68"/>
<path d="M30.7192 2.12902C30.9547 3.41612 30.4289 4.45483 30.1805 4.88063C29.9128 4.49999 29.5644 4.17418 29.158 3.92902C28.7386 3.67741 28.2354 3.41934 27.6547 3.19676C27.9676 2.90967 28.3967 2.45805 28.7128 1.79031C29.1838 0.787085 29.045 0.0806337 29.3418 0.00644015C29.7289 -0.0935599 30.5128 0.987085 30.7192 2.12902ZM20.0225 1.79031C20.3386 2.45805 20.7676 2.9258 21.0773 3.21289C20.5096 3.42902 20.0192 3.68386 19.6128 3.92902C19.1934 4.18063 18.8418 4.51612 18.5709 4.90967C18.3225 4.48386 17.7773 3.41612 18.0128 2.12902C18.2225 0.987085 19.0031 -0.0935599 19.3934 0.00644015C19.687 0.0806337 19.5515 0.787085 20.0225 1.79031Z" fill="#B29576"/>
<path d="M33.5515 7.43823C34.6418 9.51242 36.4289 9.90275 36.2257 10.5189C36.0483 11.0576 34.545 11.164 33.4192 10.8092C31.8547 10.3189 31.145 8.98662 30.9579 8.61565C30.9547 7.73178 30.8676 6.95113 30.7612 6.29307C30.6741 5.77694 30.4741 5.2963 30.1805 4.88017C30.787 4.71888 31.6096 4.635 32.2805 5.06081C33.0321 5.53823 32.9483 6.29307 33.5515 7.43823ZM27.6547 3.1963C28.2354 3.41888 28.7386 3.67694 29.1579 3.92855C28.7418 5.26726 27.3354 6.05436 25.987 5.70597C24.6289 5.35436 23.7773 3.97371 24.0741 2.5963C24.1773 2.59307 24.2805 2.58984 24.3837 2.58984C25.6483 2.58984 26.7483 2.84791 27.6547 3.1963ZM19.6128 3.92855C22.3386 4.06404 24.2225 6.48662 23.9063 8.72533C23.5773 11.0415 20.9289 12.8705 18.216 12.064C17.9096 10.806 17.8063 9.62855 17.8128 8.58984C17.8192 7.71888 17.9031 6.94468 18.0096 6.29307C18.0934 5.78984 18.287 5.31888 18.5708 4.9092C18.8418 4.51565 19.1934 4.18017 19.6128 3.92855ZM21.2192 9.27049C21.2192 9.07158 21.1402 8.88081 20.9996 8.74016C20.8589 8.59951 20.6681 8.52049 20.4692 8.52049C20.2703 8.52049 20.0796 8.59951 19.9389 8.74016C19.7983 8.88081 19.7192 9.07158 19.7192 9.27049C19.7163 9.37083 19.7335 9.47074 19.7699 9.56431C19.8062 9.65788 19.861 9.7432 19.931 9.81521C20.0009 9.88723 20.0846 9.94448 20.177 9.98357C20.2695 10.0227 20.3688 10.0428 20.4692 10.0428C20.5696 10.0428 20.669 10.0227 20.7614 9.98357C20.8539 9.94448 20.9376 9.88723 21.0075 9.81521C21.0774 9.7432 21.1322 9.65788 21.1686 9.56431C21.205 9.47074 21.2222 9.37083 21.2192 9.27049Z" fill="#655F68"/>
<path d="M18.5694 4.91022C18.2825 5.32442 18.0908 5.79702 18.0082 6.29409C17.9017 6.94571 17.8178 7.7199 17.8114 8.59087C17.6243 8.96183 16.8791 10.3199 15.3146 10.8102C14.1888 11.1651 12.6856 11.0586 12.5082 10.5199C12.3049 9.90377 14.0888 9.51345 15.1823 7.43925C15.7856 6.29409 15.6985 5.53925 16.4501 5.06183C17.1211 4.63603 17.963 4.74893 18.5694 4.91022Z" fill="#D6EAE8"/>
<path d="M21.8242 19.2515C21.8242 19.2515 25.2758 20.6257 26.0629 17.0547C26.5274 17.2773 27.0113 17.6257 27.4145 18.1644C27.1984 18.4934 27.05 18.8676 26.9403 19.2515C26.6307 20.374 25.5984 21.2063 24.3823 21.2063C23.1694 21.2063 22.1371 20.374 21.8242 19.2515Z" fill="#5D5560"/>
<path d="M30.956 8.61678C30.9593 9.75872 30.8335 11.0684 30.4496 12.4684C29.7593 14.9878 28.5238 16.8039 27.6077 17.9039C27.5367 17.9878 27.4722 18.0748 27.4141 18.1652C27.0605 17.6909 26.5966 17.31 26.0625 17.0555C26.0625 17.0555 31.4625 11.5587 29.156 3.92969C29.5625 4.17485 29.9109 4.50066 30.1786 4.8813C30.4722 5.29743 30.6722 5.77807 30.7593 6.2942C30.8657 6.95227 30.9528 7.73291 30.956 8.61678ZM32.6496 34.5039C33.0754 34.6845 33.8625 34.3265 34.469 33.4587C34.469 33.4587 40.6786 32.7878 37.8722 25.4232C39.0819 26.3974 39.8528 27.891 39.8528 29.5652C39.8528 32.5039 37.4754 34.8845 34.5464 34.8845C33.8883 34.8845 33.2593 34.7652 32.6786 34.5458C32.6675 34.5329 32.6578 34.5188 32.6496 34.5039Z" fill="#D6EAE8"/>
<path d="M16.5671 37.2363C18.1574 36.1428 18.4767 34.5234 18.4767 34.5234C18.9154 34.8589 19.2251 35.2944 19.3445 35.8041C19.4735 36.3428 19.3767 36.8976 19.1058 37.4234C18.5509 38.488 17.2606 39.4267 15.6219 39.817C13.9832 40.2073 12.4122 39.9557 11.438 39.2525C10.9574 38.9073 10.6219 38.4557 10.4961 37.917C13.4896 38.5815 15.3832 38.0557 16.5671 37.2363Z" fill="#EA728C"/>
<path d="M19.6475 25.584C20.0411 26.0614 22.1927 28.7711 21.6798 32.513C21.3282 35.084 19.683 36.8098 19.1056 37.4227C19.3766 36.8969 19.4733 36.342 19.3443 35.8033C19.225 35.2937 18.9153 34.8582 18.4766 34.5227C21.8508 32.2259 19.7217 25.8098 19.6475 25.584Z" fill="#F7B6AD"/>
<path d="M4.12109 21.593C5.91787 21.122 7.02109 20.1801 7.68238 19.0833C8.36948 18.6027 8.86948 18.0414 8.7469 17.6285C8.71787 17.5349 8.64045 17.3962 8.39529 17.2672C8.90174 15.0478 8.29851 12.8704 8.29851 12.8704L8.30174 12.8672C8.94819 13.4032 9.44772 14.0947 9.75335 14.8769C10.763 17.4414 9.50819 20.3382 6.95013 21.3478C6.01464 21.7188 5.03722 21.7833 4.12109 21.5962V21.593Z" fill="#EF9D26"/>
<path d="M26.081 18.2817C25.8209 18.2675 25.5611 18.316 25.3236 18.423C25.0333 18.5549 24.841 18.7424 24.7307 18.8762C24.6763 18.9422 24.6503 19.0272 24.6585 19.1123C24.6667 19.1975 24.7084 19.2759 24.7744 19.3303C24.8404 19.3847 24.9253 19.4106 25.0105 19.4024C25.0956 19.3943 25.174 19.3526 25.2285 19.2866C25.3266 19.1688 25.4499 19.0746 25.5894 19.0111C25.7327 18.9465 25.8893 18.9173 26.0462 18.9259C26.1313 18.9292 26.2143 18.8993 26.2777 18.8425C26.3411 18.7856 26.3799 18.7063 26.3859 18.6214C26.3882 18.5791 26.3821 18.5367 26.368 18.4967C26.354 18.4567 26.3322 18.4199 26.3038 18.3884C26.2755 18.3568 26.2413 18.3312 26.2031 18.3129C26.1648 18.2946 26.1234 18.284 26.081 18.2817ZM23.4443 18.4227C23.2071 18.3161 22.9478 18.2677 22.6881 18.2817C22.6458 18.284 22.6043 18.2946 22.5661 18.3129C22.5279 18.3312 22.4936 18.3568 22.4653 18.3884C22.437 18.4199 22.4152 18.4567 22.4011 18.4967C22.387 18.5367 22.381 18.5791 22.3833 18.6214C22.393 18.7991 22.5491 18.9317 22.723 18.9259C22.8794 18.9171 23.0356 18.946 23.1785 19.0104C23.3772 19.1004 23.493 19.2298 23.5333 19.2808C23.5595 19.314 23.592 19.3418 23.629 19.3625C23.6659 19.3831 23.7066 19.3964 23.7487 19.4013C23.7907 19.4063 23.8333 19.4029 23.8741 19.3914C23.9148 19.3799 23.9529 19.3605 23.9862 19.3343C24.0194 19.3081 24.0472 19.2756 24.0679 19.2386C24.0886 19.2017 24.1018 19.161 24.1068 19.1189C24.1117 19.0769 24.1084 19.0343 24.0969 18.9935C24.0854 18.9527 24.066 18.9147 24.0397 18.8814C23.8801 18.6838 23.6761 18.5266 23.4443 18.4227Z" fill="#524956"/>
<path d="M18.5904 23.1663C18.3188 23.3179 17.8194 23.6689 17.5262 24.3147C17.388 24.6135 17.312 24.9373 17.3027 25.2663C17.3012 25.3087 17.3081 25.3509 17.323 25.3905C17.3379 25.4302 17.3604 25.4665 17.3894 25.4975C17.4183 25.5284 17.4531 25.5533 17.4917 25.5708C17.5303 25.5882 17.5719 25.5979 17.6143 25.5992L17.6252 25.5995C17.7089 25.5994 17.7892 25.5668 17.8492 25.5086C17.9093 25.4504 17.9444 25.3712 17.9472 25.2876C17.954 25.0443 18.0101 24.805 18.1123 24.5841C18.3307 24.1034 18.7027 23.8421 18.9049 23.7295C18.9425 23.7092 18.9758 23.6817 19.0027 23.6484C19.0295 23.6152 19.0495 23.5769 19.0615 23.5358C19.0734 23.4948 19.0771 23.4518 19.0723 23.4093C19.0675 23.3668 19.0543 23.3257 19.0334 23.2884C19.0126 23.251 18.9845 23.2182 18.9509 23.1918C18.9172 23.1654 18.8787 23.146 18.8374 23.1346C18.7962 23.1233 18.7531 23.1202 18.7107 23.1257C18.6683 23.1311 18.6274 23.1449 18.5904 23.1663ZM6.95491 26.8379C6.40136 26.3963 5.79781 26.307 5.48749 26.2934C5.44517 26.2915 5.40289 26.298 5.36306 26.3124C5.32324 26.3268 5.28664 26.349 5.25537 26.3775C5.19221 26.4353 5.15457 26.5157 5.15072 26.6012C5.14687 26.6866 5.17713 26.7701 5.23484 26.8333C5.29255 26.8964 5.37299 26.9341 5.45846 26.9379C5.69072 26.9483 6.14169 27.0144 6.55169 27.3415C6.74138 27.4951 6.89937 27.6843 7.01685 27.8983C7.05855 27.9729 7.12813 28.028 7.21035 28.0514C7.29258 28.0749 7.38075 28.0648 7.45556 28.0234C7.5303 27.9819 7.5855 27.9124 7.60903 27.8302C7.63256 27.748 7.62249 27.6598 7.58104 27.585C7.42297 27.2976 7.21028 27.0438 6.95491 26.8379Z" fill="#F7B6AD"/>
<path d="M13.4981 36.0292C13.4896 35.9868 13.4726 35.9465 13.4481 35.9108C13.4237 35.8751 13.3923 35.8447 13.3559 35.8214C13.3194 35.798 13.2787 35.7823 13.236 35.775C13.1933 35.7678 13.1497 35.7692 13.1076 35.7792C13.0655 35.7891 13.0258 35.8075 12.9909 35.8331C12.9561 35.8587 12.9267 35.8911 12.9046 35.9283C12.8825 35.9655 12.8681 36.0068 12.8623 36.0497C12.8565 36.0925 12.8594 36.1361 12.8707 36.1779L13.3091 38.0263C13.3175 38.0688 13.3345 38.1092 13.3588 38.145C13.3832 38.1809 13.4146 38.2114 13.4511 38.2349C13.4875 38.2584 13.5284 38.2742 13.5711 38.2815C13.6138 38.2889 13.6576 38.2875 13.6998 38.2775C13.742 38.2675 13.7817 38.2491 13.8167 38.2235C13.8516 38.1978 13.881 38.1653 13.9031 38.128C13.9252 38.0907 13.9395 38.0493 13.9453 38.0063C13.951 37.9634 13.9481 37.9197 13.9365 37.8779L13.4981 36.0292ZM16.4462 35.3263C16.4365 35.285 16.4188 35.2461 16.394 35.2118C16.3692 35.1774 16.3379 35.1483 16.3019 35.1261C16.2658 35.1038 16.2257 35.0889 16.1839 35.0822C16.1421 35.0755 16.0993 35.0771 16.0581 35.0869C16.0169 35.0966 15.978 35.1144 15.9437 35.1391C15.9093 35.1639 15.8802 35.1952 15.8579 35.2313C15.8357 35.2673 15.8208 35.3074 15.8141 35.3492C15.8074 35.391 15.809 35.4338 15.8188 35.475L16.2543 37.3101C16.2569 37.3214 16.2636 37.3427 16.2675 37.3534C16.2893 37.4152 16.3299 37.4688 16.3835 37.5065C16.4372 37.5443 16.5013 37.5644 16.5669 37.564C16.6036 37.564 16.6407 37.5576 16.6778 37.5447C16.8359 37.4882 16.9217 37.3172 16.8811 37.1572L16.4462 35.3263Z" fill="#BA6A7E"/>
<path d="M5.1478 17.9276C5.0626 17.9203 4.97799 17.9471 4.91246 18.0021C4.84694 18.057 4.80583 18.1357 4.79812 18.2208L4.72393 19.066C4.72017 19.1082 4.72476 19.1507 4.73745 19.1911C4.75014 19.2315 4.77068 19.269 4.79789 19.3014C4.8251 19.3339 4.85844 19.3607 4.89601 19.3802C4.93358 19.3998 4.97464 19.4117 5.01683 19.4153C5.02651 19.416 5.03619 19.4166 5.04554 19.4166C5.12617 19.4165 5.20384 19.3862 5.26325 19.3317C5.32266 19.2772 5.3595 19.2024 5.36651 19.1221L5.44071 18.277C5.44813 18.1918 5.42146 18.1072 5.36654 18.0417C5.31162 17.9762 5.23295 17.9351 5.1478 17.9276ZM6.39329 17.5902C6.36205 17.5606 6.32523 17.5376 6.28498 17.5225C6.24474 17.5074 6.20187 17.5005 6.15892 17.5022C6.11596 17.5039 6.07377 17.5142 6.03484 17.5324C5.9959 17.5506 5.96101 17.5764 5.93219 17.6083C5.90338 17.6403 5.88124 17.6776 5.86707 17.7182C5.85289 17.7588 5.84698 17.8018 5.84966 17.8447C5.85235 17.8876 5.86358 17.9295 5.88271 17.968C5.90183 18.0065 5.92846 18.0408 5.96103 18.0689L6.59006 18.6366C6.62142 18.6652 6.65811 18.6872 6.69803 18.7015C6.73795 18.7158 6.7803 18.722 6.82264 18.7199C6.86498 18.7177 6.90647 18.7072 6.94473 18.6889C6.98299 18.6706 7.01725 18.645 7.04554 18.6134C7.10284 18.5499 7.13258 18.4663 7.12823 18.3809C7.12387 18.2954 7.08578 18.2153 7.02232 18.1579L6.39329 17.5902Z" fill="#E28B50"/>
<path d="M13.418 9.57996H10.509C9.45446 9.99813 9.2207 9.28906 7.01817 9.28906C4.81564 9.28906 4.58188 9.99813 3.52734 9.57996H0.618346L0.230469 16.8889C0.472897 19.7615 2.25465 21.3251 3.66071 21.8948H10.3757C11.7817 21.3251 13.5635 19.7615 13.8059 16.8889L13.418 9.57996Z" fill="#F5DCB4"/>
<path d="M10.5078 9.5818C13.7832 10.5622 12.0001 15.618 14.1091 17.8034C14.4119 18.1172 14.9468 17.9778 15.0732 17.5605C15.2402 17.0092 15.4069 16.137 15.3804 14.8908C15.344 13.1817 16.0349 13.0727 16.0349 13.0727C16.0349 13.0727 15.1622 9 12.5441 9C11.6714 9 10.5078 9.5818 10.5078 9.5818Z" fill="#965A50"/>
<path d="M3.96346 17.1454C3.40347 17.1454 2.94531 16.6873 2.94531 16.1273V15.5455C2.94531 14.9855 3.40347 14.5273 3.96346 14.5273C4.52345 14.5273 4.98161 14.9855 4.98161 15.5455V16.1273C4.98164 16.6873 4.52345 17.1454 3.96346 17.1454Z" fill="#4B3F4E"/>
<path d="M3.96381 14.5273C3.91403 14.5273 3.86627 14.5351 3.81836 14.5421V15.9818C3.81836 16.3031 4.07886 16.5636 4.40016 16.5636C4.72149 16.5636 4.98196 16.3031 4.98196 15.9818V15.5455C4.98199 14.9856 4.5238 14.5273 3.96381 14.5273Z" fill="#5D5360"/>
<path d="M3.96369 15.6911C4.20468 15.6911 4.40004 15.4957 4.40004 15.2547C4.40004 15.0137 4.20468 14.8184 3.96369 14.8184C3.7227 14.8184 3.52734 15.0137 3.52734 15.2547C3.52734 15.4957 3.7227 15.6911 3.96369 15.6911Z" fill="white"/>
<path d="M10.0728 17.1454C9.51284 17.1454 9.05469 16.6873 9.05469 16.1273V15.5455C9.05469 14.9855 9.51284 14.5273 10.0728 14.5273C10.6328 14.5273 11.091 14.9855 11.091 15.5455V16.1273C11.091 16.6873 10.6328 17.1454 10.0728 17.1454Z" fill="#4B3F4E"/>
<path d="M10.0732 14.5273C10.0234 14.5273 9.97564 14.5351 9.92773 14.5421V15.9818C9.92773 16.3031 10.1882 16.5636 10.5095 16.5636C10.8309 16.5636 11.0913 16.3031 11.0913 15.9818V15.5455C11.0913 14.9856 10.6331 14.5273 10.0732 14.5273Z" fill="#5D5360"/>
<path d="M10.0731 15.6911C10.3141 15.6911 10.5094 15.4957 10.5094 15.2547C10.5094 15.0137 10.3141 14.8184 10.0731 14.8184C9.83208 14.8184 9.63672 15.0137 9.63672 15.2547C9.63672 15.4957 9.83208 15.6911 10.0731 15.6911Z" fill="white"/>
<path d="M14.1091 17.8031C14.4119 18.1168 14.9468 17.9775 15.0732 17.5602C15.1689 17.244 15.2634 16.8183 15.3226 16.281C14.7507 15.9959 14.2626 15.0865 13.9623 13.545C13.4168 10.7451 12.6532 9.18146 10.5078 9.58142C13.7832 10.5618 12.0001 15.6177 14.1091 17.8031Z" fill="#824641"/>
<path d="M3.66071 21.8969H5.0395C5.0395 21.8969 2.61832 20.2727 2.21833 17.4C1.44021 11.8116 2.92134 10.1396 4.20242 9.7129C3.99948 9.71977 3.78869 9.68563 3.52738 9.58203H0.618346L0.230469 16.8909C0.472897 19.7636 2.25465 21.3272 3.66071 21.8969Z" fill="#E7C9A5"/>
<path d="M3.52712 9.5818C0.251741 10.5622 2.03486 15.6181 -0.0741737 17.8034C-0.376945 18.1172 -0.911892 17.9778 -1.03825 17.5605C-1.20522 17.0092 -1.37198 16.137 -1.34546 14.8908C-1.3091 13.1817 -2 13.0727 -2 13.0727C-2 13.0727 -1.1273 9 1.49083 9C2.36353 9 3.52712 9.5818 3.52712 9.5818Z" fill="#965A50"/>
<path d="M3.42976 9.53548C3.13456 9.39852 2.21389 9 1.49083 9C-1.1273 9 -2 13.0727 -2 13.0727C-2 13.0727 -1.3091 13.1818 -1.34546 14.8908C-1.34595 14.9136 -1.34528 14.9342 -1.34563 14.9567C0.328358 8.60589 2.90066 9.31246 3.42976 9.53548Z" fill="#824641"/>
<path d="M7.01832 24.4178C8.78562 24.4178 10.2183 23.3759 10.2183 22.0907C10.2183 20.8055 8.78562 19.7637 7.01832 19.7637C5.25103 19.7637 3.81836 20.8055 3.81836 22.0907C3.81836 23.3759 5.25103 24.4178 7.01832 24.4178Z" fill="#BC8E78"/>
<path d="M5.5625 22.0898V23.5443C5.5625 24.3476 6.21369 24.9988 7.017 24.9988C7.8203 24.9988 8.47149 24.3476 8.47149 23.5443V22.0898H5.5625Z" fill="#FF8087"/>
<path d="M5.5625 23.226C5.98314 23.1733 6.38003 23.0453 6.7261 22.8518V23.2535C6.72729 23.3298 6.75846 23.4027 6.81288 23.4563C6.86731 23.5099 6.94062 23.5399 7.017 23.5399C7.09337 23.5399 7.16669 23.5099 7.22111 23.4563C7.27554 23.4027 7.30671 23.3298 7.3079 23.2535V22.8481C7.65061 23.0437 8.04857 23.1731 8.47149 23.2261V22.0898H5.5625V23.226Z" fill="#E6646E"/>
<path d="M8.90875 19.4727H5.12706C3.9221 19.4727 2.94531 20.189 2.94531 21.0726C2.94531 21.9562 3.92214 22.6726 5.12706 22.6726C5.73383 22.6726 6.28185 22.4905 6.67684 22.1971C6.77685 22.1228 6.89743 22.0857 7.0178 22.0857C7.13838 22.0857 7.25896 22.1228 7.35897 22.1971C7.75396 22.4905 8.30198 22.6726 8.90875 22.6726C10.1137 22.6726 11.0905 21.9562 11.0905 21.0726C11.0905 20.189 10.1137 19.4727 8.90875 19.4727Z" fill="#D4AF91"/>
<path d="M7.01891 18.3086C7.98288 18.3086 8.7643 18.8296 8.7643 19.4722C8.7643 20.092 8.03075 20.4183 7.50133 20.6596C7.34989 20.7287 7.18535 20.7645 7.01887 20.7645C6.85239 20.7645 6.68785 20.7287 6.53641 20.6596C6.00699 20.4183 5.27344 20.092 5.27344 19.4722C5.27351 18.8296 6.05493 18.3086 7.01891 18.3086Z" fill="#5D5360"/>
<path d="M6.13705 19.1541C6.09636 18.788 6.35425 18.3965 6.35425 18.3965C5.72007 18.5708 5.27344 18.9866 5.27344 19.4723C5.27344 20.092 6.00699 20.4183 6.53641 20.6597C6.68786 20.7288 6.85239 20.7646 7.01887 20.7646C7.18535 20.7646 7.34988 20.7288 7.50133 20.6597C7.61518 20.6078 7.73847 20.5516 7.86187 20.4897C7.14611 20.3632 6.21884 19.8905 6.13705 19.1541Z" fill="#4B3F4E"/>
</g>
<defs>
<clipPath id="clip0_3566_22529">
<rect width="40" height="40" fill="white"/>
</clipPath>
</defs>
</svg>
