<svg width="47" height="57" viewBox="0 0 47 57" fill="none" xmlns="http://www.w3.org/2000/svg">
<path d="M31.6104 38.6645L23.8862 48.3196L16.1621 38.6645C17.3286 37.7912 18.1656 36.5492 18.5373 35.1403C18.7951 34.3013 18.9602 33.4371 19.0297 32.5624V32.5527H28.7428V32.5624C28.8123 33.4304 28.9745 34.2878 29.2255 35.121C29.5964 36.5381 30.4372 37.7874 31.6104 38.6645Z" fill="#FDD7AD"/>
<path d="M46.9137 54.9523C46.9315 55.0884 46.9201 55.2268 46.8803 55.3581C46.8404 55.4895 46.773 55.6108 46.6826 55.7141C46.5921 55.8173 46.4807 55.9001 46.3557 55.9569C46.2307 56.0137 46.0951 56.0432 45.9578 56.0434H21.9551L23.8861 44.4572L31.6102 38.6641L39.8075 40.4213C41.3638 40.7537 42.7792 41.5594 43.8596 42.728C44.94 43.8965 45.6324 45.3706 45.842 46.9482L46.9137 54.9523Z" fill="#65DDB9"/>
<path d="M23.8873 44.4572V56.0434H1.81562C1.67835 56.0432 1.5427 56.0137 1.41772 55.9569C1.29274 55.9001 1.18131 55.8173 1.09085 55.7141C1.00039 55.6108 0.932993 55.4895 0.893143 55.3581C0.853293 55.2268 0.841911 55.0884 0.859756 54.9523L1.93148 46.9482C2.14103 45.3706 2.83347 43.8965 3.91384 42.728C4.99422 41.5594 6.40962 40.7537 7.96596 40.4213L16.1632 38.6641L23.8873 44.4572Z" fill="#26B99A"/>
<path d="M29.2254 35.121C27.6592 36.2061 25.791 36.7702 23.8861 36.7334C21.9806 36.7728 20.1105 36.2158 18.5371 35.1403C18.7949 34.3013 18.96 33.4371 19.0295 32.5624V32.5527H28.7426V32.5624C28.8121 33.4304 28.9743 34.2878 29.2254 35.121Z" fill="#F9C795"/>
<path d="M38.3699 48.3184H36.4389V46.3874C36.4389 46.1313 36.3372 45.8857 36.1561 45.7047C35.975 45.5236 35.7295 45.4219 35.4734 45.4219C35.2173 45.4219 34.9717 45.5236 34.7907 45.7047C34.6096 45.8857 34.5079 46.1313 34.5079 46.3874V48.3184H32.5768C32.3208 48.3184 32.0752 48.4201 31.8941 48.6012C31.7131 48.7823 31.6113 49.0279 31.6113 49.2839C31.6113 49.54 31.7131 49.7856 31.8941 49.9667C32.0752 50.1477 32.3208 50.2495 32.5768 50.2495H34.5079V52.1805C34.5079 52.4366 34.6096 52.6821 34.7907 52.8632C34.9717 53.0443 35.2173 53.146 35.4734 53.146C35.7295 53.146 35.975 53.0443 36.1561 52.8632C36.3372 52.6821 36.4389 52.4366 36.4389 52.1805V50.2495H38.3699C38.626 50.2495 38.8716 50.1477 39.0527 49.9667C39.2337 49.7856 39.3355 49.54 39.3355 49.2839C39.3355 49.0279 39.2337 48.7823 39.0527 48.6012C38.8716 48.4201 38.626 48.3184 38.3699 48.3184Z" fill="#E64C3C"/>
<path d="M14.2347 50.6356C14.2347 51.9149 13.3706 52.1804 12.3037 52.1804C11.2368 52.1804 10.3726 51.9149 10.3726 50.6356C10.2761 49.4654 11.1354 48.4342 12.3037 48.3184C13.4719 48.4342 14.3313 49.4654 14.2347 50.6356Z" fill="#3F5C6C"/>
<path d="M10.3698 46.3881C10.9031 46.3881 11.3353 45.9558 11.3353 45.4225C11.3353 44.8893 10.9031 44.457 10.3698 44.457C9.83657 44.457 9.4043 44.8893 9.4043 45.4225C9.4043 45.9558 9.83657 46.3881 10.3698 46.3881Z" fill="#3F5C6C"/>
<path d="M8.44013 48.3178C8.97337 48.3178 9.40564 47.8855 9.40564 47.3522C9.40564 46.819 8.97337 46.3867 8.44013 46.3867C7.90689 46.3867 7.47461 46.819 7.47461 47.3522C7.47461 47.8855 7.90689 48.3178 8.44013 48.3178Z" fill="#3F5C6C"/>
<path d="M14.235 46.3881C14.7683 46.3881 15.2006 45.9558 15.2006 45.4225C15.2006 44.8893 14.7683 44.457 14.235 44.457C13.7018 44.457 13.2695 44.8893 13.2695 45.4225C13.2695 45.9558 13.7018 46.3881 14.235 46.3881Z" fill="#3F5C6C"/>
<path d="M16.1647 48.3178C16.698 48.3178 17.1303 47.8855 17.1303 47.3522C17.1303 46.819 16.698 46.3867 16.1647 46.3867C15.6315 46.3867 15.1992 46.819 15.1992 47.3522C15.1992 47.8855 15.6315 48.3178 16.1647 48.3178Z" fill="#3F5C6C"/>
<path d="M10.3707 15.4912C9.93989 14.2471 9.69902 12.9451 9.65625 11.6292L9.72384 7.7671C9.91887 5.01634 10.8052 2.36021 12.3018 0.0429688C12.3018 0.0429688 14.2328 1.974 19.0604 1.00849C23.888 0.0429688 31.4962 -1.03841 35.4742 2.93952C36.7095 4.30253 37.5622 5.96806 37.9459 7.7671L38.4093 11.6292C38.4257 13.0513 38.1836 14.4646 37.6948 15.8002C37.61 16.024 37.5133 16.2432 37.4052 16.4568L10.3707 15.4912Z" fill="#CB8252"/>
<path d="M35.4636 15.1732C36.6029 14.9511 38.3698 15.1249 38.3698 18.3884C38.3698 22.4629 36.3036 23.1001 34.4981 23.1966H13.276C11.4705 23.1001 9.4043 22.4629 9.4043 18.3884C9.4043 15.1249 11.1712 14.9511 12.3105 15.1732H35.4636Z" fill="#F9C795"/>
<path d="M34.7703 11.6289C35.0957 12.5703 35.3322 13.5406 35.4751 14.5255C35.4751 23.4188 32.819 33.8358 23.8889 33.8358C13.2683 33.8358 12.3027 19.353 12.3027 14.5255C12.4456 13.5406 12.6822 12.5703 13.0076 11.6289H34.7703Z" fill="#FDD7AD"/>
<path d="M9.40497 7.76758C9.1489 7.76758 8.90332 7.8693 8.72225 8.05037C8.54118 8.23144 8.43945 8.47702 8.43945 8.73309V10.6641C8.43945 10.9202 8.54118 11.1658 8.72225 11.3469C8.90332 11.5279 9.1489 11.6296 9.40497 11.6296H38.4091C38.6584 11.6197 38.8942 11.5136 39.067 11.3336C39.2398 11.1536 39.3362 10.9136 39.336 10.6641V8.73309C39.336 8.47702 39.2343 8.23144 39.0532 8.05037C38.8721 7.8693 38.6265 7.76758 38.3705 7.76758H9.40497Z" fill="#65DDB9"/>
<path d="M27.7507 13.562C29.8837 13.562 31.6128 11.8329 31.6128 9.69996C31.6128 7.567 29.8837 5.83789 27.7507 5.83789C25.6178 5.83789 23.8887 7.567 23.8887 9.69996C23.8887 11.8329 25.6178 13.562 27.7507 13.562Z" fill="#95A5A5"/>
</svg>
