<svg width="164" height="56" viewBox="0 0 164 56" fill="none" xmlns="http://www.w3.org/2000/svg">
<rect x="0.5" y="0.5" width="163" height="55" rx="27.5" fill="#1D2432"/>
<rect x="0.5" y="0.5" width="163" height="55" rx="27.5" stroke="#FFDAB0"/>
<g clip-path="url(#clip0_3379_90537)">
<path d="M35.7 19.4825C35.6091 19.4834 35.5188 19.4665 35.4344 19.4326C35.35 19.3987 35.2731 19.3485 35.2081 19.2849C35.1431 19.2213 35.0913 19.1455 35.0556 19.0619C35.0199 18.9782 35.001 18.8883 35 18.7974C35 16.1467 37.1952 14.0001 39.8981 14.0001C39.9891 13.9988 40.0795 14.0156 40.164 14.0494C40.2485 14.0832 40.3255 14.1334 40.3906 14.1971C40.4556 14.2607 40.5074 14.3366 40.5431 14.4204C40.5787 14.5041 40.5974 14.5941 40.5981 14.6851C40.5981 17.3358 38.4048 19.4825 35.7 19.4825Z" fill="white"/>
<path d="M35.7008 19.4825C35.6098 19.4834 35.5196 19.4665 35.4352 19.4326C35.3508 19.3987 35.2739 19.3485 35.2089 19.2849C35.1439 19.2213 35.0921 19.1455 35.0563 19.0619C35.0206 18.9782 35.0018 18.8883 35.0008 18.7974C35.0008 16.1467 37.196 14.0001 39.8989 14.0001C39.9899 13.9988 40.0803 14.0156 40.1648 14.0494C40.2493 14.0832 40.3263 14.1334 40.3914 14.1971C40.4564 14.2607 40.5082 14.3366 40.5438 14.4204C40.5795 14.5041 40.5982 14.5941 40.5989 14.6851C40.5989 17.3358 38.4056 19.4825 35.7008 19.4825ZM45.9208 33.9137C46.1914 34.1115 46.2792 34.4737 46.1261 34.7686C43.6621 39.5958 41.6965 42.0001 39.9008 42.0001C39.0645 42.0001 38.2432 41.735 37.4424 41.2198C36.8676 40.8508 36.202 40.6478 35.5192 40.6333C34.8363 40.6188 34.1627 40.7934 33.5728 41.1377C32.6021 41.707 31.6781 42.0001 30.8008 42.0001C28.1594 42.0001 23.8008 34.035 23.8008 29.6651C23.8008 24.9985 26.3002 21.4406 30.1008 21.4406C31.889 21.4406 33.4328 21.6982 34.7301 22.2227C35.2789 22.443 35.9005 22.4281 36.4362 22.1761C37.489 21.6795 38.8778 21.4406 40.5989 21.4406C42.7026 21.4406 44.5376 22.4673 46.0608 24.4553C46.1159 24.527 46.156 24.609 46.1789 24.6965C46.2017 24.7839 46.2067 24.8751 46.1937 24.9646C46.1806 25.0541 46.1497 25.14 46.1028 25.2173C46.056 25.2946 45.9941 25.3618 45.9208 25.4147C44.2202 26.6654 43.4008 28.0673 43.4008 29.6651C43.4008 31.2611 44.2202 32.6649 45.9208 33.9137Z" fill="white"/>
<path d="M45.9208 33.9145C46.1914 34.1123 46.2792 34.4745 46.1261 34.7694C43.6621 39.5966 41.6965 42.0009 39.9008 42.0009C39.0645 42.0009 38.2432 41.7358 37.4424 41.2206C36.8676 40.8516 36.202 40.6486 35.5192 40.6341C34.8363 40.6196 34.1627 40.7942 33.5728 41.1385C32.6021 41.7078 31.6781 42.0009 30.8008 42.0009C28.1594 42.0009 23.8008 34.0358 23.8008 29.6659C23.8008 24.9993 26.3002 21.4414 30.1008 21.4414C31.889 21.4414 33.4328 21.699 34.7301 22.2235C35.2789 22.4438 35.9005 22.4289 36.4362 22.1769C37.489 21.6803 38.8778 21.4414 40.5989 21.4414C42.7026 21.4414 44.5376 22.4681 46.0608 24.4561C46.1159 24.5278 46.156 24.6098 46.1789 24.6973C46.2017 24.7848 46.2067 24.8759 46.1937 24.9654C46.1806 25.0549 46.1497 25.1408 46.1028 25.2181C46.056 25.2955 45.9941 25.3626 45.9208 25.4155C44.2202 26.6662 43.4008 28.0681 43.4008 29.6659C43.4008 31.2619 44.2202 32.6657 45.9208 33.9145Z" fill="white"/>
</g>
<path d="M60.152 33.112C59.9813 33.112 59.8427 33.0747 59.736 33C59.64 32.9147 59.5813 32.808 59.56 32.68C59.5493 32.5413 59.5813 32.3867 59.656 32.216L64.056 22.2C64.152 21.9867 64.264 21.8373 64.392 21.752C64.5307 21.656 64.68 21.608 64.84 21.608C65 21.608 65.144 21.656 65.272 21.752C65.4107 21.8373 65.5227 21.9867 65.608 22.2L70.024 32.216C70.1093 32.3867 70.1413 32.5413 70.12 32.68C70.1093 32.8187 70.056 32.9253 69.96 33C69.864 33.0747 69.7307 33.112 69.56 33.112C69.368 33.112 69.2133 33.064 69.096 32.968C68.9787 32.8613 68.8827 32.712 68.808 32.52L67.624 29.784L68.264 30.12H61.384L62.04 29.784L60.872 32.52C60.776 32.7227 60.6747 32.872 60.568 32.968C60.4613 33.064 60.3227 33.112 60.152 33.112ZM64.824 23.256L62.248 29.32L61.864 29.016H67.784L67.432 29.32L64.856 23.256H64.824ZM72.5123 35.992C72.2989 35.992 72.1389 35.9333 72.0323 35.816C71.9256 35.7093 71.8723 35.5493 71.8723 35.336V25.768C71.8723 25.5547 71.9256 25.3947 72.0323 25.288C72.1389 25.1707 72.2936 25.112 72.4963 25.112C72.7096 25.112 72.8696 25.1707 72.9763 25.288C73.0936 25.3947 73.1523 25.5547 73.1523 25.768V27.288L72.9763 27.064C73.1469 26.456 73.4829 25.976 73.9843 25.624C74.4963 25.2613 75.1043 25.08 75.8083 25.08C76.5016 25.08 77.1043 25.2453 77.6163 25.576C78.1389 25.896 78.5389 26.36 78.8163 26.968C79.1043 27.5653 79.2483 28.28 79.2483 29.112C79.2483 29.9333 79.1043 30.648 78.8163 31.256C78.5389 31.8533 78.1443 32.3173 77.6323 32.648C77.1203 32.9787 76.5123 33.144 75.8083 33.144C75.1043 33.144 74.5016 32.968 74.0003 32.616C73.4989 32.2533 73.1576 31.7733 72.9763 31.176H73.1683V35.336C73.1683 35.5493 73.1096 35.7093 72.9923 35.816C72.8749 35.9333 72.7149 35.992 72.5123 35.992ZM75.5363 32.104C76.0269 32.104 76.4483 31.9867 76.8003 31.752C77.1629 31.5173 77.4403 31.176 77.6323 30.728C77.8349 30.28 77.9363 29.7413 77.9363 29.112C77.9363 28.1413 77.7176 27.4 77.2803 26.888C76.8536 26.376 76.2723 26.12 75.5363 26.12C75.0563 26.12 74.6349 26.2373 74.2723 26.472C73.9096 26.696 73.6269 27.032 73.4243 27.48C73.2323 27.9173 73.1363 28.4613 73.1363 29.112C73.1363 30.072 73.3549 30.8133 73.7923 31.336C74.2296 31.848 74.8109 32.104 75.5363 32.104ZM81.8404 35.992C81.627 35.992 81.467 35.9333 81.3604 35.816C81.2537 35.7093 81.2004 35.5493 81.2004 35.336V25.768C81.2004 25.5547 81.2537 25.3947 81.3604 25.288C81.467 25.1707 81.6217 25.112 81.8244 25.112C82.0377 25.112 82.1977 25.1707 82.3044 25.288C82.4217 25.3947 82.4804 25.5547 82.4804 25.768V27.288L82.3044 27.064C82.475 26.456 82.811 25.976 83.3124 25.624C83.8244 25.2613 84.4324 25.08 85.1364 25.08C85.8297 25.08 86.4324 25.2453 86.9444 25.576C87.467 25.896 87.867 26.36 88.1444 26.968C88.4324 27.5653 88.5764 28.28 88.5764 29.112C88.5764 29.9333 88.4324 30.648 88.1444 31.256C87.867 31.8533 87.4724 32.3173 86.9604 32.648C86.4484 32.9787 85.8404 33.144 85.1364 33.144C84.4324 33.144 83.8297 32.968 83.3284 32.616C82.827 32.2533 82.4857 31.7733 82.3044 31.176H82.4964V35.336C82.4964 35.5493 82.4377 35.7093 82.3204 35.816C82.203 35.9333 82.043 35.992 81.8404 35.992ZM84.8644 32.104C85.355 32.104 85.7764 31.9867 86.1284 31.752C86.491 31.5173 86.7684 31.176 86.9604 30.728C87.163 30.28 87.2644 29.7413 87.2644 29.112C87.2644 28.1413 87.0457 27.4 86.6084 26.888C86.1817 26.376 85.6004 26.12 84.8644 26.12C84.3844 26.12 83.963 26.2373 83.6004 26.472C83.2377 26.696 82.955 27.032 82.7524 27.48C82.5604 27.9173 82.4644 28.4613 82.4644 29.112C82.4644 30.072 82.683 30.8133 83.1204 31.336C83.5577 31.848 84.139 32.104 84.8644 32.104ZM92.8965 33.144C92.1285 33.144 91.5418 32.9093 91.1365 32.44C90.7312 31.9707 90.5285 31.2987 90.5285 30.424V22.264C90.5285 22.0507 90.5818 21.8907 90.6885 21.784C90.7952 21.6667 90.9552 21.608 91.1685 21.608C91.3712 21.608 91.5312 21.6667 91.6485 21.784C91.7658 21.8907 91.8245 22.0507 91.8245 22.264V30.328C91.8245 30.904 91.9365 31.336 92.1605 31.624C92.3952 31.9013 92.7365 32.04 93.1845 32.04C93.2805 32.04 93.3658 32.0347 93.4405 32.024C93.5152 32.0133 93.5898 32.008 93.6645 32.008C93.7818 31.9973 93.8618 32.024 93.9045 32.088C93.9578 32.152 93.9845 32.28 93.9845 32.472C93.9845 32.664 93.9418 32.808 93.8565 32.904C93.7712 33 93.6325 33.064 93.4405 33.096C93.3552 33.1067 93.2645 33.1173 93.1685 33.128C93.0725 33.1387 92.9818 33.144 92.8965 33.144ZM98.6888 33.144C97.8674 33.144 97.1581 32.984 96.5608 32.664C95.9741 32.3333 95.5154 31.8693 95.1848 31.272C94.8648 30.6747 94.7048 29.96 94.7048 29.128C94.7048 28.3173 94.8648 27.6133 95.1848 27.016C95.5048 26.408 95.9421 25.9333 96.4968 25.592C97.0621 25.2507 97.7128 25.08 98.4488 25.08C98.9714 25.08 99.4408 25.1707 99.8568 25.352C100.273 25.5227 100.625 25.7733 100.913 26.104C101.211 26.4347 101.435 26.8347 101.585 27.304C101.745 27.7733 101.825 28.3013 101.825 28.888C101.825 29.0587 101.777 29.1867 101.681 29.272C101.585 29.3467 101.446 29.384 101.265 29.384H95.6968V28.536H100.961L100.705 28.744C100.705 28.168 100.619 27.6827 100.449 27.288C100.278 26.8827 100.027 26.5733 99.6968 26.36C99.3768 26.1467 98.9714 26.04 98.4808 26.04C97.9368 26.04 97.4728 26.168 97.0888 26.424C96.7154 26.6693 96.4328 27.016 96.2408 27.464C96.0488 27.9013 95.9528 28.4133 95.9528 29V29.096C95.9528 30.0773 96.1874 30.824 96.6568 31.336C97.1368 31.848 97.8141 32.104 98.6888 32.104C99.0514 32.104 99.4088 32.056 99.7608 31.96C100.123 31.864 100.475 31.704 100.817 31.48C100.966 31.384 101.099 31.3413 101.217 31.352C101.345 31.352 101.446 31.3893 101.521 31.464C101.595 31.528 101.643 31.6133 101.665 31.72C101.697 31.816 101.686 31.9227 101.633 32.04C101.59 32.1573 101.499 32.2587 101.361 32.344C101.009 32.6 100.593 32.7973 100.113 32.936C99.6328 33.0747 99.1581 33.144 98.6888 33.144ZM110.449 33.144C109.969 33.144 109.484 33.0853 108.993 32.968C108.513 32.8507 108.065 32.648 107.649 32.36C107.543 32.2853 107.468 32.2 107.425 32.104C107.383 31.9973 107.367 31.896 107.377 31.8C107.399 31.6933 107.441 31.6027 107.505 31.528C107.58 31.4533 107.665 31.4107 107.761 31.4C107.868 31.3787 107.985 31.4 108.113 31.464C108.529 31.72 108.929 31.9013 109.313 32.008C109.708 32.104 110.097 32.152 110.481 32.152C111.089 32.152 111.548 32.04 111.857 31.816C112.167 31.592 112.321 31.288 112.321 30.904C112.321 30.6053 112.22 30.3707 112.017 30.2C111.815 30.0187 111.495 29.88 111.057 29.784L109.601 29.464C108.929 29.3253 108.428 29.0853 108.097 28.744C107.777 28.4027 107.617 27.96 107.617 27.416C107.617 26.936 107.74 26.5253 107.985 26.184C108.241 25.832 108.599 25.56 109.057 25.368C109.516 25.176 110.049 25.08 110.657 25.08C111.127 25.08 111.569 25.144 111.985 25.272C112.412 25.3893 112.796 25.5813 113.137 25.848C113.244 25.9227 113.313 26.0133 113.345 26.12C113.388 26.216 113.393 26.3173 113.361 26.424C113.34 26.52 113.292 26.6053 113.217 26.68C113.143 26.744 113.052 26.7813 112.945 26.792C112.839 26.8027 112.727 26.7707 112.609 26.696C112.289 26.4827 111.964 26.328 111.633 26.232C111.303 26.1253 110.977 26.072 110.657 26.072C110.06 26.072 109.607 26.1893 109.297 26.424C108.988 26.6587 108.833 26.968 108.833 27.352C108.833 27.6507 108.929 27.896 109.121 28.088C109.313 28.28 109.612 28.4187 110.017 28.504L111.473 28.808C112.167 28.9573 112.684 29.1973 113.025 29.528C113.377 29.848 113.553 30.2853 113.553 30.84C113.553 31.544 113.271 32.104 112.705 32.52C112.14 32.936 111.388 33.144 110.449 33.144ZM118.57 33.144C117.962 33.144 117.45 33.0373 117.034 32.824C116.629 32.6 116.325 32.28 116.122 31.864C115.92 31.4373 115.818 30.92 115.818 30.312V26.232H114.746C114.565 26.232 114.426 26.1893 114.33 26.104C114.234 26.008 114.186 25.88 114.186 25.72C114.186 25.56 114.234 25.4373 114.33 25.352C114.426 25.2667 114.565 25.224 114.746 25.224H115.818V23.384C115.818 23.1707 115.877 23.0107 115.994 22.904C116.112 22.7867 116.272 22.728 116.474 22.728C116.677 22.728 116.832 22.7867 116.938 22.904C117.056 23.0107 117.114 23.1707 117.114 23.384V25.224H119.13C119.312 25.224 119.45 25.2667 119.546 25.352C119.642 25.4373 119.69 25.56 119.69 25.72C119.69 25.88 119.642 26.008 119.546 26.104C119.45 26.1893 119.312 26.232 119.13 26.232H117.114V30.184C117.114 30.792 117.242 31.256 117.498 31.576C117.754 31.8853 118.17 32.04 118.746 32.04C118.949 32.04 119.12 32.0187 119.258 31.976C119.408 31.9333 119.53 31.912 119.626 31.912C119.722 31.9013 119.802 31.9333 119.866 32.008C119.93 32.0827 119.962 32.2107 119.962 32.392C119.962 32.52 119.936 32.6373 119.882 32.744C119.84 32.8507 119.76 32.9253 119.642 32.968C119.514 33.0107 119.344 33.048 119.13 33.08C118.928 33.1227 118.741 33.144 118.57 33.144ZM124.198 33.144C123.441 33.144 122.785 32.9787 122.23 32.648C121.675 32.3173 121.243 31.8533 120.934 31.256C120.635 30.648 120.486 29.9333 120.486 29.112C120.486 28.4933 120.571 27.9387 120.742 27.448C120.913 26.9467 121.163 26.52 121.494 26.168C121.825 25.816 122.214 25.5493 122.662 25.368C123.121 25.176 123.633 25.08 124.198 25.08C124.955 25.08 125.611 25.2453 126.166 25.576C126.721 25.9067 127.147 26.376 127.446 26.984C127.755 27.5813 127.91 28.2907 127.91 29.112C127.91 29.7307 127.825 30.2853 127.654 30.776C127.483 31.2667 127.233 31.6933 126.902 32.056C126.571 32.408 126.177 32.68 125.718 32.872C125.27 33.0533 124.763 33.144 124.198 33.144ZM124.198 32.104C124.678 32.104 125.099 31.9867 125.462 31.752C125.825 31.5173 126.102 31.176 126.294 30.728C126.497 30.28 126.598 29.7413 126.598 29.112C126.598 28.1413 126.379 27.4 125.942 26.888C125.515 26.376 124.934 26.12 124.198 26.12C123.707 26.12 123.281 26.2373 122.918 26.472C122.566 26.696 122.289 27.032 122.086 27.48C121.894 27.9173 121.798 28.4613 121.798 29.112C121.798 30.072 122.017 30.8133 122.454 31.336C122.891 31.848 123.473 32.104 124.198 32.104ZM130.513 33.112C130.299 33.112 130.134 33.0533 130.017 32.936C129.91 32.8187 129.857 32.6533 129.857 32.44V25.768C129.857 25.5547 129.91 25.3947 130.017 25.288C130.123 25.1707 130.278 25.112 130.481 25.112C130.683 25.112 130.838 25.1707 130.945 25.288C131.062 25.3947 131.121 25.5547 131.121 25.768V27.064H130.961C131.131 26.4347 131.457 25.9493 131.937 25.608C132.417 25.2667 133.009 25.0853 133.713 25.064C133.873 25.0533 134.001 25.0907 134.097 25.176C134.193 25.2507 134.246 25.384 134.257 25.576C134.267 25.7573 134.225 25.9013 134.129 26.008C134.033 26.1147 133.883 26.1787 133.681 26.2L133.425 26.232C132.699 26.296 132.139 26.5307 131.745 26.936C131.361 27.3307 131.169 27.8747 131.169 28.568V32.44C131.169 32.6533 131.11 32.8187 130.993 32.936C130.886 33.0533 130.726 33.112 130.513 33.112ZM139.001 33.144C138.18 33.144 137.471 32.984 136.873 32.664C136.287 32.3333 135.828 31.8693 135.497 31.272C135.177 30.6747 135.017 29.96 135.017 29.128C135.017 28.3173 135.177 27.6133 135.497 27.016C135.817 26.408 136.255 25.9333 136.809 25.592C137.375 25.2507 138.025 25.08 138.761 25.08C139.284 25.08 139.753 25.1707 140.169 25.352C140.585 25.5227 140.937 25.7733 141.225 26.104C141.524 26.4347 141.748 26.8347 141.897 27.304C142.057 27.7733 142.137 28.3013 142.137 28.888C142.137 29.0587 142.089 29.1867 141.993 29.272C141.897 29.3467 141.759 29.384 141.577 29.384H136.009V28.536H141.273L141.017 28.744C141.017 28.168 140.932 27.6827 140.761 27.288C140.591 26.8827 140.34 26.5733 140.009 26.36C139.689 26.1467 139.284 26.04 138.793 26.04C138.249 26.04 137.785 26.168 137.401 26.424C137.028 26.6693 136.745 27.016 136.553 27.464C136.361 27.9013 136.265 28.4133 136.265 29V29.096C136.265 30.0773 136.5 30.824 136.969 31.336C137.449 31.848 138.127 32.104 139.001 32.104C139.364 32.104 139.721 32.056 140.073 31.96C140.436 31.864 140.788 31.704 141.129 31.48C141.279 31.384 141.412 31.3413 141.529 31.352C141.657 31.352 141.759 31.3893 141.833 31.464C141.908 31.528 141.956 31.6133 141.977 31.72C142.009 31.816 141.999 31.9227 141.945 32.04C141.903 32.1573 141.812 32.2587 141.673 32.344C141.321 32.6 140.905 32.7973 140.425 32.936C139.945 33.0747 139.471 33.144 139.001 33.144Z" fill="white"/>
<defs>
<clipPath id="clip0_3379_90537">
<rect width="28" height="28" fill="white" transform="translate(21 14)"/>
</clipPath>
</defs>
</svg>
