<svg width="52" height="52" viewBox="0 0 52 52" fill="none" xmlns="http://www.w3.org/2000/svg">
<path fill-rule="evenodd" clip-rule="evenodd" d="M19.269 4.22935C18.5294 4.22935 17.9297 3.62969 17.9297 2.89007C17.9297 2.15045 18.5294 1.55078 19.269 1.55078H50.1915C50.9311 1.55078 51.5308 2.15045 51.5308 2.89007C51.5308 3.62969 50.9311 4.22935 50.1915 4.22935H19.269ZM19.269 42.4513C18.5294 42.4513 17.9297 41.8517 17.9297 41.1121C17.9297 40.3724 18.5294 39.7728 19.269 39.7728H50.1915C50.9311 39.7728 51.5308 40.3724 51.5308 41.1121C51.5308 41.8517 50.9311 42.4513 50.1915 42.4513H19.269ZM19.269 50.446C18.5294 50.446 17.9297 49.8463 17.9297 49.1067C17.9297 48.3671 18.5294 47.7674 19.269 47.7674H50.1915C50.9311 47.7674 51.5308 48.3671 51.5308 49.1067C51.5308 49.8463 50.9311 50.446 50.1915 50.446H19.269ZM19.269 23.3403C18.5294 23.3403 17.9297 22.7406 17.9297 22.001C17.9297 21.2614 18.5294 20.6617 19.269 20.6617H50.1915C50.9311 20.6617 51.5308 21.2614 51.5308 22.001C51.5308 22.7406 50.9311 23.3403 50.1915 23.3403H19.269ZM19.269 31.3349C18.5294 31.3349 17.9297 30.7353 17.9297 29.9956C17.9297 29.256 18.5294 28.6564 19.269 28.6564H50.1915C50.9311 28.6564 51.5308 29.256 51.5308 29.9956C51.5308 30.7353 50.9311 31.3349 50.1915 31.3349H19.269ZM19.269 12.2239C18.5294 12.2239 17.9297 11.6242 17.9297 10.8846C17.9297 10.145 18.5294 9.54531 19.269 9.54531H50.1915C50.9311 9.54531 51.5308 10.145 51.5308 10.8846C51.5308 11.6242 50.9311 12.2239 50.1915 12.2239H19.269Z" fill="#B6C1CC"/>
<path fill-rule="evenodd" clip-rule="evenodd" d="M1.86172 0.886719H11.077C11.8432 0.886719 12.47 1.5135 12.47 2.27969V11.495C12.47 12.2612 11.8432 12.8879 11.077 12.8879H1.86172C1.09554 12.8879 0.46875 12.2612 0.46875 11.495V2.27969C0.46875 1.5135 1.09565 0.886719 1.86172 0.886719Z" fill="#B9EA6A"/>
<path fill-rule="evenodd" clip-rule="evenodd" d="M11.3307 0.910156C11.9769 1.03025 12.4701 1.60011 12.4701 2.2798V11.4951C12.4701 12.2613 11.8433 12.8881 11.0771 12.8881H1.86183C1.18225 12.8881 0.612277 12.3949 0.492188 11.7485C0.574442 11.7638 0.659152 11.7719 0.745647 11.7719H9.96094C10.7271 11.7719 11.3539 11.1451 11.3539 10.3789V1.16362C11.354 1.07859 11.3462 0.993744 11.3307 0.910156Z" fill="#A1E42C"/>
<path fill-rule="evenodd" clip-rule="evenodd" d="M1.86172 19.998H11.077C11.8432 19.998 12.47 20.6248 12.47 21.391V30.6063C12.47 31.3725 11.8432 31.9993 11.077 31.9993H1.86172C1.09554 31.9993 0.46875 31.3724 0.46875 30.6063V21.391C0.46875 20.6249 1.09565 19.998 1.86172 19.998Z" fill="#FCDD2E"/>
<path fill-rule="evenodd" clip-rule="evenodd" d="M11.3307 20.0215C11.9769 20.1416 12.4701 20.7114 12.4701 21.3911V30.6064C12.4701 31.3726 11.8433 31.9994 11.0771 31.9994H1.86183C1.18225 31.9994 0.612277 31.5062 0.492188 30.8599C0.574442 30.8752 0.659152 30.8832 0.745647 30.8832H9.96094C10.7271 30.8832 11.3539 30.2564 11.3539 29.4902V20.2749C11.354 20.1899 11.3462 20.1051 11.3307 20.0215Z" fill="#FBD307"/>
<path fill-rule="evenodd" clip-rule="evenodd" d="M1.86172 39.1094H11.077C11.8432 39.1094 12.47 39.7362 12.47 40.5023V49.7176C12.47 50.4838 11.8432 51.1106 11.077 51.1106H1.86172C1.09554 51.1106 0.46875 50.4837 0.46875 49.7176V40.5023C0.46875 39.7362 1.09565 39.1094 1.86172 39.1094Z" fill="#FC5692"/>
<path fill-rule="evenodd" clip-rule="evenodd" d="M11.3307 39.1328C11.9769 39.2529 12.4701 39.8228 12.4701 40.5025V49.7177C12.4701 50.4839 11.8433 51.1107 11.0771 51.1107H1.86183C1.18225 51.1107 0.612277 50.6175 0.492188 49.9712C0.574442 49.9865 0.659152 49.9945 0.745647 49.9945H9.96094C10.7271 49.9945 11.3539 49.3677 11.3539 48.6016V39.3863C11.354 39.3012 11.3462 39.2164 11.3307 39.1328Z" fill="#FB3580"/>
</svg>
