<svg width="345" height="200" viewBox="0 0 345 200" fill="none" xmlns="http://www.w3.org/2000/svg">
<rect x="0.5" y="0.5" width="344" height="199" rx="23.5" fill="#0F0F0F"/>
<rect x="0.5" y="0.5" width="344" height="199" rx="23.5" stroke="#0F0F0F"/>
<circle cx="306" cy="151" r="15" fill="#DA4A54"/>
<circle cx="291" cy="151" r="15" fill="#FBC700"/>
<path d="M229.466 47.144C229.13 47.144 228.872 47.048 228.692 46.856C228.512 46.664 228.422 46.4 228.422 46.064V35.246C228.422 34.898 228.518 34.634 228.71 34.454C228.902 34.262 229.166 34.166 229.502 34.166C229.802 34.166 230.036 34.226 230.204 34.346C230.384 34.454 230.546 34.646 230.69 34.922L235.136 43.148H234.56L239.006 34.922C239.15 34.646 239.306 34.454 239.474 34.346C239.642 34.226 239.876 34.166 240.176 34.166C240.512 34.166 240.77 34.262 240.95 34.454C241.13 34.634 241.22 34.898 241.22 35.246V46.064C241.22 46.4 241.13 46.664 240.95 46.856C240.782 47.048 240.524 47.144 240.176 47.144C239.84 47.144 239.582 47.048 239.402 46.856C239.222 46.664 239.132 46.4 239.132 46.064V37.73H239.528L235.748 44.624C235.628 44.828 235.502 44.978 235.37 45.074C235.238 45.17 235.058 45.218 234.83 45.218C234.602 45.218 234.416 45.17 234.272 45.074C234.128 44.966 234.002 44.816 233.894 44.624L230.078 37.712H230.51V46.064C230.51 46.4 230.42 46.664 230.24 46.856C230.072 47.048 229.814 47.144 229.466 47.144ZM246.695 47.18C246.059 47.18 245.489 47.06 244.985 46.82C244.493 46.568 244.103 46.232 243.815 45.812C243.539 45.392 243.401 44.918 243.401 44.39C243.401 43.742 243.569 43.232 243.905 42.86C244.241 42.476 244.787 42.2 245.543 42.032C246.299 41.864 247.313 41.78 248.585 41.78H249.485V43.076H248.603C247.859 43.076 247.265 43.112 246.821 43.184C246.377 43.256 246.059 43.382 245.867 43.562C245.687 43.73 245.597 43.97 245.597 44.282C245.597 44.678 245.735 45.002 246.011 45.254C246.287 45.506 246.671 45.632 247.163 45.632C247.559 45.632 247.907 45.542 248.207 45.362C248.519 45.17 248.765 44.912 248.945 44.588C249.125 44.264 249.215 43.892 249.215 43.472V41.402C249.215 40.802 249.083 40.37 248.819 40.106C248.555 39.842 248.111 39.71 247.487 39.71C247.139 39.71 246.761 39.752 246.353 39.836C245.957 39.92 245.537 40.064 245.093 40.268C244.865 40.376 244.661 40.406 244.481 40.358C244.313 40.31 244.181 40.214 244.085 40.07C243.989 39.914 243.941 39.746 243.941 39.566C243.941 39.386 243.989 39.212 244.085 39.044C244.181 38.864 244.343 38.732 244.571 38.648C245.123 38.42 245.651 38.258 246.155 38.162C246.671 38.066 247.139 38.018 247.559 38.018C248.423 38.018 249.131 38.15 249.683 38.414C250.247 38.678 250.667 39.08 250.943 39.62C251.219 40.148 251.357 40.832 251.357 41.672V45.992C251.357 46.364 251.267 46.652 251.087 46.856C250.907 47.048 250.649 47.144 250.313 47.144C249.977 47.144 249.713 47.048 249.521 46.856C249.341 46.652 249.251 46.364 249.251 45.992V45.128H249.395C249.311 45.548 249.143 45.914 248.891 46.226C248.651 46.526 248.345 46.76 247.973 46.928C247.601 47.096 247.175 47.18 246.695 47.18ZM256.863 47.18C256.347 47.18 255.801 47.126 255.225 47.018C254.649 46.91 254.133 46.724 253.677 46.46C253.485 46.34 253.347 46.202 253.263 46.046C253.191 45.878 253.161 45.716 253.173 45.56C253.197 45.392 253.257 45.248 253.353 45.128C253.461 45.008 253.593 44.93 253.749 44.894C253.917 44.858 254.097 44.888 254.289 44.984C254.769 45.212 255.219 45.374 255.639 45.47C256.059 45.554 256.473 45.596 256.881 45.596C257.457 45.596 257.883 45.5 258.159 45.308C258.447 45.104 258.591 44.84 258.591 44.516C258.591 44.24 258.495 44.03 258.303 43.886C258.123 43.73 257.847 43.616 257.475 43.544L255.675 43.202C254.931 43.058 254.361 42.788 253.965 42.392C253.581 41.984 253.389 41.462 253.389 40.826C253.389 40.25 253.545 39.752 253.857 39.332C254.181 38.912 254.625 38.588 255.189 38.36C255.753 38.132 256.401 38.018 257.133 38.018C257.661 38.018 258.153 38.078 258.609 38.198C259.077 38.306 259.527 38.48 259.959 38.72C260.139 38.816 260.259 38.942 260.319 39.098C260.391 39.254 260.409 39.416 260.373 39.584C260.337 39.74 260.265 39.884 260.157 40.016C260.049 40.136 259.911 40.214 259.743 40.25C259.587 40.274 259.407 40.238 259.203 40.142C258.831 39.95 258.471 39.812 258.123 39.728C257.787 39.644 257.463 39.602 257.151 39.602C256.563 39.602 256.125 39.704 255.837 39.908C255.561 40.112 255.423 40.382 255.423 40.718C255.423 40.97 255.507 41.18 255.675 41.348C255.843 41.516 256.101 41.63 256.449 41.69L258.249 42.032C259.029 42.176 259.617 42.44 260.013 42.824C260.421 43.208 260.625 43.724 260.625 44.372C260.625 45.248 260.283 45.938 259.599 46.442C258.915 46.934 258.003 47.18 256.863 47.18ZM266.374 47.18C265.594 47.18 264.94 47.048 264.412 46.784C263.896 46.52 263.512 46.136 263.26 45.632C263.008 45.116 262.882 44.48 262.882 43.724V39.89H261.946C261.658 39.89 261.436 39.818 261.28 39.674C261.124 39.518 261.046 39.308 261.046 39.044C261.046 38.768 261.124 38.558 261.28 38.414C261.436 38.27 261.658 38.198 261.946 38.198H262.882V36.56C262.882 36.188 262.978 35.906 263.17 35.714C263.374 35.522 263.656 35.426 264.016 35.426C264.376 35.426 264.652 35.522 264.844 35.714C265.036 35.906 265.132 36.188 265.132 36.56V38.198H267.04C267.328 38.198 267.55 38.27 267.706 38.414C267.862 38.558 267.94 38.768 267.94 39.044C267.94 39.308 267.862 39.518 267.706 39.674C267.55 39.818 267.328 39.89 267.04 39.89H265.132V43.598C265.132 44.174 265.258 44.606 265.51 44.894C265.762 45.182 266.17 45.326 266.734 45.326C266.938 45.326 267.118 45.308 267.274 45.272C267.43 45.236 267.568 45.212 267.688 45.2C267.832 45.188 267.952 45.236 268.048 45.344C268.144 45.44 268.192 45.644 268.192 45.956C268.192 46.196 268.15 46.412 268.066 46.604C267.994 46.784 267.856 46.91 267.652 46.982C267.496 47.03 267.292 47.072 267.04 47.108C266.788 47.156 266.566 47.18 266.374 47.18ZM273.5 47.18C272.504 47.18 271.646 46.994 270.926 46.622C270.206 46.25 269.648 45.722 269.252 45.038C268.868 44.354 268.676 43.544 268.676 42.608C268.676 41.696 268.862 40.898 269.234 40.214C269.618 39.53 270.14 38.996 270.8 38.612C271.472 38.216 272.234 38.018 273.086 38.018C273.71 38.018 274.268 38.12 274.76 38.324C275.264 38.528 275.69 38.822 276.038 39.206C276.398 39.59 276.668 40.058 276.848 40.61C277.04 41.15 277.136 41.762 277.136 42.446C277.136 42.662 277.058 42.83 276.902 42.95C276.758 43.058 276.548 43.112 276.272 43.112H270.494V41.816H275.552L275.264 42.086C275.264 41.534 275.18 41.072 275.012 40.7C274.856 40.328 274.622 40.046 274.31 39.854C274.01 39.65 273.632 39.548 273.176 39.548C272.672 39.548 272.24 39.668 271.88 39.908C271.532 40.136 271.262 40.466 271.07 40.898C270.89 41.318 270.8 41.822 270.8 42.41V42.536C270.8 43.52 271.028 44.258 271.484 44.75C271.952 45.23 272.636 45.47 273.536 45.47C273.848 45.47 274.196 45.434 274.58 45.362C274.976 45.278 275.348 45.14 275.696 44.948C275.948 44.804 276.17 44.744 276.362 44.768C276.554 44.78 276.704 44.846 276.812 44.966C276.932 45.086 277.004 45.236 277.028 45.416C277.052 45.584 277.016 45.758 276.92 45.938C276.836 46.118 276.686 46.274 276.47 46.406C276.05 46.67 275.564 46.868 275.012 47C274.472 47.12 273.968 47.18 273.5 47.18ZM280.07 47.144C279.698 47.144 279.41 47.048 279.206 46.856C279.014 46.652 278.918 46.364 278.918 45.992V39.188C278.918 38.816 279.014 38.534 279.206 38.342C279.398 38.15 279.668 38.054 280.016 38.054C280.364 38.054 280.634 38.15 280.826 38.342C281.018 38.534 281.114 38.816 281.114 39.188V40.322H280.934C281.102 39.602 281.432 39.056 281.924 38.684C282.416 38.312 283.07 38.09 283.886 38.018C284.138 37.994 284.336 38.06 284.48 38.216C284.636 38.36 284.726 38.588 284.75 38.9C284.774 39.2 284.702 39.446 284.534 39.638C284.378 39.818 284.138 39.926 283.814 39.962L283.418 39.998C282.686 40.07 282.134 40.298 281.762 40.682C281.39 41.054 281.204 41.582 281.204 42.266V45.992C281.204 46.364 281.108 46.652 280.916 46.856C280.724 47.048 280.442 47.144 280.07 47.144ZM289.894 47.18C288.97 47.18 288.166 46.994 287.482 46.622C286.798 46.238 286.27 45.698 285.898 45.002C285.526 44.306 285.34 43.49 285.34 42.554C285.34 41.846 285.442 41.216 285.646 40.664C285.862 40.1 286.168 39.626 286.564 39.242C286.96 38.846 287.44 38.546 288.004 38.342C288.568 38.126 289.198 38.018 289.894 38.018C290.29 38.018 290.716 38.072 291.172 38.18C291.64 38.288 292.078 38.468 292.486 38.72C292.678 38.84 292.804 38.984 292.864 39.152C292.924 39.32 292.936 39.494 292.9 39.674C292.864 39.842 292.786 39.992 292.666 40.124C292.558 40.244 292.42 40.322 292.252 40.358C292.084 40.382 291.898 40.34 291.694 40.232C291.43 40.076 291.16 39.962 290.884 39.89C290.608 39.806 290.344 39.764 290.092 39.764C289.696 39.764 289.348 39.83 289.048 39.962C288.748 40.082 288.49 40.262 288.274 40.502C288.07 40.73 287.914 41.018 287.806 41.366C287.698 41.714 287.644 42.116 287.644 42.572C287.644 43.46 287.854 44.162 288.274 44.678C288.706 45.182 289.312 45.434 290.092 45.434C290.344 45.434 290.602 45.398 290.866 45.326C291.142 45.254 291.418 45.14 291.694 44.984C291.898 44.876 292.078 44.84 292.234 44.876C292.402 44.912 292.54 44.996 292.648 45.128C292.756 45.248 292.822 45.398 292.846 45.578C292.87 45.746 292.846 45.914 292.774 46.082C292.714 46.25 292.594 46.388 292.414 46.496C292.018 46.736 291.598 46.91 291.154 47.018C290.71 47.126 290.29 47.18 289.894 47.18ZM297.162 47.18C296.526 47.18 295.956 47.06 295.452 46.82C294.96 46.568 294.57 46.232 294.282 45.812C294.006 45.392 293.868 44.918 293.868 44.39C293.868 43.742 294.036 43.232 294.372 42.86C294.708 42.476 295.254 42.2 296.01 42.032C296.766 41.864 297.78 41.78 299.052 41.78H299.952V43.076H299.07C298.326 43.076 297.732 43.112 297.288 43.184C296.844 43.256 296.526 43.382 296.334 43.562C296.154 43.73 296.064 43.97 296.064 44.282C296.064 44.678 296.202 45.002 296.478 45.254C296.754 45.506 297.138 45.632 297.63 45.632C298.026 45.632 298.374 45.542 298.674 45.362C298.986 45.17 299.232 44.912 299.412 44.588C299.592 44.264 299.682 43.892 299.682 43.472V41.402C299.682 40.802 299.55 40.37 299.286 40.106C299.022 39.842 298.578 39.71 297.954 39.71C297.606 39.71 297.228 39.752 296.82 39.836C296.424 39.92 296.004 40.064 295.56 40.268C295.332 40.376 295.128 40.406 294.948 40.358C294.78 40.31 294.648 40.214 294.552 40.07C294.456 39.914 294.408 39.746 294.408 39.566C294.408 39.386 294.456 39.212 294.552 39.044C294.648 38.864 294.81 38.732 295.038 38.648C295.59 38.42 296.118 38.258 296.622 38.162C297.138 38.066 297.606 38.018 298.026 38.018C298.89 38.018 299.598 38.15 300.15 38.414C300.714 38.678 301.134 39.08 301.41 39.62C301.686 40.148 301.824 40.832 301.824 41.672V45.992C301.824 46.364 301.734 46.652 301.554 46.856C301.374 47.048 301.116 47.144 300.78 47.144C300.444 47.144 300.18 47.048 299.988 46.856C299.808 46.652 299.718 46.364 299.718 45.992V45.128H299.862C299.778 45.548 299.61 45.914 299.358 46.226C299.118 46.526 298.812 46.76 298.44 46.928C298.068 47.096 297.642 47.18 297.162 47.18ZM305.26 47.144C304.888 47.144 304.6 47.048 304.396 46.856C304.204 46.652 304.108 46.364 304.108 45.992V39.188C304.108 38.816 304.204 38.534 304.396 38.342C304.588 38.15 304.858 38.054 305.206 38.054C305.554 38.054 305.824 38.15 306.016 38.342C306.208 38.534 306.304 38.816 306.304 39.188V40.322H306.124C306.292 39.602 306.622 39.056 307.114 38.684C307.606 38.312 308.26 38.09 309.076 38.018C309.328 37.994 309.526 38.06 309.67 38.216C309.826 38.36 309.916 38.588 309.94 38.9C309.964 39.2 309.892 39.446 309.724 39.638C309.568 39.818 309.328 39.926 309.004 39.962L308.608 39.998C307.876 40.07 307.324 40.298 306.952 40.682C306.58 41.054 306.394 41.582 306.394 42.266V45.992C306.394 46.364 306.298 46.652 306.106 46.856C305.914 47.048 305.632 47.144 305.26 47.144ZM314.4 47.18C313.632 47.18 312.954 46.994 312.366 46.622C311.79 46.25 311.34 45.722 311.016 45.038C310.692 44.342 310.53 43.526 310.53 42.59C310.53 41.642 310.692 40.832 311.016 40.16C311.34 39.476 311.79 38.948 312.366 38.576C312.954 38.204 313.632 38.018 314.4 38.018C315.132 38.018 315.768 38.198 316.308 38.558C316.86 38.918 317.232 39.392 317.424 39.98H317.226V35.3C317.226 34.928 317.322 34.646 317.514 34.454C317.706 34.262 317.982 34.166 318.342 34.166C318.702 34.166 318.978 34.262 319.17 34.454C319.374 34.646 319.476 34.928 319.476 35.3V45.992C319.476 46.364 319.38 46.652 319.188 46.856C318.996 47.048 318.72 47.144 318.36 47.144C318 47.144 317.724 47.048 317.532 46.856C317.34 46.652 317.244 46.364 317.244 45.992V44.588L317.442 45.128C317.262 45.752 316.896 46.25 316.344 46.622C315.792 46.994 315.144 47.18 314.4 47.18ZM315.03 45.47C315.474 45.47 315.864 45.362 316.2 45.146C316.536 44.93 316.794 44.612 316.974 44.192C317.166 43.76 317.262 43.226 317.262 42.59C317.262 41.63 317.058 40.916 316.65 40.448C316.242 39.968 315.702 39.728 315.03 39.728C314.586 39.728 314.196 39.836 313.86 40.052C313.524 40.256 313.26 40.574 313.068 41.006C312.888 41.426 312.798 41.954 312.798 42.59C312.798 43.538 313.002 44.258 313.41 44.75C313.818 45.23 314.358 45.47 315.03 45.47Z" fill="white"/>
<path d="M31.4 100.18C29.9 100.18 28.754 99.616 27.962 98.488C27.17 97.348 26.774 95.728 26.774 93.628C26.774 92.212 26.948 91.024 27.296 90.064C27.656 89.092 28.178 88.36 28.862 87.868C29.558 87.376 30.404 87.13 31.4 87.13C32.912 87.13 34.058 87.682 34.838 88.786C35.63 89.89 36.026 91.498 36.026 93.61C36.026 95.014 35.846 96.208 35.486 97.192C35.138 98.164 34.622 98.908 33.938 99.424C33.254 99.928 32.408 100.18 31.4 100.18ZM31.4 98.29C32.216 98.29 32.816 97.912 33.2 97.156C33.596 96.4 33.794 95.218 33.794 93.61C33.794 92.002 33.596 90.838 33.2 90.118C32.816 89.386 32.216 89.02 31.4 89.02C30.596 89.02 29.996 89.386 29.6 90.118C29.204 90.838 29.006 92.002 29.006 93.61C29.006 95.218 29.204 96.4 29.6 97.156C29.996 97.912 30.596 98.29 31.4 98.29ZM47.953 100.18C46.453 100.18 45.307 99.616 44.515 98.488C43.723 97.348 43.327 95.728 43.327 93.628C43.327 92.212 43.501 91.024 43.849 90.064C44.209 89.092 44.731 88.36 45.415 87.868C46.111 87.376 46.957 87.13 47.953 87.13C49.465 87.13 50.611 87.682 51.391 88.786C52.183 89.89 52.579 91.498 52.579 93.61C52.579 95.014 52.399 96.208 52.039 97.192C51.691 98.164 51.175 98.908 50.491 99.424C49.807 99.928 48.961 100.18 47.953 100.18ZM47.953 98.29C48.769 98.29 49.369 97.912 49.753 97.156C50.149 96.4 50.347 95.218 50.347 93.61C50.347 92.002 50.149 90.838 49.753 90.118C49.369 89.386 48.769 89.02 47.953 89.02C47.149 89.02 46.549 89.386 46.153 90.118C45.757 90.838 45.559 92.002 45.559 93.61C45.559 95.218 45.757 96.4 46.153 97.156C46.549 97.912 47.149 98.29 47.953 98.29ZM64.5059 100.18C63.0059 100.18 61.8599 99.616 61.0679 98.488C60.2759 97.348 59.8799 95.728 59.8799 93.628C59.8799 92.212 60.0539 91.024 60.4019 90.064C60.7619 89.092 61.2839 88.36 61.9679 87.868C62.6639 87.376 63.5099 87.13 64.5059 87.13C66.0179 87.13 67.1639 87.682 67.9439 88.786C68.7359 89.89 69.1319 91.498 69.1319 93.61C69.1319 95.014 68.9519 96.208 68.5919 97.192C68.2439 98.164 67.7279 98.908 67.0439 99.424C66.3599 99.928 65.5139 100.18 64.5059 100.18ZM64.5059 98.29C65.3219 98.29 65.9219 97.912 66.3059 97.156C66.7019 96.4 66.8999 95.218 66.8999 93.61C66.8999 92.002 66.7019 90.838 66.3059 90.118C65.9219 89.386 65.3219 89.02 64.5059 89.02C63.7019 89.02 63.1019 89.386 62.7059 90.118C62.3099 90.838 62.1119 92.002 62.1119 93.61C62.1119 95.218 62.3099 96.4 62.7059 97.156C63.1019 97.912 63.7019 98.29 64.5059 98.29ZM81.0589 100.18C79.5589 100.18 78.4129 99.616 77.6209 98.488C76.8289 97.348 76.4329 95.728 76.4329 93.628C76.4329 92.212 76.6069 91.024 76.9549 90.064C77.3149 89.092 77.8369 88.36 78.5209 87.868C79.2169 87.376 80.0629 87.13 81.0589 87.13C82.5709 87.13 83.7169 87.682 84.4969 88.786C85.2889 89.89 85.6849 91.498 85.6849 93.61C85.6849 95.014 85.5049 96.208 85.1449 97.192C84.7969 98.164 84.2809 98.908 83.5969 99.424C82.9129 99.928 82.0669 100.18 81.0589 100.18ZM81.0589 98.29C81.8749 98.29 82.4749 97.912 82.8589 97.156C83.2549 96.4 83.4529 95.218 83.4529 93.61C83.4529 92.002 83.2549 90.838 82.8589 90.118C82.4749 89.386 81.8749 89.02 81.0589 89.02C80.2549 89.02 79.6549 89.386 79.2589 90.118C78.8629 90.838 78.6649 92.002 78.6649 93.61C78.6649 95.218 78.8629 96.4 79.2589 97.156C79.6549 97.912 80.2549 98.29 81.0589 98.29ZM108.259 100.18C106.759 100.18 105.613 99.616 104.821 98.488C104.029 97.348 103.633 95.728 103.633 93.628C103.633 92.212 103.807 91.024 104.155 90.064C104.515 89.092 105.037 88.36 105.721 87.868C106.417 87.376 107.263 87.13 108.259 87.13C109.771 87.13 110.917 87.682 111.697 88.786C112.489 89.89 112.885 91.498 112.885 93.61C112.885 95.014 112.705 96.208 112.345 97.192C111.997 98.164 111.481 98.908 110.797 99.424C110.113 99.928 109.267 100.18 108.259 100.18ZM108.259 98.29C109.075 98.29 109.675 97.912 110.059 97.156C110.455 96.4 110.653 95.218 110.653 93.61C110.653 92.002 110.455 90.838 110.059 90.118C109.675 89.386 109.075 89.02 108.259 89.02C107.455 89.02 106.855 89.386 106.459 90.118C106.063 90.838 105.865 92.002 105.865 93.61C105.865 95.218 106.063 96.4 106.459 97.156C106.855 97.912 107.455 98.29 108.259 98.29ZM124.812 100.18C123.312 100.18 122.166 99.616 121.374 98.488C120.582 97.348 120.186 95.728 120.186 93.628C120.186 92.212 120.36 91.024 120.708 90.064C121.068 89.092 121.59 88.36 122.274 87.868C122.97 87.376 123.816 87.13 124.812 87.13C126.324 87.13 127.47 87.682 128.25 88.786C129.042 89.89 129.438 91.498 129.438 93.61C129.438 95.014 129.258 96.208 128.898 97.192C128.55 98.164 128.034 98.908 127.35 99.424C126.666 99.928 125.82 100.18 124.812 100.18ZM124.812 98.29C125.628 98.29 126.228 97.912 126.612 97.156C127.008 96.4 127.206 95.218 127.206 93.61C127.206 92.002 127.008 90.838 126.612 90.118C126.228 89.386 125.628 89.02 124.812 89.02C124.008 89.02 123.408 89.386 123.012 90.118C122.616 90.838 122.418 92.002 122.418 93.61C122.418 95.218 122.616 96.4 123.012 97.156C123.408 97.912 124.008 98.29 124.812 98.29ZM141.365 100.18C139.865 100.18 138.719 99.616 137.927 98.488C137.135 97.348 136.739 95.728 136.739 93.628C136.739 92.212 136.913 91.024 137.261 90.064C137.621 89.092 138.143 88.36 138.827 87.868C139.523 87.376 140.369 87.13 141.365 87.13C142.877 87.13 144.023 87.682 144.803 88.786C145.595 89.89 145.991 91.498 145.991 93.61C145.991 95.014 145.811 96.208 145.451 97.192C145.103 98.164 144.587 98.908 143.903 99.424C143.219 99.928 142.373 100.18 141.365 100.18ZM141.365 98.29C142.181 98.29 142.781 97.912 143.165 97.156C143.561 96.4 143.759 95.218 143.759 93.61C143.759 92.002 143.561 90.838 143.165 90.118C142.781 89.386 142.181 89.02 141.365 89.02C140.561 89.02 139.961 89.386 139.565 90.118C139.169 90.838 138.971 92.002 138.971 93.61C138.971 95.218 139.169 96.4 139.565 97.156C139.961 97.912 140.561 98.29 141.365 98.29ZM157.918 100.18C156.418 100.18 155.272 99.616 154.48 98.488C153.688 97.348 153.292 95.728 153.292 93.628C153.292 92.212 153.466 91.024 153.814 90.064C154.174 89.092 154.696 88.36 155.38 87.868C156.076 87.376 156.922 87.13 157.918 87.13C159.43 87.13 160.576 87.682 161.356 88.786C162.148 89.89 162.544 91.498 162.544 93.61C162.544 95.014 162.364 96.208 162.004 97.192C161.656 98.164 161.14 98.908 160.456 99.424C159.772 99.928 158.926 100.18 157.918 100.18ZM157.918 98.29C158.734 98.29 159.334 97.912 159.718 97.156C160.114 96.4 160.312 95.218 160.312 93.61C160.312 92.002 160.114 90.838 159.718 90.118C159.334 89.386 158.734 89.02 157.918 89.02C157.114 89.02 156.514 89.386 156.118 90.118C155.722 90.838 155.524 92.002 155.524 93.61C155.524 95.218 155.722 96.4 156.118 97.156C156.514 97.912 157.114 98.29 157.918 98.29ZM185.117 100.18C183.617 100.18 182.471 99.616 181.679 98.488C180.887 97.348 180.491 95.728 180.491 93.628C180.491 92.212 180.665 91.024 181.013 90.064C181.373 89.092 181.895 88.36 182.579 87.868C183.275 87.376 184.121 87.13 185.117 87.13C186.629 87.13 187.775 87.682 188.555 88.786C189.347 89.89 189.743 91.498 189.743 93.61C189.743 95.014 189.563 96.208 189.203 97.192C188.855 98.164 188.339 98.908 187.655 99.424C186.971 99.928 186.125 100.18 185.117 100.18ZM185.117 98.29C185.933 98.29 186.533 97.912 186.917 97.156C187.313 96.4 187.511 95.218 187.511 93.61C187.511 92.002 187.313 90.838 186.917 90.118C186.533 89.386 185.933 89.02 185.117 89.02C184.313 89.02 183.713 89.386 183.317 90.118C182.921 90.838 182.723 92.002 182.723 93.61C182.723 95.218 182.921 96.4 183.317 97.156C183.713 97.912 184.313 98.29 185.117 98.29ZM201.67 100.18C200.17 100.18 199.024 99.616 198.232 98.488C197.44 97.348 197.044 95.728 197.044 93.628C197.044 92.212 197.218 91.024 197.566 90.064C197.926 89.092 198.448 88.36 199.132 87.868C199.828 87.376 200.674 87.13 201.67 87.13C203.182 87.13 204.328 87.682 205.108 88.786C205.9 89.89 206.296 91.498 206.296 93.61C206.296 95.014 206.116 96.208 205.756 97.192C205.408 98.164 204.892 98.908 204.208 99.424C203.524 99.928 202.678 100.18 201.67 100.18ZM201.67 98.29C202.486 98.29 203.086 97.912 203.47 97.156C203.866 96.4 204.064 95.218 204.064 93.61C204.064 92.002 203.866 90.838 203.47 90.118C203.086 89.386 202.486 89.02 201.67 89.02C200.866 89.02 200.266 89.386 199.87 90.118C199.474 90.838 199.276 92.002 199.276 93.61C199.276 95.218 199.474 96.4 199.87 97.156C200.266 97.912 200.866 98.29 201.67 98.29ZM218.223 100.18C216.723 100.18 215.577 99.616 214.785 98.488C213.993 97.348 213.597 95.728 213.597 93.628C213.597 92.212 213.771 91.024 214.119 90.064C214.479 89.092 215.001 88.36 215.685 87.868C216.381 87.376 217.227 87.13 218.223 87.13C219.735 87.13 220.881 87.682 221.661 88.786C222.453 89.89 222.849 91.498 222.849 93.61C222.849 95.014 222.669 96.208 222.309 97.192C221.961 98.164 221.445 98.908 220.761 99.424C220.077 99.928 219.231 100.18 218.223 100.18ZM218.223 98.29C219.039 98.29 219.639 97.912 220.023 97.156C220.419 96.4 220.617 95.218 220.617 93.61C220.617 92.002 220.419 90.838 220.023 90.118C219.639 89.386 219.039 89.02 218.223 89.02C217.419 89.02 216.819 89.386 216.423 90.118C216.027 90.838 215.829 92.002 215.829 93.61C215.829 95.218 216.027 96.4 216.423 97.156C216.819 97.912 217.419 98.29 218.223 98.29ZM234.776 100.18C233.276 100.18 232.13 99.616 231.338 98.488C230.546 97.348 230.15 95.728 230.15 93.628C230.15 92.212 230.324 91.024 230.672 90.064C231.032 89.092 231.554 88.36 232.238 87.868C232.934 87.376 233.78 87.13 234.776 87.13C236.288 87.13 237.434 87.682 238.214 88.786C239.006 89.89 239.402 91.498 239.402 93.61C239.402 95.014 239.222 96.208 238.862 97.192C238.514 98.164 237.998 98.908 237.314 99.424C236.63 99.928 235.784 100.18 234.776 100.18ZM234.776 98.29C235.592 98.29 236.192 97.912 236.576 97.156C236.972 96.4 237.17 95.218 237.17 93.61C237.17 92.002 236.972 90.838 236.576 90.118C236.192 89.386 235.592 89.02 234.776 89.02C233.972 89.02 233.372 89.386 232.976 90.118C232.58 90.838 232.382 92.002 232.382 93.61C232.382 95.218 232.58 96.4 232.976 97.156C233.372 97.912 233.972 98.29 234.776 98.29ZM261.976 100.18C260.476 100.18 259.33 99.616 258.538 98.488C257.746 97.348 257.35 95.728 257.35 93.628C257.35 92.212 257.524 91.024 257.872 90.064C258.232 89.092 258.754 88.36 259.438 87.868C260.134 87.376 260.98 87.13 261.976 87.13C263.488 87.13 264.634 87.682 265.414 88.786C266.206 89.89 266.602 91.498 266.602 93.61C266.602 95.014 266.422 96.208 266.062 97.192C265.714 98.164 265.198 98.908 264.514 99.424C263.83 99.928 262.984 100.18 261.976 100.18ZM261.976 98.29C262.792 98.29 263.392 97.912 263.776 97.156C264.172 96.4 264.37 95.218 264.37 93.61C264.37 92.002 264.172 90.838 263.776 90.118C263.392 89.386 262.792 89.02 261.976 89.02C261.172 89.02 260.572 89.386 260.176 90.118C259.78 90.838 259.582 92.002 259.582 93.61C259.582 95.218 259.78 96.4 260.176 97.156C260.572 97.912 261.172 98.29 261.976 98.29ZM278.529 100.18C277.029 100.18 275.883 99.616 275.091 98.488C274.299 97.348 273.903 95.728 273.903 93.628C273.903 92.212 274.077 91.024 274.425 90.064C274.785 89.092 275.307 88.36 275.991 87.868C276.687 87.376 277.533 87.13 278.529 87.13C280.041 87.13 281.187 87.682 281.967 88.786C282.759 89.89 283.155 91.498 283.155 93.61C283.155 95.014 282.975 96.208 282.615 97.192C282.267 98.164 281.751 98.908 281.067 99.424C280.383 99.928 279.537 100.18 278.529 100.18ZM278.529 98.29C279.345 98.29 279.945 97.912 280.329 97.156C280.725 96.4 280.923 95.218 280.923 93.61C280.923 92.002 280.725 90.838 280.329 90.118C279.945 89.386 279.345 89.02 278.529 89.02C277.725 89.02 277.125 89.386 276.729 90.118C276.333 90.838 276.135 92.002 276.135 93.61C276.135 95.218 276.333 96.4 276.729 97.156C277.125 97.912 277.725 98.29 278.529 98.29ZM295.082 100.18C293.582 100.18 292.436 99.616 291.644 98.488C290.852 97.348 290.456 95.728 290.456 93.628C290.456 92.212 290.63 91.024 290.978 90.064C291.338 89.092 291.86 88.36 292.544 87.868C293.24 87.376 294.086 87.13 295.082 87.13C296.594 87.13 297.74 87.682 298.52 88.786C299.312 89.89 299.708 91.498 299.708 93.61C299.708 95.014 299.528 96.208 299.168 97.192C298.82 98.164 298.304 98.908 297.62 99.424C296.936 99.928 296.09 100.18 295.082 100.18ZM295.082 98.29C295.898 98.29 296.498 97.912 296.882 97.156C297.278 96.4 297.476 95.218 297.476 93.61C297.476 92.002 297.278 90.838 296.882 90.118C296.498 89.386 295.898 89.02 295.082 89.02C294.278 89.02 293.678 89.386 293.282 90.118C292.886 90.838 292.688 92.002 292.688 93.61C292.688 95.218 292.886 96.4 293.282 97.156C293.678 97.912 294.278 98.29 295.082 98.29ZM311.635 100.18C310.135 100.18 308.989 99.616 308.197 98.488C307.405 97.348 307.009 95.728 307.009 93.628C307.009 92.212 307.183 91.024 307.531 90.064C307.891 89.092 308.413 88.36 309.097 87.868C309.793 87.376 310.639 87.13 311.635 87.13C313.147 87.13 314.293 87.682 315.073 88.786C315.865 89.89 316.261 91.498 316.261 93.61C316.261 95.014 316.081 96.208 315.721 97.192C315.373 98.164 314.857 98.908 314.173 99.424C313.489 99.928 312.643 100.18 311.635 100.18ZM311.635 98.29C312.451 98.29 313.051 97.912 313.435 97.156C313.831 96.4 314.029 95.218 314.029 93.61C314.029 92.002 313.831 90.838 313.435 90.118C313.051 89.386 312.451 89.02 311.635 89.02C310.831 89.02 310.231 89.386 309.835 90.118C309.439 90.838 309.241 92.002 309.241 93.61C309.241 95.218 309.439 96.4 309.835 97.156C310.231 97.912 310.831 98.29 311.635 98.29Z" fill="white"/>
<path d="M31.4 100.18C29.9 100.18 28.754 99.616 27.962 98.488C27.17 97.348 26.774 95.728 26.774 93.628C26.774 92.212 26.948 91.024 27.296 90.064C27.656 89.092 28.178 88.36 28.862 87.868C29.558 87.376 30.404 87.13 31.4 87.13C32.912 87.13 34.058 87.682 34.838 88.786C35.63 89.89 36.026 91.498 36.026 93.61C36.026 95.014 35.846 96.208 35.486 97.192C35.138 98.164 34.622 98.908 33.938 99.424C33.254 99.928 32.408 100.18 31.4 100.18ZM31.4 98.29C32.216 98.29 32.816 97.912 33.2 97.156C33.596 96.4 33.794 95.218 33.794 93.61C33.794 92.002 33.596 90.838 33.2 90.118C32.816 89.386 32.216 89.02 31.4 89.02C30.596 89.02 29.996 89.386 29.6 90.118C29.204 90.838 29.006 92.002 29.006 93.61C29.006 95.218 29.204 96.4 29.6 97.156C29.996 97.912 30.596 98.29 31.4 98.29ZM47.953 100.18C46.453 100.18 45.307 99.616 44.515 98.488C43.723 97.348 43.327 95.728 43.327 93.628C43.327 92.212 43.501 91.024 43.849 90.064C44.209 89.092 44.731 88.36 45.415 87.868C46.111 87.376 46.957 87.13 47.953 87.13C49.465 87.13 50.611 87.682 51.391 88.786C52.183 89.89 52.579 91.498 52.579 93.61C52.579 95.014 52.399 96.208 52.039 97.192C51.691 98.164 51.175 98.908 50.491 99.424C49.807 99.928 48.961 100.18 47.953 100.18ZM47.953 98.29C48.769 98.29 49.369 97.912 49.753 97.156C50.149 96.4 50.347 95.218 50.347 93.61C50.347 92.002 50.149 90.838 49.753 90.118C49.369 89.386 48.769 89.02 47.953 89.02C47.149 89.02 46.549 89.386 46.153 90.118C45.757 90.838 45.559 92.002 45.559 93.61C45.559 95.218 45.757 96.4 46.153 97.156C46.549 97.912 47.149 98.29 47.953 98.29ZM64.5059 100.18C63.0059 100.18 61.8599 99.616 61.0679 98.488C60.2759 97.348 59.8799 95.728 59.8799 93.628C59.8799 92.212 60.0539 91.024 60.4019 90.064C60.7619 89.092 61.2839 88.36 61.9679 87.868C62.6639 87.376 63.5099 87.13 64.5059 87.13C66.0179 87.13 67.1639 87.682 67.9439 88.786C68.7359 89.89 69.1319 91.498 69.1319 93.61C69.1319 95.014 68.9519 96.208 68.5919 97.192C68.2439 98.164 67.7279 98.908 67.0439 99.424C66.3599 99.928 65.5139 100.18 64.5059 100.18ZM64.5059 98.29C65.3219 98.29 65.9219 97.912 66.3059 97.156C66.7019 96.4 66.8999 95.218 66.8999 93.61C66.8999 92.002 66.7019 90.838 66.3059 90.118C65.9219 89.386 65.3219 89.02 64.5059 89.02C63.7019 89.02 63.1019 89.386 62.7059 90.118C62.3099 90.838 62.1119 92.002 62.1119 93.61C62.1119 95.218 62.3099 96.4 62.7059 97.156C63.1019 97.912 63.7019 98.29 64.5059 98.29ZM81.0589 100.18C79.5589 100.18 78.4129 99.616 77.6209 98.488C76.8289 97.348 76.4329 95.728 76.4329 93.628C76.4329 92.212 76.6069 91.024 76.9549 90.064C77.3149 89.092 77.8369 88.36 78.5209 87.868C79.2169 87.376 80.0629 87.13 81.0589 87.13C82.5709 87.13 83.7169 87.682 84.4969 88.786C85.2889 89.89 85.6849 91.498 85.6849 93.61C85.6849 95.014 85.5049 96.208 85.1449 97.192C84.7969 98.164 84.2809 98.908 83.5969 99.424C82.9129 99.928 82.0669 100.18 81.0589 100.18ZM81.0589 98.29C81.8749 98.29 82.4749 97.912 82.8589 97.156C83.2549 96.4 83.4529 95.218 83.4529 93.61C83.4529 92.002 83.2549 90.838 82.8589 90.118C82.4749 89.386 81.8749 89.02 81.0589 89.02C80.2549 89.02 79.6549 89.386 79.2589 90.118C78.8629 90.838 78.6649 92.002 78.6649 93.61C78.6649 95.218 78.8629 96.4 79.2589 97.156C79.6549 97.912 80.2549 98.29 81.0589 98.29ZM108.259 100.18C106.759 100.18 105.613 99.616 104.821 98.488C104.029 97.348 103.633 95.728 103.633 93.628C103.633 92.212 103.807 91.024 104.155 90.064C104.515 89.092 105.037 88.36 105.721 87.868C106.417 87.376 107.263 87.13 108.259 87.13C109.771 87.13 110.917 87.682 111.697 88.786C112.489 89.89 112.885 91.498 112.885 93.61C112.885 95.014 112.705 96.208 112.345 97.192C111.997 98.164 111.481 98.908 110.797 99.424C110.113 99.928 109.267 100.18 108.259 100.18ZM108.259 98.29C109.075 98.29 109.675 97.912 110.059 97.156C110.455 96.4 110.653 95.218 110.653 93.61C110.653 92.002 110.455 90.838 110.059 90.118C109.675 89.386 109.075 89.02 108.259 89.02C107.455 89.02 106.855 89.386 106.459 90.118C106.063 90.838 105.865 92.002 105.865 93.61C105.865 95.218 106.063 96.4 106.459 97.156C106.855 97.912 107.455 98.29 108.259 98.29ZM124.812 100.18C123.312 100.18 122.166 99.616 121.374 98.488C120.582 97.348 120.186 95.728 120.186 93.628C120.186 92.212 120.36 91.024 120.708 90.064C121.068 89.092 121.59 88.36 122.274 87.868C122.97 87.376 123.816 87.13 124.812 87.13C126.324 87.13 127.47 87.682 128.25 88.786C129.042 89.89 129.438 91.498 129.438 93.61C129.438 95.014 129.258 96.208 128.898 97.192C128.55 98.164 128.034 98.908 127.35 99.424C126.666 99.928 125.82 100.18 124.812 100.18ZM124.812 98.29C125.628 98.29 126.228 97.912 126.612 97.156C127.008 96.4 127.206 95.218 127.206 93.61C127.206 92.002 127.008 90.838 126.612 90.118C126.228 89.386 125.628 89.02 124.812 89.02C124.008 89.02 123.408 89.386 123.012 90.118C122.616 90.838 122.418 92.002 122.418 93.61C122.418 95.218 122.616 96.4 123.012 97.156C123.408 97.912 124.008 98.29 124.812 98.29ZM141.365 100.18C139.865 100.18 138.719 99.616 137.927 98.488C137.135 97.348 136.739 95.728 136.739 93.628C136.739 92.212 136.913 91.024 137.261 90.064C137.621 89.092 138.143 88.36 138.827 87.868C139.523 87.376 140.369 87.13 141.365 87.13C142.877 87.13 144.023 87.682 144.803 88.786C145.595 89.89 145.991 91.498 145.991 93.61C145.991 95.014 145.811 96.208 145.451 97.192C145.103 98.164 144.587 98.908 143.903 99.424C143.219 99.928 142.373 100.18 141.365 100.18ZM141.365 98.29C142.181 98.29 142.781 97.912 143.165 97.156C143.561 96.4 143.759 95.218 143.759 93.61C143.759 92.002 143.561 90.838 143.165 90.118C142.781 89.386 142.181 89.02 141.365 89.02C140.561 89.02 139.961 89.386 139.565 90.118C139.169 90.838 138.971 92.002 138.971 93.61C138.971 95.218 139.169 96.4 139.565 97.156C139.961 97.912 140.561 98.29 141.365 98.29ZM157.918 100.18C156.418 100.18 155.272 99.616 154.48 98.488C153.688 97.348 153.292 95.728 153.292 93.628C153.292 92.212 153.466 91.024 153.814 90.064C154.174 89.092 154.696 88.36 155.38 87.868C156.076 87.376 156.922 87.13 157.918 87.13C159.43 87.13 160.576 87.682 161.356 88.786C162.148 89.89 162.544 91.498 162.544 93.61C162.544 95.014 162.364 96.208 162.004 97.192C161.656 98.164 161.14 98.908 160.456 99.424C159.772 99.928 158.926 100.18 157.918 100.18ZM157.918 98.29C158.734 98.29 159.334 97.912 159.718 97.156C160.114 96.4 160.312 95.218 160.312 93.61C160.312 92.002 160.114 90.838 159.718 90.118C159.334 89.386 158.734 89.02 157.918 89.02C157.114 89.02 156.514 89.386 156.118 90.118C155.722 90.838 155.524 92.002 155.524 93.61C155.524 95.218 155.722 96.4 156.118 97.156C156.514 97.912 157.114 98.29 157.918 98.29ZM185.117 100.18C183.617 100.18 182.471 99.616 181.679 98.488C180.887 97.348 180.491 95.728 180.491 93.628C180.491 92.212 180.665 91.024 181.013 90.064C181.373 89.092 181.895 88.36 182.579 87.868C183.275 87.376 184.121 87.13 185.117 87.13C186.629 87.13 187.775 87.682 188.555 88.786C189.347 89.89 189.743 91.498 189.743 93.61C189.743 95.014 189.563 96.208 189.203 97.192C188.855 98.164 188.339 98.908 187.655 99.424C186.971 99.928 186.125 100.18 185.117 100.18ZM185.117 98.29C185.933 98.29 186.533 97.912 186.917 97.156C187.313 96.4 187.511 95.218 187.511 93.61C187.511 92.002 187.313 90.838 186.917 90.118C186.533 89.386 185.933 89.02 185.117 89.02C184.313 89.02 183.713 89.386 183.317 90.118C182.921 90.838 182.723 92.002 182.723 93.61C182.723 95.218 182.921 96.4 183.317 97.156C183.713 97.912 184.313 98.29 185.117 98.29ZM201.67 100.18C200.17 100.18 199.024 99.616 198.232 98.488C197.44 97.348 197.044 95.728 197.044 93.628C197.044 92.212 197.218 91.024 197.566 90.064C197.926 89.092 198.448 88.36 199.132 87.868C199.828 87.376 200.674 87.13 201.67 87.13C203.182 87.13 204.328 87.682 205.108 88.786C205.9 89.89 206.296 91.498 206.296 93.61C206.296 95.014 206.116 96.208 205.756 97.192C205.408 98.164 204.892 98.908 204.208 99.424C203.524 99.928 202.678 100.18 201.67 100.18ZM201.67 98.29C202.486 98.29 203.086 97.912 203.47 97.156C203.866 96.4 204.064 95.218 204.064 93.61C204.064 92.002 203.866 90.838 203.47 90.118C203.086 89.386 202.486 89.02 201.67 89.02C200.866 89.02 200.266 89.386 199.87 90.118C199.474 90.838 199.276 92.002 199.276 93.61C199.276 95.218 199.474 96.4 199.87 97.156C200.266 97.912 200.866 98.29 201.67 98.29ZM218.223 100.18C216.723 100.18 215.577 99.616 214.785 98.488C213.993 97.348 213.597 95.728 213.597 93.628C213.597 92.212 213.771 91.024 214.119 90.064C214.479 89.092 215.001 88.36 215.685 87.868C216.381 87.376 217.227 87.13 218.223 87.13C219.735 87.13 220.881 87.682 221.661 88.786C222.453 89.89 222.849 91.498 222.849 93.61C222.849 95.014 222.669 96.208 222.309 97.192C221.961 98.164 221.445 98.908 220.761 99.424C220.077 99.928 219.231 100.18 218.223 100.18ZM218.223 98.29C219.039 98.29 219.639 97.912 220.023 97.156C220.419 96.4 220.617 95.218 220.617 93.61C220.617 92.002 220.419 90.838 220.023 90.118C219.639 89.386 219.039 89.02 218.223 89.02C217.419 89.02 216.819 89.386 216.423 90.118C216.027 90.838 215.829 92.002 215.829 93.61C215.829 95.218 216.027 96.4 216.423 97.156C216.819 97.912 217.419 98.29 218.223 98.29ZM234.776 100.18C233.276 100.18 232.13 99.616 231.338 98.488C230.546 97.348 230.15 95.728 230.15 93.628C230.15 92.212 230.324 91.024 230.672 90.064C231.032 89.092 231.554 88.36 232.238 87.868C232.934 87.376 233.78 87.13 234.776 87.13C236.288 87.13 237.434 87.682 238.214 88.786C239.006 89.89 239.402 91.498 239.402 93.61C239.402 95.014 239.222 96.208 238.862 97.192C238.514 98.164 237.998 98.908 237.314 99.424C236.63 99.928 235.784 100.18 234.776 100.18ZM234.776 98.29C235.592 98.29 236.192 97.912 236.576 97.156C236.972 96.4 237.17 95.218 237.17 93.61C237.17 92.002 236.972 90.838 236.576 90.118C236.192 89.386 235.592 89.02 234.776 89.02C233.972 89.02 233.372 89.386 232.976 90.118C232.58 90.838 232.382 92.002 232.382 93.61C232.382 95.218 232.58 96.4 232.976 97.156C233.372 97.912 233.972 98.29 234.776 98.29ZM261.976 100.18C260.476 100.18 259.33 99.616 258.538 98.488C257.746 97.348 257.35 95.728 257.35 93.628C257.35 92.212 257.524 91.024 257.872 90.064C258.232 89.092 258.754 88.36 259.438 87.868C260.134 87.376 260.98 87.13 261.976 87.13C263.488 87.13 264.634 87.682 265.414 88.786C266.206 89.89 266.602 91.498 266.602 93.61C266.602 95.014 266.422 96.208 266.062 97.192C265.714 98.164 265.198 98.908 264.514 99.424C263.83 99.928 262.984 100.18 261.976 100.18ZM261.976 98.29C262.792 98.29 263.392 97.912 263.776 97.156C264.172 96.4 264.37 95.218 264.37 93.61C264.37 92.002 264.172 90.838 263.776 90.118C263.392 89.386 262.792 89.02 261.976 89.02C261.172 89.02 260.572 89.386 260.176 90.118C259.78 90.838 259.582 92.002 259.582 93.61C259.582 95.218 259.78 96.4 260.176 97.156C260.572 97.912 261.172 98.29 261.976 98.29ZM278.529 100.18C277.029 100.18 275.883 99.616 275.091 98.488C274.299 97.348 273.903 95.728 273.903 93.628C273.903 92.212 274.077 91.024 274.425 90.064C274.785 89.092 275.307 88.36 275.991 87.868C276.687 87.376 277.533 87.13 278.529 87.13C280.041 87.13 281.187 87.682 281.967 88.786C282.759 89.89 283.155 91.498 283.155 93.61C283.155 95.014 282.975 96.208 282.615 97.192C282.267 98.164 281.751 98.908 281.067 99.424C280.383 99.928 279.537 100.18 278.529 100.18ZM278.529 98.29C279.345 98.29 279.945 97.912 280.329 97.156C280.725 96.4 280.923 95.218 280.923 93.61C280.923 92.002 280.725 90.838 280.329 90.118C279.945 89.386 279.345 89.02 278.529 89.02C277.725 89.02 277.125 89.386 276.729 90.118C276.333 90.838 276.135 92.002 276.135 93.61C276.135 95.218 276.333 96.4 276.729 97.156C277.125 97.912 277.725 98.29 278.529 98.29ZM295.082 100.18C293.582 100.18 292.436 99.616 291.644 98.488C290.852 97.348 290.456 95.728 290.456 93.628C290.456 92.212 290.63 91.024 290.978 90.064C291.338 89.092 291.86 88.36 292.544 87.868C293.24 87.376 294.086 87.13 295.082 87.13C296.594 87.13 297.74 87.682 298.52 88.786C299.312 89.89 299.708 91.498 299.708 93.61C299.708 95.014 299.528 96.208 299.168 97.192C298.82 98.164 298.304 98.908 297.62 99.424C296.936 99.928 296.09 100.18 295.082 100.18ZM295.082 98.29C295.898 98.29 296.498 97.912 296.882 97.156C297.278 96.4 297.476 95.218 297.476 93.61C297.476 92.002 297.278 90.838 296.882 90.118C296.498 89.386 295.898 89.02 295.082 89.02C294.278 89.02 293.678 89.386 293.282 90.118C292.886 90.838 292.688 92.002 292.688 93.61C292.688 95.218 292.886 96.4 293.282 97.156C293.678 97.912 294.278 98.29 295.082 98.29ZM311.635 100.18C310.135 100.18 308.989 99.616 308.197 98.488C307.405 97.348 307.009 95.728 307.009 93.628C307.009 92.212 307.183 91.024 307.531 90.064C307.891 89.092 308.413 88.36 309.097 87.868C309.793 87.376 310.639 87.13 311.635 87.13C313.147 87.13 314.293 87.682 315.073 88.786C315.865 89.89 316.261 91.498 316.261 93.61C316.261 95.014 316.081 96.208 315.721 97.192C315.373 98.164 314.857 98.908 314.173 99.424C313.489 99.928 312.643 100.18 311.635 100.18ZM311.635 98.29C312.451 98.29 313.051 97.912 313.435 97.156C313.831 96.4 314.029 95.218 314.029 93.61C314.029 92.002 313.831 90.838 313.435 90.118C313.051 89.386 312.451 89.02 311.635 89.02C310.831 89.02 310.231 89.386 309.835 90.118C309.439 90.838 309.241 92.002 309.241 93.61C309.241 95.218 309.439 96.4 309.835 97.156C310.231 97.912 310.831 98.29 311.635 98.29Z" fill="white"/>
<path d="M230.6 155.12C229.6 155.12 228.836 154.744 228.308 153.992C227.78 153.232 227.516 152.152 227.516 150.752C227.516 149.808 227.632 149.016 227.864 148.376C228.104 147.728 228.452 147.24 228.908 146.912C229.372 146.584 229.936 146.42 230.6 146.42C231.608 146.42 232.372 146.788 232.892 147.524C233.42 148.26 233.684 149.332 233.684 150.74C233.684 151.676 233.564 152.472 233.324 153.128C233.092 153.776 232.748 154.272 232.292 154.616C231.836 154.952 231.272 155.12 230.6 155.12ZM230.6 153.86C231.144 153.86 231.544 153.608 231.8 153.104C232.064 152.6 232.196 151.812 232.196 150.74C232.196 149.668 232.064 148.892 231.8 148.412C231.544 147.924 231.144 147.68 230.6 147.68C230.064 147.68 229.664 147.924 229.4 148.412C229.136 148.892 229.004 149.668 229.004 150.74C229.004 151.812 229.136 152.6 229.4 153.104C229.664 153.608 230.064 153.86 230.6 153.86ZM235.791 155C235.535 155 235.347 154.944 235.227 154.832C235.115 154.712 235.059 154.54 235.059 154.316C235.059 154.18 235.095 154.048 235.167 153.92C235.239 153.792 235.343 153.656 235.479 153.512L237.891 150.944C238.259 150.56 238.523 150.212 238.683 149.9C238.843 149.58 238.923 149.26 238.923 148.94C238.923 148.54 238.795 148.236 238.539 148.028C238.291 147.82 237.927 147.716 237.447 147.716C237.175 147.716 236.903 147.756 236.631 147.836C236.359 147.908 236.083 148.036 235.803 148.22C235.659 148.316 235.523 148.356 235.395 148.34C235.275 148.324 235.167 148.272 235.071 148.184C234.983 148.096 234.923 147.988 234.891 147.86C234.859 147.732 234.863 147.604 234.903 147.476C234.951 147.34 235.047 147.224 235.191 147.128C235.535 146.896 235.919 146.72 236.343 146.6C236.775 146.48 237.207 146.42 237.639 146.42C238.247 146.42 238.759 146.512 239.175 146.696C239.591 146.88 239.907 147.148 240.123 147.5C240.339 147.852 240.447 148.28 240.447 148.784C240.447 149.12 240.391 149.448 240.279 149.768C240.175 150.088 240.011 150.412 239.787 150.74C239.571 151.068 239.287 151.416 238.935 151.784L236.679 154.136V153.728H240.207C240.423 153.728 240.587 153.78 240.699 153.884C240.811 153.988 240.867 154.144 240.867 154.352C240.867 154.56 240.811 154.72 240.699 154.832C240.587 154.944 240.423 155 240.207 155H235.791ZM242.447 155.348C242.399 155.5 242.323 155.608 242.219 155.672C242.115 155.744 241.999 155.78 241.871 155.78C241.751 155.78 241.639 155.748 241.535 155.684C241.431 155.62 241.359 155.528 241.319 155.408C241.271 155.296 241.271 155.16 241.319 155L244.091 146.396C244.139 146.244 244.215 146.132 244.319 146.06C244.431 145.988 244.547 145.956 244.667 145.964C244.787 145.964 244.899 145.996 245.003 146.06C245.107 146.124 245.179 146.212 245.219 146.324C245.267 146.436 245.267 146.572 245.219 146.732L242.447 155.348ZM246.748 155C246.492 155 246.304 154.944 246.184 154.832C246.072 154.712 246.016 154.54 246.016 154.316C246.016 154.18 246.052 154.048 246.124 153.92C246.196 153.792 246.3 153.656 246.436 153.512L248.848 150.944C249.216 150.56 249.48 150.212 249.64 149.9C249.8 149.58 249.88 149.26 249.88 148.94C249.88 148.54 249.752 148.236 249.496 148.028C249.248 147.82 248.884 147.716 248.404 147.716C248.132 147.716 247.86 147.756 247.588 147.836C247.316 147.908 247.04 148.036 246.76 148.22C246.616 148.316 246.48 148.356 246.352 148.34C246.232 148.324 246.124 148.272 246.028 148.184C245.94 148.096 245.88 147.988 245.848 147.86C245.816 147.732 245.82 147.604 245.86 147.476C245.908 147.34 246.004 147.224 246.148 147.128C246.492 146.896 246.876 146.72 247.3 146.6C247.732 146.48 248.164 146.42 248.596 146.42C249.204 146.42 249.716 146.512 250.132 146.696C250.548 146.88 250.864 147.148 251.08 147.5C251.296 147.852 251.404 148.28 251.404 148.784C251.404 149.12 251.348 149.448 251.236 149.768C251.132 150.088 250.968 150.412 250.744 150.74C250.528 151.068 250.244 151.416 249.892 151.784L247.636 154.136V153.728H251.164C251.38 153.728 251.544 153.78 251.656 153.884C251.768 153.988 251.824 154.144 251.824 154.352C251.824 154.56 251.768 154.72 251.656 154.832C251.544 154.944 251.38 155 251.164 155H246.748ZM254.412 155.096C254.228 155.096 254.076 155.052 253.956 154.964C253.836 154.876 253.764 154.76 253.74 154.616C253.716 154.464 253.752 154.296 253.848 154.112L257.472 147.296V147.824H253.584C253.368 147.824 253.2 147.768 253.08 147.656C252.968 147.544 252.912 147.388 252.912 147.188C252.912 146.98 252.968 146.82 253.08 146.708C253.2 146.596 253.368 146.54 253.584 146.54H258.228C258.444 146.54 258.62 146.596 258.756 146.708C258.892 146.82 258.96 146.98 258.96 147.188C258.96 147.364 258.936 147.52 258.888 147.656C258.84 147.784 258.776 147.924 258.696 148.076L255.288 154.592C255.2 154.768 255.084 154.896 254.94 154.976C254.804 155.056 254.628 155.096 254.412 155.096Z" fill="white"/>
<path d="M30.86 147.12C29.98 147.12 29.224 146.944 28.592 146.592C27.968 146.232 27.488 145.728 27.152 145.08C26.816 144.424 26.648 143.652 26.648 142.764C26.648 142.1 26.744 141.504 26.936 140.976C27.128 140.44 27.404 139.984 27.764 139.608C28.124 139.224 28.564 138.932 29.084 138.732C29.612 138.524 30.204 138.42 30.86 138.42C31.3 138.42 31.732 138.476 32.156 138.588C32.58 138.7 32.952 138.86 33.272 139.068C33.44 139.172 33.552 139.3 33.608 139.452C33.664 139.596 33.676 139.74 33.644 139.884C33.612 140.02 33.544 140.136 33.44 140.232C33.344 140.328 33.22 140.384 33.068 140.4C32.924 140.408 32.764 140.356 32.588 140.244C32.34 140.084 32.072 139.968 31.784 139.896C31.496 139.824 31.204 139.788 30.908 139.788C30.34 139.788 29.86 139.904 29.468 140.136C29.076 140.368 28.78 140.704 28.58 141.144C28.38 141.584 28.28 142.124 28.28 142.764C28.28 143.396 28.38 143.936 28.58 144.384C28.78 144.832 29.076 145.172 29.468 145.404C29.86 145.636 30.34 145.752 30.908 145.752C31.212 145.752 31.512 145.716 31.808 145.644C32.104 145.564 32.384 145.444 32.648 145.284C32.824 145.18 32.98 145.136 33.116 145.152C33.26 145.16 33.38 145.208 33.476 145.296C33.572 145.384 33.636 145.496 33.668 145.632C33.7 145.76 33.692 145.896 33.644 146.04C33.596 146.176 33.5 146.296 33.356 146.4C33.036 146.632 32.652 146.812 32.204 146.94C31.764 147.06 31.316 147.12 30.86 147.12ZM36.6573 147.12C36.2333 147.12 35.8533 147.04 35.5173 146.88C35.1893 146.712 34.9293 146.488 34.7373 146.208C34.5533 145.928 34.4613 145.612 34.4613 145.26C34.4613 144.828 34.5733 144.488 34.7973 144.24C35.0213 143.984 35.3853 143.8 35.8893 143.688C36.3933 143.576 37.0693 143.52 37.9173 143.52H38.5173V144.384H37.9293C37.4333 144.384 37.0373 144.408 36.7413 144.456C36.4453 144.504 36.2333 144.588 36.1053 144.708C35.9853 144.82 35.9253 144.98 35.9253 145.188C35.9253 145.452 36.0173 145.668 36.2013 145.836C36.3853 146.004 36.6413 146.088 36.9693 146.088C37.2333 146.088 37.4653 146.028 37.6653 145.908C37.8733 145.78 38.0373 145.608 38.1573 145.392C38.2773 145.176 38.3373 144.928 38.3373 144.648V143.268C38.3373 142.868 38.2493 142.58 38.0733 142.404C37.8973 142.228 37.6013 142.14 37.1853 142.14C36.9533 142.14 36.7013 142.168 36.4293 142.224C36.1653 142.28 35.8853 142.376 35.5893 142.512C35.4373 142.584 35.3013 142.604 35.1813 142.572C35.0693 142.54 34.9813 142.476 34.9173 142.38C34.8533 142.276 34.8213 142.164 34.8213 142.044C34.8213 141.924 34.8533 141.808 34.9173 141.696C34.9813 141.576 35.0893 141.488 35.2413 141.432C35.6093 141.28 35.9613 141.172 36.2973 141.108C36.6413 141.044 36.9533 141.012 37.2333 141.012C37.8093 141.012 38.2813 141.1 38.6493 141.276C39.0253 141.452 39.3053 141.72 39.4893 142.08C39.6733 142.432 39.7653 142.888 39.7653 143.448V146.328C39.7653 146.576 39.7053 146.768 39.5853 146.904C39.4653 147.032 39.2933 147.096 39.0693 147.096C38.8453 147.096 38.6693 147.032 38.5413 146.904C38.4213 146.768 38.3613 146.576 38.3613 146.328V145.752H38.4573C38.4013 146.032 38.2893 146.276 38.1213 146.484C37.9613 146.684 37.7573 146.84 37.5093 146.952C37.2613 147.064 36.9773 147.12 36.6573 147.12ZM42.0558 147.096C41.8078 147.096 41.6158 147.032 41.4798 146.904C41.3518 146.768 41.2878 146.576 41.2878 146.328V141.792C41.2878 141.544 41.3518 141.356 41.4798 141.228C41.6078 141.1 41.7878 141.036 42.0198 141.036C42.2518 141.036 42.4318 141.1 42.5598 141.228C42.6878 141.356 42.7518 141.544 42.7518 141.792V142.548H42.6318C42.7438 142.068 42.9638 141.704 43.2918 141.456C43.6198 141.208 44.0558 141.06 44.5998 141.012C44.7678 140.996 44.8998 141.04 44.9958 141.144C45.0998 141.24 45.1598 141.392 45.1758 141.6C45.1918 141.8 45.1438 141.964 45.0318 142.092C44.9278 142.212 44.7678 142.284 44.5518 142.308L44.2878 142.332C43.7998 142.38 43.4318 142.532 43.1838 142.788C42.9358 143.036 42.8118 143.388 42.8118 143.844V146.328C42.8118 146.576 42.7478 146.768 42.6198 146.904C42.4918 147.032 42.3038 147.096 42.0558 147.096ZM48.1493 147.12C47.6373 147.12 47.1853 146.996 46.7933 146.748C46.4093 146.5 46.1093 146.148 45.8933 145.692C45.6773 145.228 45.5693 144.684 45.5693 144.06C45.5693 143.428 45.6773 142.888 45.8933 142.44C46.1093 141.984 46.4093 141.632 46.7933 141.384C47.1853 141.136 47.6373 141.012 48.1493 141.012C48.6373 141.012 49.0613 141.132 49.4213 141.372C49.7893 141.612 50.0373 141.928 50.1653 142.32H50.0333V139.2C50.0333 138.952 50.0973 138.764 50.2253 138.636C50.3533 138.508 50.5373 138.444 50.7773 138.444C51.0173 138.444 51.2013 138.508 51.3293 138.636C51.4653 138.764 51.5333 138.952 51.5333 139.2V146.328C51.5333 146.576 51.4693 146.768 51.3413 146.904C51.2133 147.032 51.0293 147.096 50.7893 147.096C50.5493 147.096 50.3653 147.032 50.2373 146.904C50.1093 146.768 50.0453 146.576 50.0453 146.328V145.392L50.1773 145.752C50.0573 146.168 49.8133 146.5 49.4453 146.748C49.0773 146.996 48.6453 147.12 48.1493 147.12ZM48.5693 145.98C48.8653 145.98 49.1253 145.908 49.3493 145.764C49.5733 145.62 49.7453 145.408 49.8653 145.128C49.9933 144.84 50.0573 144.484 50.0573 144.06C50.0573 143.42 49.9213 142.944 49.6493 142.632C49.3773 142.312 49.0173 142.152 48.5693 142.152C48.2733 142.152 48.0133 142.224 47.7893 142.368C47.5653 142.504 47.3893 142.716 47.2613 143.004C47.1413 143.284 47.0813 143.636 47.0813 144.06C47.0813 144.692 47.2173 145.172 47.4893 145.5C47.7613 145.82 48.1213 145.98 48.5693 145.98ZM57.0904 147.096C56.8504 147.096 56.6664 147.032 56.5384 146.904C56.4104 146.768 56.3464 146.576 56.3464 146.328V141.792C56.3464 141.544 56.4104 141.356 56.5384 141.228C56.6664 141.1 56.8464 141.036 57.0784 141.036C57.3104 141.036 57.4904 141.1 57.6184 141.228C57.7464 141.356 57.8104 141.544 57.8104 141.792V142.608L57.6784 142.308C57.8544 141.884 58.1264 141.564 58.4944 141.348C58.8704 141.124 59.2944 141.012 59.7664 141.012C60.2384 141.012 60.6264 141.1 60.9304 141.276C61.2344 141.452 61.4624 141.72 61.6144 142.08C61.7664 142.432 61.8424 142.88 61.8424 143.424V146.328C61.8424 146.576 61.7784 146.768 61.6504 146.904C61.5224 147.032 61.3384 147.096 61.0984 147.096C60.8584 147.096 60.6704 147.032 60.5344 146.904C60.4064 146.768 60.3424 146.576 60.3424 146.328V143.496C60.3424 143.04 60.2544 142.708 60.0784 142.5C59.9104 142.292 59.6464 142.188 59.2864 142.188C58.8464 142.188 58.4944 142.328 58.2304 142.608C57.9744 142.88 57.8464 143.244 57.8464 143.7V146.328C57.8464 146.84 57.5944 147.096 57.0904 147.096ZM65.2979 147.12C64.8739 147.12 64.4939 147.04 64.1579 146.88C63.8299 146.712 63.5699 146.488 63.3779 146.208C63.1939 145.928 63.1019 145.612 63.1019 145.26C63.1019 144.828 63.2139 144.488 63.4379 144.24C63.6619 143.984 64.0259 143.8 64.5299 143.688C65.0339 143.576 65.7099 143.52 66.5579 143.52H67.1579V144.384H66.5699C66.0739 144.384 65.6779 144.408 65.3819 144.456C65.0859 144.504 64.8739 144.588 64.7459 144.708C64.6259 144.82 64.5659 144.98 64.5659 145.188C64.5659 145.452 64.6579 145.668 64.8419 145.836C65.0259 146.004 65.2819 146.088 65.6099 146.088C65.8739 146.088 66.1059 146.028 66.3059 145.908C66.5139 145.78 66.6779 145.608 66.7979 145.392C66.9179 145.176 66.9779 144.928 66.9779 144.648V143.268C66.9779 142.868 66.8899 142.58 66.7139 142.404C66.5379 142.228 66.2419 142.14 65.8259 142.14C65.5939 142.14 65.3419 142.168 65.0699 142.224C64.8059 142.28 64.5259 142.376 64.2299 142.512C64.0779 142.584 63.9419 142.604 63.8219 142.572C63.7099 142.54 63.6219 142.476 63.5579 142.38C63.4939 142.276 63.4619 142.164 63.4619 142.044C63.4619 141.924 63.4939 141.808 63.5579 141.696C63.6219 141.576 63.7299 141.488 63.8819 141.432C64.2499 141.28 64.6019 141.172 64.9379 141.108C65.2819 141.044 65.5939 141.012 65.8739 141.012C66.4499 141.012 66.9219 141.1 67.2899 141.276C67.6659 141.452 67.9459 141.72 68.1299 142.08C68.3139 142.432 68.4059 142.888 68.4059 143.448V146.328C68.4059 146.576 68.3459 146.768 68.2259 146.904C68.1059 147.032 67.9339 147.096 67.7099 147.096C67.4859 147.096 67.3099 147.032 67.1819 146.904C67.0619 146.768 67.0019 146.576 67.0019 146.328V145.752H67.0979C67.0419 146.032 66.9299 146.276 66.7619 146.484C66.6019 146.684 66.3979 146.84 66.1499 146.952C65.9019 147.064 65.6179 147.12 65.2979 147.12ZM70.6964 147.096C70.4564 147.096 70.2724 147.032 70.1444 146.904C70.0164 146.768 69.9524 146.576 69.9524 146.328V141.792C69.9524 141.544 70.0164 141.356 70.1444 141.228C70.2724 141.1 70.4524 141.036 70.6844 141.036C70.9164 141.036 71.0964 141.1 71.2244 141.228C71.3524 141.356 71.4164 141.544 71.4164 141.792V142.668L71.2844 142.308C71.4444 141.908 71.6924 141.592 72.0284 141.36C72.3644 141.128 72.7644 141.012 73.2284 141.012C73.7004 141.012 74.0884 141.124 74.3924 141.348C74.6964 141.572 74.9084 141.916 75.0284 142.38H74.8604C75.0204 141.956 75.2844 141.624 75.6524 141.384C76.0204 141.136 76.4444 141.012 76.9244 141.012C77.3724 141.012 77.7404 141.1 78.0284 141.276C78.3244 141.452 78.5444 141.72 78.6884 142.08C78.8324 142.432 78.9044 142.88 78.9044 143.424V146.328C78.9044 146.576 78.8364 146.768 78.7004 146.904C78.5724 147.032 78.3884 147.096 78.1484 147.096C77.9084 147.096 77.7244 147.032 77.5964 146.904C77.4684 146.768 77.4044 146.576 77.4044 146.328V143.484C77.4044 143.036 77.3284 142.708 77.1764 142.5C77.0324 142.292 76.7844 142.188 76.4324 142.188C76.0404 142.188 75.7324 142.328 75.5084 142.608C75.2844 142.88 75.1724 143.26 75.1724 143.748V146.328C75.1724 146.576 75.1084 146.768 74.9804 146.904C74.8524 147.032 74.6684 147.096 74.4284 147.096C74.1884 147.096 74.0004 147.032 73.8644 146.904C73.7364 146.768 73.6724 146.576 73.6724 146.328V143.484C73.6724 143.036 73.5964 142.708 73.4444 142.5C73.3004 142.292 73.0564 142.188 72.7124 142.188C72.3204 142.188 72.0124 142.328 71.7884 142.608C71.5644 142.88 71.4524 143.26 71.4524 143.748V146.328C71.4524 146.84 71.2004 147.096 70.6964 147.096ZM83.3439 147.12C82.6799 147.12 82.1079 146.996 81.6279 146.748C81.1479 146.5 80.7759 146.148 80.5119 145.692C80.2559 145.236 80.1279 144.696 80.1279 144.072C80.1279 143.464 80.2519 142.932 80.4999 142.476C80.7559 142.02 81.1039 141.664 81.5439 141.408C81.9919 141.144 82.4999 141.012 83.0679 141.012C83.4839 141.012 83.8559 141.08 84.1839 141.216C84.5199 141.352 84.8039 141.548 85.0359 141.804C85.2759 142.06 85.4559 142.372 85.5759 142.74C85.7039 143.1 85.7679 143.508 85.7679 143.964C85.7679 144.108 85.7159 144.22 85.6119 144.3C85.5159 144.372 85.3759 144.408 85.1919 144.408H81.3399V143.544H84.7119L84.5199 143.724C84.5199 143.356 84.4639 143.048 84.3519 142.8C84.2479 142.552 84.0919 142.364 83.8839 142.236C83.6839 142.1 83.4319 142.032 83.1279 142.032C82.7919 142.032 82.5039 142.112 82.2639 142.272C82.0319 142.424 81.8519 142.644 81.7239 142.932C81.6039 143.212 81.5439 143.548 81.5439 143.94V144.024C81.5439 144.68 81.6959 145.172 81.9999 145.5C82.3119 145.82 82.7679 145.98 83.3679 145.98C83.5759 145.98 83.8079 145.956 84.0639 145.908C84.3279 145.852 84.5759 145.76 84.8079 145.632C84.9759 145.536 85.1239 145.496 85.2519 145.512C85.3799 145.52 85.4799 145.564 85.5519 145.644C85.6319 145.724 85.6799 145.824 85.6959 145.944C85.7119 146.056 85.6879 146.172 85.6239 146.292C85.5679 146.412 85.4679 146.516 85.3239 146.604C85.0439 146.78 84.7199 146.912 84.3519 147C83.9919 147.08 83.6559 147.12 83.3439 147.12Z" fill="#555555"/>
<path d="M27.008 163.096C26.816 163.096 26.66 163.052 26.54 162.964C26.428 162.876 26.36 162.76 26.336 162.616C26.312 162.464 26.34 162.296 26.42 162.112L29.588 155.092C29.692 154.86 29.816 154.696 29.96 154.6C30.112 154.496 30.284 154.444 30.476 154.444C30.66 154.444 30.824 154.496 30.968 154.6C31.12 154.696 31.248 154.86 31.352 155.092L34.532 162.112C34.62 162.296 34.652 162.464 34.628 162.616C34.604 162.768 34.536 162.888 34.424 162.976C34.312 163.056 34.164 163.096 33.98 163.096C33.756 163.096 33.58 163.044 33.452 162.94C33.332 162.828 33.224 162.66 33.128 162.436L32.348 160.624L32.996 161.044H27.932L28.58 160.624L27.812 162.436C27.708 162.668 27.6 162.836 27.488 162.94C27.376 163.044 27.216 163.096 27.008 163.096ZM30.452 156.208L28.772 160.204L28.46 159.82H32.468L32.168 160.204L30.476 156.208H30.452ZM37.9071 163.12C37.3951 163.12 36.9431 162.996 36.5511 162.748C36.1671 162.5 35.8671 162.148 35.6511 161.692C35.4351 161.228 35.3271 160.684 35.3271 160.06C35.3271 159.428 35.4351 158.888 35.6511 158.44C35.8671 157.984 36.1671 157.632 36.5511 157.384C36.9431 157.136 37.3951 157.012 37.9071 157.012C38.3951 157.012 38.8191 157.132 39.1791 157.372C39.5471 157.612 39.7951 157.928 39.9231 158.32H39.7911V155.2C39.7911 154.952 39.8551 154.764 39.9831 154.636C40.1111 154.508 40.2951 154.444 40.5351 154.444C40.7751 154.444 40.9591 154.508 41.0871 154.636C41.2231 154.764 41.2911 154.952 41.2911 155.2V162.328C41.2911 162.576 41.2271 162.768 41.0991 162.904C40.9711 163.032 40.7871 163.096 40.5471 163.096C40.3071 163.096 40.1231 163.032 39.9951 162.904C39.8671 162.768 39.8031 162.576 39.8031 162.328V161.392L39.9351 161.752C39.8151 162.168 39.5711 162.5 39.2031 162.748C38.8351 162.996 38.4031 163.12 37.9071 163.12ZM38.3271 161.98C38.6231 161.98 38.8831 161.908 39.1071 161.764C39.3311 161.62 39.5031 161.408 39.6231 161.128C39.7511 160.84 39.8151 160.484 39.8151 160.06C39.8151 159.42 39.6791 158.944 39.4071 158.632C39.1351 158.312 38.7751 158.152 38.3271 158.152C38.0311 158.152 37.7711 158.224 37.5471 158.368C37.3231 158.504 37.1471 158.716 37.0191 159.004C36.8991 159.284 36.8391 159.636 36.8391 160.06C36.8391 160.692 36.9751 161.172 37.2471 161.5C37.5191 161.82 37.8791 161.98 38.3271 161.98ZM44.7784 163.12C44.3544 163.12 43.9744 163.04 43.6384 162.88C43.3104 162.712 43.0504 162.488 42.8584 162.208C42.6744 161.928 42.5824 161.612 42.5824 161.26C42.5824 160.828 42.6944 160.488 42.9184 160.24C43.1424 159.984 43.5064 159.8 44.0104 159.688C44.5144 159.576 45.1904 159.52 46.0384 159.52H46.6384V160.384H46.0504C45.5544 160.384 45.1584 160.408 44.8624 160.456C44.5664 160.504 44.3544 160.588 44.2264 160.708C44.1064 160.82 44.0464 160.98 44.0464 161.188C44.0464 161.452 44.1384 161.668 44.3224 161.836C44.5064 162.004 44.7624 162.088 45.0904 162.088C45.3544 162.088 45.5864 162.028 45.7864 161.908C45.9944 161.78 46.1584 161.608 46.2784 161.392C46.3984 161.176 46.4584 160.928 46.4584 160.648V159.268C46.4584 158.868 46.3704 158.58 46.1944 158.404C46.0184 158.228 45.7224 158.14 45.3064 158.14C45.0744 158.14 44.8224 158.168 44.5504 158.224C44.2864 158.28 44.0064 158.376 43.7104 158.512C43.5584 158.584 43.4224 158.604 43.3024 158.572C43.1904 158.54 43.1024 158.476 43.0384 158.38C42.9744 158.276 42.9424 158.164 42.9424 158.044C42.9424 157.924 42.9744 157.808 43.0384 157.696C43.1024 157.576 43.2104 157.488 43.3624 157.432C43.7304 157.28 44.0824 157.172 44.4184 157.108C44.7624 157.044 45.0744 157.012 45.3544 157.012C45.9304 157.012 46.4024 157.1 46.7704 157.276C47.1464 157.452 47.4264 157.72 47.6104 158.08C47.7944 158.432 47.8864 158.888 47.8864 159.448V162.328C47.8864 162.576 47.8264 162.768 47.7064 162.904C47.5864 163.032 47.4144 163.096 47.1904 163.096C46.9664 163.096 46.7904 163.032 46.6624 162.904C46.5424 162.768 46.4824 162.576 46.4824 162.328V161.752H46.5784C46.5224 162.032 46.4104 162.276 46.2424 162.484C46.0824 162.684 45.8784 162.84 45.6304 162.952C45.3824 163.064 45.0984 163.12 44.7784 163.12ZM50.1529 163.096C49.9129 163.096 49.7289 163.032 49.6009 162.904C49.4729 162.768 49.4089 162.576 49.4089 162.328V155.2C49.4089 154.952 49.4729 154.764 49.6009 154.636C49.7289 154.508 49.9129 154.444 50.1529 154.444C50.3929 154.444 50.5769 154.508 50.7049 154.636C50.8409 154.764 50.9089 154.952 50.9089 155.2V158.308H50.7409C50.9169 157.884 51.1889 157.564 51.5569 157.348C51.9329 157.124 52.3569 157.012 52.8289 157.012C53.3009 157.012 53.6889 157.1 53.9929 157.276C54.2969 157.452 54.5249 157.72 54.6769 158.08C54.8289 158.432 54.9049 158.88 54.9049 159.424V162.328C54.9049 162.576 54.8409 162.768 54.7129 162.904C54.5849 163.032 54.4009 163.096 54.1609 163.096C53.9209 163.096 53.7329 163.032 53.5969 162.904C53.4689 162.768 53.4049 162.576 53.4049 162.328V159.496C53.4049 159.04 53.3169 158.708 53.1409 158.5C52.9729 158.292 52.7089 158.188 52.3489 158.188C51.9089 158.188 51.5569 158.328 51.2929 158.608C51.0369 158.88 50.9089 159.244 50.9089 159.7V162.328C50.9089 162.84 50.6569 163.096 50.1529 163.096ZM60.4303 163.096C60.1903 163.096 60.0063 163.032 59.8783 162.904C59.7503 162.768 59.6863 162.576 59.6863 162.328V155.2C59.6863 154.952 59.7503 154.764 59.8783 154.636C60.0063 154.508 60.1903 154.444 60.4303 154.444C60.6703 154.444 60.8543 154.508 60.9823 154.636C61.1183 154.764 61.1863 154.952 61.1863 155.2V159.628H61.2103L63.1903 157.54C63.3503 157.38 63.4903 157.256 63.6103 157.168C63.7303 157.08 63.8943 157.036 64.1023 157.036C64.3103 157.036 64.4663 157.092 64.5703 157.204C64.6823 157.308 64.7383 157.436 64.7383 157.588C64.7383 157.74 64.6663 157.892 64.5223 158.044L62.4342 160.252V159.628L64.7263 162.1C64.8703 162.252 64.9343 162.408 64.9183 162.568C64.9103 162.72 64.8463 162.848 64.7263 162.952C64.6063 163.048 64.4543 163.096 64.2703 163.096C64.0463 163.096 63.8663 163.052 63.7303 162.964C63.6023 162.876 63.4583 162.744 63.2983 162.568L61.2103 160.384H61.1863V162.328C61.1863 162.84 60.9343 163.096 60.4303 163.096ZM68.8947 163.12C68.2307 163.12 67.6587 162.996 67.1787 162.748C66.6987 162.5 66.3267 162.148 66.0627 161.692C65.8067 161.236 65.6787 160.696 65.6787 160.072C65.6787 159.464 65.8027 158.932 66.0507 158.476C66.3067 158.02 66.6547 157.664 67.0947 157.408C67.5427 157.144 68.0507 157.012 68.6187 157.012C69.0347 157.012 69.4067 157.08 69.7347 157.216C70.0707 157.352 70.3547 157.548 70.5867 157.804C70.8267 158.06 71.0067 158.372 71.1267 158.74C71.2547 159.1 71.3187 159.508 71.3187 159.964C71.3187 160.108 71.2667 160.22 71.1627 160.3C71.0667 160.372 70.9267 160.408 70.7427 160.408H66.8907V159.544H70.2627L70.0707 159.724C70.0707 159.356 70.0147 159.048 69.9027 158.8C69.7987 158.552 69.6427 158.364 69.4347 158.236C69.2347 158.1 68.9827 158.032 68.6787 158.032C68.3427 158.032 68.0547 158.112 67.8147 158.272C67.5827 158.424 67.4027 158.644 67.2747 158.932C67.1547 159.212 67.0947 159.548 67.0947 159.94V160.024C67.0947 160.68 67.2467 161.172 67.5507 161.5C67.8627 161.82 68.3187 161.98 68.9187 161.98C69.1267 161.98 69.3587 161.956 69.6147 161.908C69.8787 161.852 70.1267 161.76 70.3587 161.632C70.5267 161.536 70.6747 161.496 70.8027 161.512C70.9307 161.52 71.0307 161.564 71.1027 161.644C71.1827 161.724 71.2307 161.824 71.2467 161.944C71.2627 162.056 71.2387 162.172 71.1747 162.292C71.1187 162.412 71.0187 162.516 70.8747 162.604C70.5947 162.78 70.2707 162.912 69.9027 163C69.5427 163.08 69.2067 163.12 68.8947 163.12ZM73.2746 163.096C73.0346 163.096 72.8506 163.032 72.7226 162.904C72.5946 162.768 72.5306 162.576 72.5306 162.328V157.792C72.5306 157.544 72.5946 157.356 72.7226 157.228C72.8506 157.1 73.0306 157.036 73.2626 157.036C73.4946 157.036 73.6746 157.1 73.8026 157.228C73.9306 157.356 73.9946 157.544 73.9946 157.792V158.668L73.8626 158.308C74.0226 157.908 74.2706 157.592 74.6066 157.36C74.9426 157.128 75.3426 157.012 75.8066 157.012C76.2786 157.012 76.6666 157.124 76.9706 157.348C77.2746 157.572 77.4866 157.916 77.6066 158.38H77.4386C77.5986 157.956 77.8626 157.624 78.2306 157.384C78.5986 157.136 79.0226 157.012 79.5026 157.012C79.9506 157.012 80.3186 157.1 80.6066 157.276C80.9026 157.452 81.1226 157.72 81.2666 158.08C81.4106 158.432 81.4826 158.88 81.4826 159.424V162.328C81.4826 162.576 81.4146 162.768 81.2786 162.904C81.1506 163.032 80.9666 163.096 80.7266 163.096C80.4866 163.096 80.3026 163.032 80.1746 162.904C80.0466 162.768 79.9826 162.576 79.9826 162.328V159.484C79.9826 159.036 79.9066 158.708 79.7546 158.5C79.6106 158.292 79.3626 158.188 79.0106 158.188C78.6186 158.188 78.3106 158.328 78.0866 158.608C77.8626 158.88 77.7506 159.26 77.7506 159.748V162.328C77.7506 162.576 77.6866 162.768 77.5586 162.904C77.4306 163.032 77.2466 163.096 77.0066 163.096C76.7666 163.096 76.5786 163.032 76.4426 162.904C76.3146 162.768 76.2506 162.576 76.2506 162.328V159.484C76.2506 159.036 76.1746 158.708 76.0226 158.5C75.8786 158.292 75.6346 158.188 75.2906 158.188C74.8986 158.188 74.5906 158.328 74.3666 158.608C74.1426 158.88 74.0306 159.26 74.0306 159.748V162.328C74.0306 162.84 73.7786 163.096 73.2746 163.096ZM83.774 163.084C83.534 163.084 83.35 163.012 83.222 162.868C83.094 162.724 83.03 162.524 83.03 162.268V157.864C83.03 157.6 83.094 157.4 83.222 157.264C83.35 157.12 83.534 157.048 83.774 157.048C84.014 157.048 84.198 157.12 84.326 157.264C84.462 157.4 84.53 157.6 84.53 157.864V162.268C84.53 162.524 84.466 162.724 84.338 162.868C84.21 163.012 84.022 163.084 83.774 163.084ZM83.774 155.932C83.494 155.932 83.274 155.864 83.114 155.728C82.962 155.584 82.886 155.388 82.886 155.14C82.886 154.884 82.962 154.688 83.114 154.552C83.274 154.416 83.494 154.348 83.774 154.348C84.062 154.348 84.282 154.416 84.434 154.552C84.586 154.688 84.662 154.884 84.662 155.14C84.662 155.388 84.586 155.584 84.434 155.728C84.282 155.864 84.062 155.932 83.774 155.932Z" fill="white"/>
</svg>
