<svg width="272" height="198" viewBox="0 0 272 198" fill="none" xmlns="http://www.w3.org/2000/svg">
<g filter="url(#filter0_d_3379_90767)">
<rect x="55" y="37.1973" width="161.502" height="87.5016" rx="21.8744" fill="white"/>
<g filter="url(#filter1_d_3379_90767)">
<rect x="71.4062" y="53.6035" width="54.69" height="54.69" rx="27.345" fill="white"/>
<rect x="71.4062" y="53.6035" width="54.69" height="54.69" rx="27.345" stroke="#EBEBEB" stroke-width="0.976537"/>
<path d="M108.316 84.092C108.315 83.7547 108.224 83.4238 108.054 83.1327C107.884 82.8416 107.64 82.6007 107.346 82.4344C107.379 82.4055 107.417 82.3824 107.448 82.3509C107.714 82.0851 107.896 81.7463 107.969 81.3775C108.043 81.0086 108.005 80.6262 107.862 80.2786C107.718 79.931 107.474 79.6338 107.162 79.4247C106.849 79.2155 106.481 79.1038 106.105 79.1036H105.538C105.44 79.1036 105.347 79.1422 105.279 79.2108C105.21 79.2795 105.171 79.3727 105.171 79.4698C105.171 79.5669 105.21 79.6601 105.279 79.7288C105.347 79.7974 105.44 79.836 105.538 79.836H106.105C106.259 79.836 106.411 79.8663 106.552 79.925C106.694 79.9837 106.823 80.0697 106.931 80.1782C107.04 80.2867 107.126 80.4155 107.185 80.5572C107.243 80.699 107.274 80.8509 107.274 81.0043C107.274 81.1577 107.243 81.3096 107.185 81.4514C107.126 81.5931 107.04 81.7219 106.931 81.8304C106.823 81.9389 106.694 82.0249 106.552 82.0836C106.411 82.1423 106.259 82.1726 106.105 82.1726H105.582C105.484 82.1726 105.391 82.2112 105.323 82.2798C105.254 82.3485 105.215 82.4417 105.215 82.5388C105.215 82.6359 105.254 82.7291 105.323 82.7978C105.391 82.8664 105.484 82.905 105.582 82.905C105.751 82.9047 106.227 82.9058 106.397 82.9058C106.708 82.9112 107.005 83.0386 107.223 83.2605C107.441 83.4824 107.563 83.7811 107.563 84.0921C107.563 84.4032 107.441 84.7019 107.223 84.9238C107.005 85.1457 106.708 85.2731 106.397 85.2785H105.716C105.618 85.2785 105.525 85.3171 105.457 85.3858C105.388 85.4545 105.349 85.5476 105.349 85.6448C105.349 85.7419 105.388 85.8351 105.457 85.9037C105.525 85.9724 105.618 86.011 105.716 86.011H106.072C106.316 86.0158 106.548 86.1162 106.719 86.2906C106.89 86.465 106.986 86.6994 106.986 86.9436C106.986 87.1878 106.89 87.4222 106.719 87.5966C106.548 87.771 106.316 87.8714 106.072 87.8762H104.807C104.709 87.8762 104.616 87.9148 104.548 87.9835C104.479 88.0521 104.44 88.1453 104.44 88.2424C104.44 88.3396 104.479 88.4327 104.548 88.5014C104.616 88.5701 104.709 88.6087 104.807 88.6087C104.922 88.5929 105.039 88.6008 105.151 88.6319C105.263 88.6631 105.367 88.7168 105.458 88.7897C105.548 88.8626 105.623 88.9533 105.677 89.0561C105.731 89.159 105.764 89.2718 105.773 89.3877C105.782 89.5036 105.767 89.6201 105.73 89.7301C105.692 89.8401 105.633 89.9412 105.554 90.0273C105.476 90.1134 105.382 90.1827 105.276 90.2308C105.17 90.2789 105.055 90.3049 104.939 90.3072C102.911 90.242 98.1969 90.5299 96.2772 89.9652L94.7119 89.5898V80.7443L97.4066 77.7097C98.2175 76.7948 98.8395 75.7285 99.2367 74.5722C99.5138 73.7977 99.7422 73.0066 99.9204 72.2035C99.9492 72.0335 100.026 71.8754 100.142 71.7477C100.258 71.62 100.407 71.528 100.574 71.4827C100.747 71.431 100.929 71.4177 101.107 71.4439C101.286 71.47 101.457 71.535 101.607 71.6341C101.758 71.7333 101.885 71.8643 101.98 72.0179C102.075 72.1715 102.135 72.3439 102.156 72.5232C102.252 73.3721 102.321 74.9718 101.863 76.0068C101.592 76.7165 101.142 77.891 100.851 78.6377C100.802 78.7716 100.786 78.9153 100.804 79.0569C100.821 79.1984 100.873 79.3336 100.954 79.451C101.035 79.5684 101.143 79.6647 101.269 79.7317C101.395 79.7987 101.535 79.8345 101.678 79.836H104.073C104.17 79.836 104.263 79.7974 104.332 79.7288C104.4 79.6601 104.439 79.5669 104.439 79.4698C104.439 79.3727 104.4 79.2795 104.332 79.2108C104.263 79.1422 104.17 79.1036 104.073 79.1036H101.678C101.653 79.1042 101.629 79.0986 101.607 79.0875C101.585 79.0764 101.566 79.06 101.552 79.0398C101.538 79.0196 101.529 78.9962 101.526 78.9717C101.523 78.9473 101.526 78.9225 101.535 78.8996C101.991 77.5742 102.778 76.1111 102.914 74.7528C102.98 73.9844 102.97 73.2113 102.884 72.4448C102.718 70.4427 99.6523 69.9783 99.2015 72.0632C98.7756 73.9416 98.1541 75.8013 96.8587 77.2234L94.6064 79.7606C94.511 79.5457 94.3554 79.363 94.1583 79.2347C93.9612 79.1064 93.7312 79.038 93.496 79.0377H90.4014C90.0796 79.0376 89.7708 79.1651 89.5429 79.3924C89.3149 79.6196 89.1864 79.928 89.1855 80.2499V86.2121C89.1855 86.3092 89.2241 86.4023 89.2928 86.471C89.3615 86.5397 89.4546 86.5783 89.5518 86.5783C89.6489 86.5783 89.7421 86.5397 89.8107 86.471C89.8794 86.4023 89.918 86.3092 89.918 86.2121V80.2499C89.9187 80.1222 89.9699 80 90.0606 79.9101C90.1512 79.8202 90.2738 79.7698 90.4014 79.7701H93.496C93.6237 79.7698 93.7463 79.8202 93.8369 79.9101C93.9275 80 93.9788 80.1222 93.9795 80.2499V89.9915C93.9793 90.1197 93.9283 90.2425 93.8377 90.3331C93.747 90.4238 93.6242 90.4748 93.496 90.4749H90.4014C90.2733 90.4748 90.1504 90.4238 90.0598 90.3331C89.9692 90.2425 89.9182 90.1197 89.918 89.9915V87.677C89.918 87.5798 89.8794 87.4867 89.8107 87.418C89.7421 87.3493 89.6489 87.3107 89.5518 87.3107C89.4546 87.3107 89.3615 87.3493 89.2928 87.418C89.2241 87.4867 89.1855 87.5798 89.1855 87.677V89.9915C89.1859 90.3139 89.3142 90.6229 89.5421 90.8509C89.77 91.0788 90.0791 91.207 90.4014 91.2074H93.496C93.7585 91.2065 94.0137 91.1206 94.2232 90.9624C94.4327 90.8043 94.5853 90.5825 94.6581 90.3303L96.1054 90.6775C98.0948 91.2653 102.841 90.9763 104.939 91.04C105.225 91.0402 105.505 90.9631 105.75 90.8168C105.995 90.6706 106.196 90.4607 106.331 90.2094C106.467 89.9582 106.531 89.6749 106.519 89.3898C106.506 89.1047 106.417 88.8283 106.259 88.59C106.631 88.5517 106.979 88.3876 107.245 88.1249C107.552 87.816 107.726 87.3993 107.731 86.9637C107.736 86.528 107.57 86.1077 107.27 85.7924C107.585 85.6347 107.85 85.3919 108.035 85.0915C108.22 84.791 108.317 84.4448 108.316 84.092Z" fill="#1D2432"/>
<path d="M93.0826 82.3323C93.0826 82.0318 92.9632 81.7436 92.7507 81.5311C92.5382 81.3186 92.25 81.1992 91.9495 81.1992C91.649 81.1992 91.3608 81.3186 91.1483 81.5311C90.9358 81.7436 90.8164 82.0318 90.8164 82.3323C90.8164 82.6328 90.9358 82.9211 91.1483 83.1336C91.3608 83.3461 91.649 83.4654 91.9495 83.4654C92.25 83.4654 92.5382 83.3461 92.7507 83.1336C92.9632 82.9211 93.0826 82.6328 93.0826 82.3323ZM91.5489 82.3323C91.5489 82.2261 91.5911 82.1242 91.6662 82.049C91.7413 81.9739 91.8433 81.9317 91.9495 81.9317C92.0558 81.9317 92.1577 81.9739 92.2328 82.049C92.308 82.1242 92.3502 82.2261 92.3502 82.3323C92.3502 82.4386 92.308 82.5405 92.2328 82.6156C92.1577 82.6908 92.0558 82.733 91.9495 82.733C91.8433 82.733 91.7413 82.6908 91.6662 82.6156C91.5911 82.5405 91.5489 82.4386 91.5489 82.3323Z" fill="#1D2432"/>
</g>
<path d="M139.902 85.9492C139.715 85.9492 139.57 85.8979 139.468 85.7952C139.365 85.6832 139.314 85.5339 139.314 85.3472V76.6112C139.314 76.4152 139.36 76.2659 139.454 76.1632C139.556 76.0606 139.701 76.0092 139.888 76.0092C140.074 76.0092 140.214 76.0606 140.308 76.1632C140.41 76.2659 140.462 76.4152 140.462 76.6112V84.9412H145.054C145.222 84.9412 145.352 84.9879 145.446 85.0812C145.539 85.1652 145.586 85.2866 145.586 85.4452C145.586 85.6039 145.539 85.7299 145.446 85.8232C145.352 85.9072 145.222 85.9492 145.054 85.9492H139.902ZM147.321 86.0192C147.135 86.0192 146.995 85.9679 146.901 85.8652C146.808 85.7532 146.761 85.5992 146.761 85.4032V79.6772C146.761 79.4812 146.808 79.3319 146.901 79.2292C146.995 79.1266 147.135 79.0752 147.321 79.0752C147.499 79.0752 147.639 79.1266 147.741 79.2292C147.844 79.3319 147.895 79.4812 147.895 79.6772V85.4032C147.895 85.5992 147.844 85.7532 147.741 85.8652C147.648 85.9679 147.508 86.0192 147.321 86.0192ZM147.321 77.5072C147.088 77.5072 146.906 77.4466 146.775 77.3252C146.645 77.1946 146.579 77.0219 146.579 76.8072C146.579 76.5832 146.645 76.4152 146.775 76.3032C146.906 76.1819 147.088 76.1212 147.321 76.1212C147.564 76.1212 147.746 76.1819 147.867 76.3032C147.998 76.4152 148.063 76.5832 148.063 76.8072C148.063 77.0219 147.998 77.1946 147.867 77.3252C147.746 77.4466 147.564 77.5072 147.321 77.5072ZM150.575 86.0472C150.389 86.0472 150.249 85.9959 150.155 85.8932C150.062 85.7906 150.015 85.6459 150.015 85.4592V76.5552C150.015 76.3686 150.062 76.2286 150.155 76.1352C150.249 76.0326 150.389 75.9812 150.575 75.9812C150.753 75.9812 150.893 76.0326 150.995 76.1352C151.098 76.2286 151.149 76.3686 151.149 76.5552V82.1692H151.177L154.047 79.4252C154.178 79.3039 154.29 79.2106 154.383 79.1452C154.486 79.0799 154.621 79.0472 154.789 79.0472C154.939 79.0472 155.055 79.0892 155.139 79.1732C155.223 79.2479 155.261 79.3459 155.251 79.4672C155.251 79.5792 155.195 79.7006 155.083 79.8312L152.031 82.7292V82.1132L155.349 85.2352C155.48 85.3659 155.545 85.4919 155.545 85.6132C155.545 85.7346 155.499 85.8372 155.405 85.9212C155.321 86.0052 155.209 86.0472 155.069 86.0472C154.901 86.0472 154.766 86.0146 154.663 85.9492C154.561 85.8746 154.435 85.7672 154.285 85.6272L151.177 82.7572H151.149V85.4592C151.149 85.8512 150.958 86.0472 150.575 86.0472ZM159.903 86.0752C159.185 86.0752 158.564 85.9352 158.041 85.6552C157.528 85.3659 157.127 84.9599 156.837 84.4372C156.557 83.9146 156.417 83.2892 156.417 82.5612C156.417 81.8519 156.557 81.2359 156.837 80.7132C157.117 80.1812 157.5 79.7659 157.985 79.4672C158.48 79.1686 159.049 79.0192 159.693 79.0192C160.151 79.0192 160.561 79.0986 160.925 79.2572C161.289 79.4066 161.597 79.6259 161.849 79.9152C162.111 80.2046 162.307 80.5546 162.437 80.9652C162.577 81.3759 162.647 81.8379 162.647 82.3512C162.647 82.5006 162.605 82.6126 162.521 82.6872C162.437 82.7526 162.316 82.7852 162.157 82.7852H157.285V82.0432H161.891L161.667 82.2252C161.667 81.7212 161.593 81.2966 161.443 80.9512C161.294 80.5966 161.075 80.3259 160.785 80.1392C160.505 79.9526 160.151 79.8592 159.721 79.8592C159.245 79.8592 158.839 79.9712 158.503 80.1952C158.177 80.4099 157.929 80.7132 157.761 81.1052C157.593 81.4879 157.509 81.9359 157.509 82.4492V82.5332C157.509 83.3919 157.715 84.0452 158.125 84.4932C158.545 84.9412 159.138 85.1652 159.903 85.1652C160.221 85.1652 160.533 85.1232 160.841 85.0392C161.159 84.9552 161.467 84.8152 161.765 84.6192C161.896 84.5352 162.013 84.4979 162.115 84.5072C162.227 84.5072 162.316 84.5399 162.381 84.6052C162.447 84.6612 162.489 84.7359 162.507 84.8292C162.535 84.9132 162.526 85.0066 162.479 85.1092C162.442 85.2119 162.363 85.3006 162.241 85.3752C161.933 85.5992 161.569 85.7719 161.149 85.8932C160.729 86.0146 160.314 86.0752 159.903 86.0752ZM166.585 86.0752C166.165 86.0752 165.74 86.0239 165.311 85.9212C164.891 85.8186 164.499 85.6412 164.135 85.3892C164.041 85.3239 163.976 85.2492 163.939 85.1652C163.901 85.0719 163.887 84.9832 163.897 84.8992C163.915 84.8059 163.953 84.7266 164.009 84.6612C164.074 84.5959 164.149 84.5586 164.233 84.5492C164.326 84.5306 164.429 84.5492 164.541 84.6052C164.905 84.8292 165.255 84.9879 165.591 85.0812C165.936 85.1652 166.277 85.2072 166.613 85.2072C167.145 85.2072 167.546 85.1092 167.817 84.9132C168.087 84.7172 168.223 84.4512 168.223 84.1152C168.223 83.8539 168.134 83.6486 167.957 83.4992C167.779 83.3406 167.499 83.2192 167.117 83.1352L165.843 82.8552C165.255 82.7339 164.816 82.5239 164.527 82.2252C164.247 81.9266 164.107 81.5392 164.107 81.0632C164.107 80.6432 164.214 80.2839 164.429 79.9852C164.653 79.6772 164.965 79.4392 165.367 79.2712C165.768 79.1032 166.235 79.0192 166.767 79.0192C167.177 79.0192 167.565 79.0752 167.929 79.1872C168.302 79.2899 168.638 79.4579 168.937 79.6912C169.03 79.7566 169.091 79.8359 169.119 79.9292C169.156 80.0132 169.161 80.1019 169.133 80.1952C169.114 80.2792 169.072 80.3539 169.007 80.4192C168.941 80.4752 168.862 80.5079 168.769 80.5172C168.675 80.5266 168.577 80.4986 168.475 80.4332C168.195 80.2466 167.91 80.1112 167.621 80.0272C167.331 79.9339 167.047 79.8872 166.767 79.8872C166.244 79.8872 165.847 79.9899 165.577 80.1952C165.306 80.4006 165.171 80.6712 165.171 81.0072C165.171 81.2686 165.255 81.4832 165.423 81.6512C165.591 81.8192 165.852 81.9406 166.207 82.0152L167.481 82.2812C168.087 82.4119 168.54 82.6219 168.839 82.9112C169.147 83.1912 169.301 83.5739 169.301 84.0592C169.301 84.6752 169.053 85.1652 168.559 85.5292C168.064 85.8932 167.406 86.0752 166.585 86.0752ZM176.514 88.3152C175.992 87.3539 175.609 86.3692 175.366 85.3612C175.124 84.3439 175.002 83.3126 175.002 82.2672C175.002 81.5672 175.054 80.8766 175.156 80.1952C175.268 79.5139 175.436 78.8419 175.66 78.1792C175.884 77.5166 176.169 76.8632 176.514 76.2192C176.58 76.0979 176.668 76.0232 176.78 75.9952C176.902 75.9672 177.014 75.9766 177.116 76.0232C177.228 76.0606 177.308 76.1399 177.354 76.2612C177.401 76.3732 177.392 76.5179 177.326 76.6952C177.084 77.3112 176.878 77.9272 176.71 78.5432C176.542 79.1592 176.416 79.7752 176.332 80.3912C176.248 81.0072 176.206 81.6326 176.206 82.2672C176.206 82.9019 176.248 83.5272 176.332 84.1432C176.426 84.7592 176.556 85.3706 176.724 85.9772C176.892 86.5932 177.093 87.2139 177.326 87.8392C177.401 88.0166 177.41 88.1612 177.354 88.2732C177.308 88.3946 177.228 88.4739 177.116 88.5112C177.014 88.5579 176.902 88.5672 176.78 88.5392C176.668 88.5112 176.58 88.4366 176.514 88.3152ZM179.824 85.9492C179.618 85.9492 179.464 85.9026 179.362 85.8092C179.268 85.7066 179.222 85.5712 179.222 85.4032C179.222 85.3006 179.245 85.2026 179.292 85.1092C179.348 85.0066 179.422 84.9039 179.516 84.8012L182.652 81.4412C183.128 80.9279 183.468 80.4566 183.674 80.0272C183.888 79.5886 183.996 79.1452 183.996 78.6972C183.996 78.1372 183.823 77.7126 183.478 77.4232C183.142 77.1246 182.647 76.9752 181.994 76.9752C181.574 76.9752 181.177 77.0406 180.804 77.1712C180.43 77.3019 180.071 77.5026 179.726 77.7732C179.604 77.8666 179.492 77.9086 179.39 77.8992C179.296 77.8899 179.212 77.8526 179.138 77.7872C179.063 77.7219 179.012 77.6379 178.984 77.5352C178.956 77.4326 178.956 77.3299 178.984 77.2272C179.021 77.1246 179.096 77.0312 179.208 76.9472C179.572 76.6486 180.01 76.4106 180.524 76.2332C181.037 76.0466 181.56 75.9532 182.092 75.9532C182.754 75.9532 183.314 76.0559 183.772 76.2612C184.229 76.4666 184.574 76.7699 184.808 77.1712C185.041 77.5632 185.158 78.0439 185.158 78.6132C185.158 79.0052 185.092 79.3926 184.962 79.7752C184.84 80.1486 184.649 80.5312 184.388 80.9232C184.136 81.3152 183.804 81.7212 183.394 82.1412L180.412 85.2912V84.9692H185.13C185.307 84.9692 185.438 85.0112 185.522 85.0952C185.615 85.1699 185.662 85.2866 185.662 85.4452C185.662 85.6132 185.615 85.7392 185.522 85.8232C185.438 85.9072 185.307 85.9492 185.13 85.9492H179.824ZM190.612 86.0752C189.483 86.0752 188.624 85.6412 188.036 84.7732C187.448 83.9052 187.154 82.6499 187.154 81.0072C187.154 79.9059 187.285 78.9819 187.546 78.2352C187.807 77.4792 188.195 76.9099 188.708 76.5272C189.231 76.1446 189.865 75.9532 190.612 75.9532C191.751 75.9532 192.609 76.3826 193.188 77.2412C193.776 78.0906 194.07 79.3412 194.07 80.9932C194.07 82.0946 193.939 83.0232 193.678 83.7792C193.417 84.5352 193.029 85.1092 192.516 85.5012C192.003 85.8839 191.368 86.0752 190.612 86.0752ZM190.612 85.0812C191.396 85.0812 191.975 84.7499 192.348 84.0872C192.731 83.4152 192.922 82.3839 192.922 80.9932C192.922 79.5932 192.731 78.5712 192.348 77.9272C191.975 77.2739 191.396 76.9472 190.612 76.9472C189.837 76.9472 189.259 77.2739 188.876 77.9272C188.493 78.5806 188.302 79.6026 188.302 80.9932C188.302 82.3839 188.493 83.4152 188.876 84.0872C189.259 84.7499 189.837 85.0812 190.612 85.0812ZM196.319 88.3152C196.244 88.4366 196.151 88.5112 196.039 88.5392C195.927 88.5672 195.815 88.5579 195.703 88.5112C195.591 88.4646 195.511 88.3852 195.465 88.2732C195.418 88.1612 195.427 88.0166 195.493 87.8392C195.745 87.2139 195.95 86.5932 196.109 85.9772C196.277 85.3706 196.403 84.7592 196.487 84.1432C196.571 83.5272 196.613 82.9019 196.613 82.2672C196.613 81.6326 196.566 81.0072 196.473 80.3912C196.389 79.7752 196.263 79.1639 196.095 78.5572C195.936 77.9412 195.735 77.3206 195.493 76.6952C195.427 76.5179 195.418 76.3732 195.465 76.2612C195.521 76.1399 195.6 76.0606 195.703 76.0232C195.805 75.9766 195.913 75.9672 196.025 75.9952C196.146 76.0232 196.244 76.0979 196.319 76.2192C196.832 77.1712 197.21 78.1559 197.453 79.1732C197.695 80.1906 197.817 81.2219 197.817 82.2672C197.817 82.9672 197.761 83.6626 197.649 84.3532C197.546 85.0346 197.383 85.7066 197.159 86.3692C196.944 87.0319 196.664 87.6806 196.319 88.3152Z" fill="#555555"/>
</g>
<defs>
<filter id="filter0_d_3379_90767" x="0.314007" y="0.284218" width="270.874" height="196.874" filterUnits="userSpaceOnUse" color-interpolation-filters="sRGB">
<feFlood flood-opacity="0" result="BackgroundImageFix"/>
<feColorMatrix in="SourceAlpha" type="matrix" values="0 0 0 0 0 0 0 0 0 0 0 0 0 0 0 0 0 0 127 0" result="hardAlpha"/>
<feOffset dy="17.7729"/>
<feGaussianBlur stdDeviation="27.343"/>
<feColorMatrix type="matrix" values="0 0 0 0 0.105977 0 0 0 0 0.0998438 0 0 0 0 0.3375 0 0 0 0.06 0"/>
<feBlend mode="normal" in2="BackgroundImageFix" result="effect1_dropShadow_3379_90767"/>
<feBlend mode="normal" in="SourceGraphic" in2="effect1_dropShadow_3379_90767" result="shape"/>
</filter>
<filter id="filter1_d_3379_90767" x="31.8565" y="26.7487" width="133.789" height="133.789" filterUnits="userSpaceOnUse" color-interpolation-filters="sRGB">
<feFlood flood-opacity="0" result="BackgroundImageFix"/>
<feColorMatrix in="SourceAlpha" type="matrix" values="0 0 0 0 0 0 0 0 0 0 0 0 0 0 0 0 0 0 127 0" result="hardAlpha"/>
<feOffset dy="12.695"/>
<feGaussianBlur stdDeviation="19.5307"/>
<feColorMatrix type="matrix" values="0 0 0 0 0.105977 0 0 0 0 0.0998438 0 0 0 0 0.3375 0 0 0 0.06 0"/>
<feBlend mode="normal" in2="BackgroundImageFix" result="effect1_dropShadow_3379_90767"/>
<feBlend mode="normal" in="SourceGraphic" in2="effect1_dropShadow_3379_90767" result="shape"/>
</filter>
</defs>
</svg>
