<svg width="80" height="81" viewBox="0 0 80 81" fill="none" xmlns="http://www.w3.org/2000/svg">
<g clip-path="url(#clip0_3379_90915)">
<g clip-path="url(#clip1_3379_90915)">
<path d="M40.0005 0.259766C18.1865 0.259766 0.310547 18.2611 0.310547 40.2281C0.310547 62.1951 18.1865 80.1965 40.0005 80.1965C61.8144 80.1965 79.6904 62.1951 79.6904 40.2281C79.6904 18.2611 61.8144 0.259766 40.0005 0.259766Z" fill="#C6E2E7"/>
<path d="M79.6899 40.2281C79.6899 62.1951 61.814 80.1965 40 80.1965V0.259766C61.814 0.259766 79.6899 18.2611 79.6899 40.2281Z" fill="#A8D3D8"/>
<path d="M39.9997 4.94336C20.7439 4.94336 4.96094 20.837 4.96094 40.2279C4.96094 59.6188 20.7439 75.3564 39.9997 75.3564C59.2555 75.3564 75.0385 59.6188 75.0385 40.2279C75.0385 20.837 59.2555 4.94336 39.9997 4.94336Z" fill="#DEECF1"/>
<path d="M75.0388 40.2279C75.0388 59.6188 59.2558 75.3564 40 75.3564V4.94336C59.2558 4.94336 75.0388 20.837 75.0388 40.2279Z" fill="#C6E2E7"/>
<path d="M46.974 16.8093C46.974 18.1028 45.933 19.1518 44.6478 19.1518C43.3634 19.1518 42.3223 18.1028 42.3223 16.8093C42.3223 15.5158 43.3634 14.4668 44.6478 14.4668C45.933 14.4668 46.974 15.5158 46.974 16.8093Z" fill="#CC2E43"/>
<path d="M26.0466 23.8344C24.7614 23.8344 23.7211 22.7868 23.7211 21.4925V16.8087C23.7211 15.5144 24.7614 14.4668 26.0466 14.4668C27.3319 14.4668 28.3722 15.5144 28.3722 16.8087V21.4925C28.3722 22.7868 27.3319 23.8344 26.0466 23.8344ZM16.7443 33.202H12.0932C10.8079 33.202 9.76758 32.1544 9.76758 30.8601C9.76758 29.5658 10.8079 28.5182 12.0932 28.5182H16.7443C18.0296 28.5182 19.0699 29.5658 19.0699 30.8601C19.0699 32.1544 18.0296 33.202 16.7443 33.202ZM16.7443 51.9371C16.149 51.9371 15.5542 51.7084 15.1001 51.251C14.1916 50.3362 14.1916 48.8543 15.1001 47.9395L18.7363 44.2777C19.6446 43.363 21.1163 43.363 22.0246 44.2777C22.933 45.1925 22.9332 46.6746 22.0246 47.5893L18.3885 51.251C18.1729 51.4688 17.9166 51.6416 17.6344 51.7593C17.3523 51.8771 17.0498 51.9375 16.7443 51.9371ZM30.6953 65.9885C30.3459 65.9885 29.9916 65.9086 29.6573 65.7415C28.5085 65.1628 28.0428 63.7564 28.6175 62.5989L30.8299 58.1461C31.404 56.9869 32.8011 56.5202 33.9501 57.0991C35.0995 57.6773 35.5646 59.0841 34.9904 60.2412L32.7781 64.6944C32.3693 65.5153 31.5493 65.9885 30.6953 65.9885Z" fill="#E63950"/>
<path d="M49.3021 70.6729C48.0169 70.6729 46.9766 69.6253 46.9766 68.331V63.6472C46.9766 62.3529 48.0169 61.3053 49.3021 61.3053C50.5874 61.3053 51.6277 62.3529 51.6277 63.6472V68.331C51.6277 69.6253 50.5874 70.6729 49.3021 70.6729ZM63.2556 51.9377H57.36C56.0747 51.9377 55.0344 50.8901 55.0344 49.5958C55.0344 48.3015 56.0747 47.2539 57.36 47.2539H63.2556C64.5409 47.2539 65.5812 48.3015 65.5812 49.5958C65.5812 50.8901 64.5409 51.9377 63.2556 51.9377Z" fill="#CC2E43"/>
<path d="M41.0228 28.2836L39.9999 28.7988L36.1391 30.7657C35.8138 30.9067 35.4421 30.9999 35.0695 30.9999C34.2326 30.9999 33.3951 30.5315 33.0231 29.6887C32.4188 28.5178 32.8833 27.1126 34.0461 26.5503L38.9769 24.0682C39.3022 23.9273 39.6281 23.834 39.9999 23.834C40.8368 23.834 41.6743 24.3024 42.0929 25.1451C42.6514 26.2692 42.1856 27.675 41.0228 28.2836Z" fill="#E63950"/>
<path d="M48.8389 47.2526C48.5505 47.2526 48.2575 47.1995 47.9735 47.0855C46.7809 46.6031 46.202 45.2395 46.6786 44.0386L49.4705 37.0184C49.9496 35.8151 51.2989 35.2363 52.4963 35.7145C53.6887 36.1976 54.2677 37.5606 53.791 38.7613L50.9992 45.7816C50.8259 46.2158 50.5276 46.5879 50.1427 46.8501C49.7577 47.1122 49.3036 47.2524 48.8389 47.2526Z" fill="#CC2E43"/>
<path d="M53.9572 33.2019C52.1693 33.2019 50.384 32.5183 49.0231 31.1479C46.3022 28.4079 46.3022 23.9514 49.0231 21.2113C51.7442 18.4712 56.1695 18.4712 58.8906 21.2113C61.6115 23.9514 61.6115 28.4078 58.8906 31.1479C57.5298 32.5183 55.7444 33.2019 53.9572 33.2019Z" fill="#E63950"/>
<path d="M41.0229 28.2836L40 28.7988V23.834C40.8369 23.834 41.6744 24.3024 42.093 25.1451C42.6515 26.2692 42.1857 27.675 41.0229 28.2836Z" fill="#CC2E43"/>
<path d="M49.3036 42.5694C45.4894 42.5694 42.1409 40.7427 40.0013 37.8856C38.5595 35.9652 37.6757 33.4828 37.6757 30.8599C37.6757 24.3966 32.4661 19.1504 26.0478 19.1504C19.6295 19.1504 14.4199 24.3966 14.4199 30.8599C14.4199 47.019 25.2574 60.602 40.0013 64.6765C42.9781 65.5668 46.0943 65.9883 49.3036 65.9883C55.7219 65.9883 60.9315 60.7422 60.9315 54.2788C60.9315 47.8155 55.7219 42.5694 49.3036 42.5694Z" fill="#EC5569"/>
<path d="M60.9302 54.28C60.9302 60.7433 55.7206 65.9895 49.3023 65.9895C46.093 65.9895 42.9767 65.5679 40 64.6777V37.8867C42.1395 40.7438 45.4881 42.5705 49.3023 42.5705C55.7206 42.5705 60.9302 47.8167 60.9302 54.28Z" fill="#E63950"/>
<path d="M28.368 30.8595C28.368 32.153 27.3261 33.2014 26.0424 33.2014C24.7577 33.2014 23.7168 32.153 23.7168 30.8595C23.7168 29.566 24.7577 28.5176 26.0424 28.5176C27.3261 28.5176 28.368 29.566 28.368 30.8595ZM30.6935 42.569C30.6935 43.8625 29.6517 44.9109 28.368 44.9109C27.0833 44.9109 26.0424 43.8625 26.0424 42.569C26.0424 41.2754 27.0833 40.2271 28.368 40.2271C29.6517 40.2271 30.6935 41.2754 30.6935 42.569Z" fill="#FDBF00"/>
<path d="M51.6238 54.2794C51.6238 55.5729 50.582 56.6213 49.2982 56.6213C48.0136 56.6213 46.9727 55.5729 46.9727 54.2794C46.9727 52.9859 48.0136 51.9375 49.2982 51.9375C50.582 51.9375 51.6238 52.9859 51.6238 54.2794Z" fill="#FF9F00"/>
<path d="M39.9949 51.9376C39.9949 53.2311 38.9531 54.2795 37.6693 54.2795C36.3847 54.2795 35.3438 53.2311 35.3438 51.9376C35.3438 50.6441 36.3847 49.5957 37.6693 49.5957C38.9531 49.5957 39.9949 50.6441 39.9949 51.9376Z" fill="#FDBF00"/>
</g>
</g>
<defs>
<clipPath id="clip0_3379_90915">
<rect width="79.3798" height="79.9367" fill="white" transform="translate(0.621094 0.259766)"/>
</clipPath>
<clipPath id="clip1_3379_90915">
<rect width="79.3798" height="79.9367" fill="white" transform="translate(0.310547 0.259766)"/>
</clipPath>
</defs>
</svg>
