<svg width="80" height="81" viewBox="0 0 80 81" fill="none" xmlns="http://www.w3.org/2000/svg">
<ellipse cx="39.6899" cy="40.1656" rx="39.6899" ry="39.9684" fill="#FFF7E1"/>
<g clip-path="url(#clip0_3379_90869)">
<g clip-path="url(#clip1_3379_90869)">
<path d="M40.0009 2.33594L43.421 19.8794L40.0009 54.7007H15.0365C13.7528 54.7007 12.7109 53.6531 12.7109 52.3588V29.3536C12.7109 24.0157 16.5063 19.552 21.5218 18.5543C21.9078 16.5778 22.8288 14.7386 24.2071 13.2336C25.6629 11.6411 27.5295 10.531 29.5807 10.0142C30.1898 8.08583 31.3141 6.36336 32.8303 5.03536C34.8189 3.29405 37.3656 2.33533 40.0009 2.33594Z" fill="#B1705B"/>
<path d="M67.2899 29.3536V52.3588C67.2899 53.6531 66.2481 54.7007 64.9643 54.7007H40V2.33594C42.6353 2.33533 45.1819 3.29405 47.1705 5.03536C48.6868 6.36336 49.811 8.08583 50.4202 10.0142C52.4713 10.531 54.338 11.6411 55.7938 13.2336C57.1721 14.7386 58.093 16.5778 58.4791 18.5543C63.4946 19.552 67.2899 24.0157 67.2899 29.3536Z" fill="#885140"/>
<path d="M40.0004 39.0264L43.4206 49.7523L40.0004 65.0855H7.67486C7.00199 65.0855 6.36168 64.7919 5.91982 64.2814C5.06555 63.2914 5.37455 62.3953 5.6516 60.4032L9.31052 34.0475C9.31827 33.9835 9.33067 33.9179 9.34462 33.8539C9.73067 32.1397 11.0578 30.8657 12.7105 30.5284C12.9958 30.4691 13.2904 30.4395 13.5911 30.4395H29.2252C31.4904 30.4395 33.3338 32.2958 33.3338 34.5768V39.0264H40.0004Z" fill="#FFD298"/>
<path d="M72.3256 65.0855H40V39.0264H46.6667V34.5768C46.6667 32.2958 48.5101 30.4395 50.7752 30.4395H66.462C66.7442 30.4395 67.0217 30.466 67.2899 30.5175C68.9705 30.8391 70.3225 32.1256 70.7101 33.8633C70.724 33.9273 70.7349 33.9913 70.7442 34.0553C74.6478 62.5509 74.2349 59.535 74.6295 62.4235C74.8215 63.8332 73.736 65.0855 72.3256 65.0855Z" fill="#FFB555"/>
<path d="M40.0005 60.4023L42.6361 69.261L40.0005 78.1196H4.7152C2.28574 78.1196 0.310547 76.1305 0.310547 73.684V64.8379C0.310547 62.3914 2.28574 60.4023 4.7152 60.4023H40.0005Z" fill="#FFB555"/>
<path d="M79.6899 64.8379V73.684C79.6899 76.1305 77.7147 78.1196 75.2853 78.1196H40V60.4023H75.2853C77.7147 60.4023 79.6899 62.3914 79.6899 64.8379Z" fill="#FF7C48"/>
<mask id="mask0_3379_90869" style="mask-type:luminance" maskUnits="userSpaceOnUse" x="22" y="22" width="36" height="36">
<path d="M22.6367 22.7435H57.3663V57.7168H22.6367V22.7435Z" fill="white"/>
</mask>
<g mask="url(#mask0_3379_90869)">
<path d="M52.5503 22.7441H25.6891C24.006 22.7441 22.6367 24.1231 22.6367 25.818V52.8676C22.6367 54.5625 24.006 55.9414 25.6891 55.9414H45.7672C46.0371 55.9414 46.2959 55.8334 46.4866 55.6413L55.3047 46.7613C55.3992 46.6662 55.4741 46.5533 55.5253 46.429C55.5764 46.3047 55.6027 46.1714 55.6027 46.0369V25.818C55.6027 24.1231 54.2334 22.7441 52.5503 22.7441Z" fill="#696969"/>
<path d="M39.1197 22.7432H25.6891C24.006 22.7432 22.6367 24.1221 22.6367 25.817V39.3418H39.1197V22.7432Z" fill="#696969"/>
<path d="M55.6041 39.3418V25.817C55.6041 24.1221 54.2348 22.7432 52.5517 22.7432H39.1211V39.3418H55.6041Z" fill="#555555"/>
<path d="M39.1211 39.3428V55.9414H45.7686C46.0385 55.9414 46.2972 55.8334 46.488 55.6413L55.306 46.7613C55.4005 46.6662 55.4755 46.5533 55.5266 46.429C55.5778 46.3047 55.6041 46.1714 55.6041 46.0369V39.3428H39.1211Z" fill="#414141"/>
<path d="M22.6367 39.3428V52.8676C22.6367 54.5625 24.006 55.9414 25.6891 55.9414H39.1197V39.3428H22.6367Z" fill="#555555"/>
<path d="M33.252 30.019H31.8954V28.6529C31.8954 28.087 31.4398 27.6283 30.8779 27.6283C30.316 27.6283 29.8604 28.087 29.8604 28.6529V30.019H28.5038C27.9419 30.019 27.4863 30.4778 27.4863 31.0436C27.4863 31.6095 27.9419 32.0682 28.5038 32.0682H29.8604V33.4344C29.8604 34.0002 30.316 34.459 30.8779 34.459C31.4398 34.459 31.8954 34.0002 31.8954 33.4344V32.0682H33.252C33.8139 32.0682 34.2695 31.6095 34.2695 31.0436C34.2695 30.4778 33.8139 30.019 33.252 30.019Z" fill="white"/>
<path d="M49.7344 32.0684H44.9862C44.4243 32.0684 43.9688 31.6096 43.9688 31.0438C43.9688 30.4779 44.4243 30.0191 44.9862 30.0191H49.7344C50.2963 30.0191 50.7519 30.4779 50.7519 31.0438C50.7519 31.6096 50.2963 32.0684 49.7344 32.0684Z" fill="white"/>
<path d="M32.3162 47.6408L33.2926 46.6575C33.69 46.2575 33.69 45.6087 33.2926 45.2086C32.8952 44.8084 32.251 44.8084 31.8537 45.2086L30.8773 46.1918L29.901 45.2086C29.5037 44.8084 28.8594 44.8084 28.4621 45.2086C28.0647 45.6087 28.0647 46.2575 28.4621 46.6575L29.4384 47.6408L28.4621 48.624C28.0647 49.024 28.0647 49.6728 28.4621 50.0729C28.5565 50.1682 28.6686 50.2438 28.7921 50.2953C28.9155 50.3468 29.0479 50.3732 29.1815 50.373C29.3152 50.3732 29.4476 50.3468 29.571 50.2953C29.6945 50.2438 29.8067 50.1682 29.901 50.0729L30.8773 49.0898L31.8537 50.0729C31.948 50.1682 32.0602 50.2438 32.1836 50.2953C32.3071 50.3468 32.4395 50.3732 32.5731 50.373C32.7068 50.3732 32.8391 50.3468 32.9626 50.2953C33.0861 50.2438 33.1982 50.1682 33.2926 50.0729C33.69 49.6728 33.69 49.024 33.2926 48.624L32.3162 47.6408Z" fill="white"/>
<path d="M46.8537 57.7168C41.0563 57.7168 36.3398 52.9672 36.3398 47.1292C36.3398 41.2912 41.0563 36.5416 46.8537 36.5416C52.6511 36.5416 57.3675 41.2912 57.3675 47.1292C57.3675 52.9672 52.6511 57.7168 46.8537 57.7168Z" fill="white"/>
<path d="M49.2266 50.2031H44.4784C43.9165 50.2031 43.4609 49.7444 43.4609 49.1785C43.4609 48.6127 43.9165 48.1539 44.4784 48.1539H49.2266C49.7885 48.1539 50.2441 48.6127 50.2441 49.1785C50.2441 49.7444 49.7885 50.2031 49.2266 50.2031Z" fill="#555555"/>
<path d="M49.2266 46.1055H44.4784C43.9165 46.1055 43.4609 45.6467 43.4609 45.0809C43.4609 44.515 43.9165 44.0563 44.4784 44.0563H49.2266C49.7885 44.0563 50.2441 44.515 50.2441 45.0809C50.2441 45.6467 49.7885 46.1055 49.2266 46.1055Z" fill="#555555"/>
</g>
</g>
</g>
<defs>
<clipPath id="clip0_3379_90869">
<rect width="79.3798" height="79.9367" fill="white" transform="translate(0.621094 0.259766)"/>
</clipPath>
<clipPath id="clip1_3379_90869">
<rect width="79.3798" height="79.9367" fill="white" transform="translate(0.310547 0.259766)"/>
</clipPath>
</defs>
</svg>
