<svg width="171" height="56" viewBox="0 0 171 56" fill="none" xmlns="http://www.w3.org/2000/svg">
<rect x="0.5" y="0.5" width="170" height="55" rx="27.5" fill="white"/>
<rect x="0.5" y="0.5" width="170" height="55" rx="27.5" stroke="#555555"/>
<g clip-path="url(#clip0_3379_90530)">
<path d="M34.0754 27.3477L21.1152 39.6306C21.2608 40.0971 21.5223 40.5274 21.8799 40.8885C22.2374 41.2497 22.6815 41.532 23.1782 41.7141C23.6749 41.8962 24.211 41.9731 24.7456 41.939C25.2802 41.9049 25.7991 41.7607 26.2626 41.5174L40.8453 34.0045L34.0754 27.3477Z" fill="#EA4335"/>
<path d="M47.1816 25.2615L40.8756 21.9941L33.7773 27.6288L40.9044 33.9886L47.1624 30.7563C47.7168 30.4937 48.1812 30.0988 48.5052 29.6145C48.8292 29.1302 49.0005 28.5749 49.0005 28.0088C49.0005 27.4428 48.8292 26.8875 48.5052 26.4032C48.1812 25.9189 47.7168 25.524 47.1624 25.2614H47.1818L47.1816 25.2615Z" fill="#FBBC04"/>
<path d="M21.116 16.3242C21.0376 16.5862 20.9986 16.8565 21 17.1279V38.8281C21.0008 39.0994 21.0398 39.3695 21.116 39.6319L34.5204 27.6635L21.116 16.3242Z" fill="#4285F4"/>
<path d="M34.172 27.9776L40.8743 21.9935L26.311 14.4455C25.7631 14.1552 25.1399 14.0015 24.5049 14C22.9291 13.9972 21.5438 14.9433 21.1152 16.3151L34.172 27.9776Z" fill="#34A853"/>
</g>
<path d="M68.544 33.144C67.3387 33.144 66.32 32.9147 65.488 32.456C64.6667 31.9973 64.0427 31.336 63.616 30.472C63.1893 29.608 62.976 28.5733 62.976 27.368C62.976 26.472 63.0933 25.6667 63.328 24.952C63.5733 24.2373 63.9253 23.6347 64.384 23.144C64.8533 22.6427 65.4187 22.2587 66.08 21.992C66.752 21.7147 67.5093 21.576 68.352 21.576C69.024 21.576 69.6747 21.672 70.304 21.864C70.9333 22.0453 71.4933 22.3387 71.984 22.744C72.112 22.84 72.192 22.9467 72.224 23.064C72.256 23.1813 72.2507 23.2987 72.208 23.416C72.176 23.5333 72.1173 23.6347 72.032 23.72C71.9573 23.7947 71.856 23.8373 71.728 23.848C71.6107 23.8587 71.488 23.8213 71.36 23.736C70.9227 23.3947 70.4587 23.1493 69.968 23C69.4773 22.84 68.9333 22.76 68.336 22.76C67.4827 22.76 66.7573 22.9413 66.16 23.304C65.5733 23.6667 65.1253 24.1893 64.816 24.872C64.5173 25.5547 64.368 26.3867 64.368 27.368C64.368 28.8613 64.7147 30.0027 65.408 30.792C66.112 31.5813 67.168 31.976 68.576 31.976C69.088 31.976 69.5893 31.928 70.08 31.832C70.5707 31.7253 71.0347 31.5813 71.472 31.4L71.184 32.152V28.168H68.896C68.704 28.168 68.56 28.12 68.464 28.024C68.368 27.928 68.32 27.8 68.32 27.64C68.32 27.4693 68.368 27.3413 68.464 27.256C68.56 27.1707 68.704 27.128 68.896 27.128H71.76C71.9413 27.128 72.08 27.176 72.176 27.272C72.272 27.368 72.32 27.5067 72.32 27.688V31.864C72.32 32.024 72.2933 32.1573 72.24 32.264C72.1867 32.3707 72.096 32.4507 71.968 32.504C71.52 32.6853 70.9813 32.84 70.352 32.968C69.7333 33.0853 69.1307 33.144 68.544 33.144ZM78.0574 33.144C77.3 33.144 76.644 32.9787 76.0894 32.648C75.5347 32.3173 75.1027 31.8533 74.7934 31.256C74.4947 30.648 74.3454 29.9333 74.3454 29.112C74.3454 28.4933 74.4307 27.9387 74.6014 27.448C74.772 26.9467 75.0227 26.52 75.3534 26.168C75.684 25.816 76.0734 25.5493 76.5214 25.368C76.98 25.176 77.492 25.08 78.0574 25.08C78.8147 25.08 79.4707 25.2453 80.0254 25.576C80.58 25.9067 81.0067 26.376 81.3054 26.984C81.6147 27.5813 81.7694 28.2907 81.7694 29.112C81.7694 29.7307 81.684 30.2853 81.5134 30.776C81.3427 31.2667 81.092 31.6933 80.7614 32.056C80.4307 32.408 80.036 32.68 79.5774 32.872C79.1294 33.0533 78.6227 33.144 78.0574 33.144ZM78.0574 32.104C78.5374 32.104 78.9587 31.9867 79.3214 31.752C79.684 31.5173 79.9614 31.176 80.1534 30.728C80.356 30.28 80.4574 29.7413 80.4574 29.112C80.4574 28.1413 80.2387 27.4 79.8014 26.888C79.3747 26.376 78.7934 26.12 78.0574 26.12C77.5667 26.12 77.14 26.2373 76.7774 26.472C76.4254 26.696 76.148 27.032 75.9454 27.48C75.7534 27.9173 75.6574 28.4613 75.6574 29.112C75.6574 30.072 75.876 30.8133 76.3134 31.336C76.7507 31.848 77.332 32.104 78.0574 32.104ZM86.948 33.144C86.1907 33.144 85.5347 32.9787 84.98 32.648C84.4253 32.3173 83.9933 31.8533 83.684 31.256C83.3853 30.648 83.236 29.9333 83.236 29.112C83.236 28.4933 83.3213 27.9387 83.492 27.448C83.6627 26.9467 83.9133 26.52 84.244 26.168C84.5747 25.816 84.964 25.5493 85.412 25.368C85.8707 25.176 86.3827 25.08 86.948 25.08C87.7053 25.08 88.3613 25.2453 88.916 25.576C89.4707 25.9067 89.8973 26.376 90.196 26.984C90.5053 27.5813 90.66 28.2907 90.66 29.112C90.66 29.7307 90.5747 30.2853 90.404 30.776C90.2333 31.2667 89.9827 31.6933 89.652 32.056C89.3213 32.408 88.9267 32.68 88.468 32.872C88.02 33.0533 87.5133 33.144 86.948 33.144ZM86.948 32.104C87.428 32.104 87.8493 31.9867 88.212 31.752C88.5747 31.5173 88.852 31.176 89.044 30.728C89.2467 30.28 89.348 29.7413 89.348 29.112C89.348 28.1413 89.1293 27.4 88.692 26.888C88.2653 26.376 87.684 26.12 86.948 26.12C86.4573 26.12 86.0307 26.2373 85.668 26.472C85.316 26.696 85.0387 27.032 84.836 27.48C84.644 27.9173 84.548 28.4613 84.548 29.112C84.548 30.072 84.7667 30.8133 85.204 31.336C85.6413 31.848 86.2227 32.104 86.948 32.104ZM96.0466 36.024C95.4813 36.024 94.9266 35.9547 94.3826 35.816C93.8493 35.688 93.364 35.48 92.9266 35.192C92.7986 35.1173 92.7133 35.0267 92.6706 34.92C92.6386 34.8133 92.6333 34.7067 92.6546 34.6C92.676 34.504 92.724 34.4133 92.7986 34.328C92.8733 34.2533 92.9586 34.2053 93.0546 34.184C93.1613 34.1627 93.268 34.1787 93.3746 34.232C93.844 34.52 94.292 34.7173 94.7186 34.824C95.1453 34.9307 95.5666 34.984 95.9826 34.984C96.74 34.984 97.3106 34.7813 97.6946 34.376C98.0893 33.9707 98.2866 33.384 98.2866 32.616V30.808H98.4466C98.2866 31.4267 97.9453 31.9173 97.4226 32.28C96.9106 32.6427 96.308 32.824 95.6146 32.824C94.9 32.824 94.2813 32.664 93.7586 32.344C93.236 32.0133 92.8306 31.5547 92.5426 30.968C92.2653 30.3813 92.1266 29.704 92.1266 28.936C92.1266 28.36 92.2066 27.8373 92.3666 27.368C92.5266 26.888 92.756 26.4827 93.0546 26.152C93.364 25.8107 93.732 25.5493 94.1586 25.368C94.596 25.176 95.0813 25.08 95.6146 25.08C96.3186 25.08 96.9266 25.2613 97.4386 25.624C97.9506 25.976 98.2813 26.456 98.4306 27.064L98.2706 27.256V25.768C98.2706 25.5547 98.324 25.3947 98.4306 25.288C98.548 25.1707 98.708 25.112 98.9106 25.112C99.124 25.112 99.284 25.1707 99.3906 25.288C99.4973 25.3947 99.5506 25.5547 99.5506 25.768V32.44C99.5506 33.624 99.252 34.5147 98.6546 35.112C98.068 35.72 97.1986 36.024 96.0466 36.024ZM95.8546 31.768C96.356 31.768 96.788 31.656 97.1506 31.432C97.5133 31.1973 97.7906 30.8667 97.9826 30.44C98.1853 30.0133 98.2866 29.512 98.2866 28.936C98.2866 28.072 98.068 27.3893 97.6306 26.888C97.1933 26.376 96.6013 26.12 95.8546 26.12C95.364 26.12 94.9373 26.2373 94.5746 26.472C94.212 26.696 93.9293 27.0213 93.7266 27.448C93.5346 27.864 93.4386 28.36 93.4386 28.936C93.4386 29.8 93.6573 30.488 94.0946 31C94.532 31.512 95.1186 31.768 95.8546 31.768ZM104.35 33.144C103.582 33.144 102.995 32.9093 102.59 32.44C102.184 31.9707 101.982 31.2987 101.982 30.424V22.264C101.982 22.0507 102.035 21.8907 102.142 21.784C102.248 21.6667 102.408 21.608 102.622 21.608C102.824 21.608 102.984 21.6667 103.102 21.784C103.219 21.8907 103.278 22.0507 103.278 22.264V30.328C103.278 30.904 103.39 31.336 103.614 31.624C103.848 31.9013 104.19 32.04 104.638 32.04C104.734 32.04 104.819 32.0347 104.894 32.024C104.968 32.0133 105.043 32.008 105.118 32.008C105.235 31.9973 105.315 32.024 105.358 32.088C105.411 32.152 105.438 32.28 105.438 32.472C105.438 32.664 105.395 32.808 105.31 32.904C105.224 33 105.086 33.064 104.894 33.096C104.808 33.1067 104.718 33.1173 104.622 33.128C104.526 33.1387 104.435 33.144 104.35 33.144ZM110.142 33.144C109.321 33.144 108.611 32.984 108.014 32.664C107.427 32.3333 106.969 31.8693 106.638 31.272C106.318 30.6747 106.158 29.96 106.158 29.128C106.158 28.3173 106.318 27.6133 106.638 27.016C106.958 26.408 107.395 25.9333 107.95 25.592C108.515 25.2507 109.166 25.08 109.902 25.08C110.425 25.08 110.894 25.1707 111.31 25.352C111.726 25.5227 112.078 25.7733 112.366 26.104C112.665 26.4347 112.889 26.8347 113.038 27.304C113.198 27.7733 113.278 28.3013 113.278 28.888C113.278 29.0587 113.23 29.1867 113.134 29.272C113.038 29.3467 112.899 29.384 112.718 29.384H107.15V28.536H112.414L112.158 28.744C112.158 28.168 112.073 27.6827 111.902 27.288C111.731 26.8827 111.481 26.5733 111.15 26.36C110.83 26.1467 110.425 26.04 109.934 26.04C109.39 26.04 108.926 26.168 108.542 26.424C108.169 26.6693 107.886 27.016 107.694 27.464C107.502 27.9013 107.406 28.4133 107.406 29V29.096C107.406 30.0773 107.641 30.824 108.11 31.336C108.59 31.848 109.267 32.104 110.142 32.104C110.505 32.104 110.862 32.056 111.214 31.96C111.577 31.864 111.929 31.704 112.27 31.48C112.419 31.384 112.553 31.3413 112.67 31.352C112.798 31.352 112.899 31.3893 112.974 31.464C113.049 31.528 113.097 31.6133 113.118 31.72C113.15 31.816 113.139 31.9227 113.086 32.04C113.043 32.1573 112.953 32.2587 112.814 32.344C112.462 32.6 112.046 32.7973 111.566 32.936C111.086 33.0747 110.611 33.144 110.142 33.144ZM120.111 33.112C119.897 33.112 119.732 33.0533 119.615 32.936C119.508 32.808 119.455 32.6373 119.455 32.424V22.392C119.455 22.168 119.513 22.0027 119.631 21.896C119.748 21.7787 119.913 21.72 120.127 21.72H123.919C125.124 21.72 126.052 22.0187 126.703 22.616C127.353 23.2027 127.679 24.0347 127.679 25.112C127.679 26.1787 127.353 27.0107 126.703 27.608C126.052 28.2053 125.124 28.504 123.919 28.504H120.767V32.424C120.767 32.6373 120.713 32.808 120.607 32.936C120.5 33.0533 120.335 33.112 120.111 33.112ZM120.767 27.4H123.759C124.623 27.4 125.273 27.208 125.711 26.824C126.159 26.4293 126.383 25.8587 126.383 25.112C126.383 24.3547 126.159 23.784 125.711 23.4C125.273 23.0053 124.623 22.808 123.759 22.808H120.767V27.4ZM131.772 33.144C131.004 33.144 130.417 32.9093 130.012 32.44C129.606 31.9707 129.404 31.2987 129.404 30.424V22.264C129.404 22.0507 129.457 21.8907 129.564 21.784C129.67 21.6667 129.83 21.608 130.044 21.608C130.246 21.608 130.406 21.6667 130.524 21.784C130.641 21.8907 130.7 22.0507 130.7 22.264V30.328C130.7 30.904 130.812 31.336 131.036 31.624C131.27 31.9013 131.612 32.04 132.06 32.04C132.156 32.04 132.241 32.0347 132.316 32.024C132.39 32.0133 132.465 32.008 132.54 32.008C132.657 31.9973 132.737 32.024 132.78 32.088C132.833 32.152 132.86 32.28 132.86 32.472C132.86 32.664 132.817 32.808 132.732 32.904C132.646 33 132.508 33.064 132.316 33.096C132.23 33.1067 132.14 33.1173 132.044 33.128C131.948 33.1387 131.857 33.144 131.772 33.144ZM136.586 33.144C136.053 33.144 135.573 33.0427 135.146 32.84C134.73 32.6267 134.399 32.3387 134.154 31.976C133.909 31.6133 133.786 31.208 133.786 30.76C133.786 30.184 133.93 29.7307 134.218 29.4C134.517 29.0693 135.002 28.8347 135.674 28.696C136.357 28.5573 137.285 28.488 138.458 28.488H139.178V29.336H138.474C137.61 29.336 136.927 29.3787 136.426 29.464C135.935 29.5387 135.589 29.672 135.386 29.864C135.194 30.056 135.098 30.328 135.098 30.68C135.098 31.1173 135.247 31.4747 135.546 31.752C135.855 32.0293 136.271 32.168 136.794 32.168C137.221 32.168 137.594 32.0667 137.914 31.864C138.245 31.6613 138.501 31.384 138.682 31.032C138.874 30.68 138.97 30.2747 138.97 29.816V27.992C138.97 27.3307 138.837 26.856 138.57 26.568C138.303 26.2693 137.866 26.12 137.258 26.12C136.885 26.12 136.511 26.168 136.138 26.264C135.765 26.36 135.37 26.5147 134.954 26.728C134.805 26.8027 134.677 26.8293 134.57 26.808C134.463 26.776 134.378 26.7173 134.314 26.632C134.25 26.5467 134.213 26.4507 134.202 26.344C134.191 26.2267 134.213 26.1147 134.266 26.008C134.33 25.9013 134.426 25.816 134.554 25.752C135.023 25.5173 135.487 25.3467 135.946 25.24C136.405 25.1333 136.842 25.08 137.258 25.08C137.93 25.08 138.485 25.192 138.922 25.416C139.359 25.6293 139.685 25.96 139.898 26.408C140.111 26.8453 140.218 27.4107 140.218 28.104V32.44C140.218 32.6533 140.165 32.8187 140.058 32.936C139.962 33.0533 139.818 33.112 139.626 33.112C139.423 33.112 139.269 33.0533 139.162 32.936C139.055 32.8187 139.002 32.6533 139.002 32.44V31.192H139.146C139.061 31.5973 138.895 31.944 138.65 32.232C138.415 32.52 138.122 32.744 137.77 32.904C137.418 33.064 137.023 33.144 136.586 33.144ZM144.272 35.992C144.112 35.992 143.984 35.9493 143.888 35.864C143.792 35.7787 143.733 35.6613 143.712 35.512C143.701 35.3733 143.728 35.2293 143.792 35.08L144.896 32.6V33.16L141.824 26.024C141.76 25.864 141.739 25.7147 141.76 25.576C141.781 25.4373 141.845 25.3253 141.952 25.24C142.059 25.1547 142.208 25.112 142.4 25.112C142.571 25.112 142.704 25.1493 142.8 25.224C142.896 25.2987 142.981 25.432 143.056 25.624L145.68 32.056H145.248L147.904 25.624C147.989 25.432 148.08 25.2987 148.176 25.224C148.272 25.1493 148.411 25.112 148.592 25.112C148.763 25.112 148.891 25.1547 148.976 25.24C149.072 25.3253 149.125 25.4373 149.136 25.576C149.157 25.704 149.136 25.848 149.072 26.008L144.976 35.48C144.891 35.672 144.795 35.8053 144.688 35.88C144.592 35.9547 144.453 35.992 144.272 35.992Z" fill="black"/>
<defs>
<clipPath id="clip0_3379_90530">
<rect width="28" height="28" fill="white" transform="translate(21 14)"/>
</clipPath>
</defs>
</svg>
