<svg width="160" height="161" viewBox="0 0 160 161" fill="none" xmlns="http://www.w3.org/2000/svg">
<g clip-path="url(#clip0_3379_90660)" filter="url(#filter0_d_3379_90660)">
<path d="M106.158 86.938L118.892 99.672C120.371 101.151 120.371 103.548 118.892 105.027L117.873 106.046C116.394 107.525 113.997 107.525 112.518 106.046L99.8584 93.3861L90.7441 84.1329L97.9108 78.0918L106.158 86.938Z" fill="#D7D0D6"/>
<path d="M77.3199 101.88C97.9312 101.88 114.64 85.1714 114.64 64.5602C114.64 43.9489 97.9312 27.2402 77.3199 27.2402C56.7087 27.2402 40 43.9489 40 64.5602C40 85.1714 56.7087 101.88 77.3199 101.88Z" fill="#FEE45A"/>
<path d="M53.4228 61.3734C53.4228 53.7551 55.7062 46.6706 59.6252 40.7656H48.5697C43.2175 47.2245 40 55.5162 40 64.5601C40 85.1714 56.7088 101.88 77.32 101.88C82.7359 101.88 87.8832 100.725 92.5279 98.6501C91.9369 98.6778 91.3408 98.6933 90.7428 98.6933C70.1316 98.6933 53.4228 81.9847 53.4228 61.3734Z" fill="#FEDF30"/>
<path d="M103.855 64.2165L62.1404 63.8184L52.6172 77.4882L53.3096 82.827C54.1363 83.8893 55.0339 84.8935 55.9929 85.8315L66.4599 88.5076H90.3958L97.6111 85.8315C102.574 80.9768 105.847 74.3961 106.455 67.0599L103.855 64.2165Z" fill="#97DA7B"/>
<path d="M55.4248 73.459L52.6172 77.4891L53.3096 82.8278C54.1363 83.8902 55.0339 84.8944 55.9929 85.8324L64.6411 88.0434C60.5215 84.0109 57.3316 79.033 55.4248 73.459Z" fill="#80D261"/>
<path d="M51.5406 62.1504L47.1484 67.0608C47.4277 70.4383 48.2737 73.656 49.5879 76.6186H49.5895L55.945 75.6024L62.1401 64.2174L51.5406 62.1504Z" fill="#97DA7B"/>
<path d="M56.11 75.2992C54.5132 71.3316 53.5781 67.0271 53.442 62.5212L51.5406 62.1504L47.1484 67.0608C47.4277 70.4383 48.2737 73.656 49.5879 76.6186H49.5895L55.945 75.6024L56.11 75.2992Z" fill="#80D261"/>
<path d="M45.3672 45.2687C45.8859 46.7587 46.6284 48.161 47.569 49.4276L53.1579 57.1343C53.8151 58.0381 54.2759 59.0693 54.5105 60.1618L54.9296 62.1013C55.4538 64.5277 57.6363 66.289 60.1189 66.289C62.6012 66.289 64.7836 64.528 65.3083 62.1013L65.7275 60.162C65.962 59.0694 66.4227 58.0381 67.0799 57.1343L72.6693 49.4274C74.728 46.6502 75.7873 43.3505 75.7323 39.8844C75.6685 35.8491 74.0561 32.037 71.1923 29.15C70.7807 28.7366 70.3466 28.3462 69.892 27.9805C59.5028 30.0788 50.6779 36.4914 45.3672 45.2687Z" fill="#FEDF30"/>
<path d="M96.9942 46.5636L95.578 41.4718C90.4569 37.3 83.9214 34.8008 76.8016 34.8008C61.782 34.8008 49.3602 45.9294 47.334 60.3904H47.3356L53.403 63.8184H88.5787L99.6242 55.3349L96.9942 46.5636Z" fill="#97DA7B"/>
<path d="M53.5045 63.8189C53.4509 63.0048 53.4236 62.1892 53.4227 61.3734C53.4227 53.7551 55.7061 46.6706 59.6251 40.7656H58.9305C52.7624 45.4058 48.4554 52.3872 47.334 60.3908H47.3356L53.403 63.8189H53.5045Z" fill="#80D261"/>
<path d="M65.3083 62.101L65.7274 60.1616C65.962 59.0691 66.4227 58.0377 67.0799 57.134L72.6692 49.4271C74.728 46.6499 75.7873 43.3502 75.7322 39.884C75.7058 38.1726 75.3961 36.4774 74.8157 34.8672C63.5973 35.6066 54.0781 42.5634 49.6699 52.324L53.158 57.134C53.8152 58.0377 54.276 59.069 54.5106 60.1615L54.9298 62.101C55.0619 62.7111 55.3019 63.2927 55.6385 63.8185H64.5994C64.9359 63.2926 65.176 62.711 65.3083 62.101Z" fill="#80D261"/>
<path d="M100.303 46.3066L96.2865 46.8971L86.3965 61.7755L97.5686 64.2176L106.269 60.3914C105.532 55.1298 103.419 50.3106 100.303 46.3066Z" fill="#97DA7B"/>
<path d="M106.559 64.5598C106.559 65.4026 106.524 66.2356 106.454 67.0606H65.6015C65.3668 67.0606 65.1355 67.116 64.9262 67.2221C64.7169 67.3283 64.5356 67.4823 64.3971 67.6717L53.3088 82.8275C51.8198 80.9172 50.5701 78.832 49.5874 76.6182H49.589L56.1613 67.6347C56.3358 67.3961 56.1655 67.0605 55.8698 67.0605H47.1479C47.0785 66.2355 47.043 65.4024 47.043 64.5596C47.043 63.1453 47.1415 61.7537 47.3336 60.391H81.6084C81.688 60.391 81.7628 60.3531 81.8098 60.2888L95.576 41.4743L95.5776 41.4727C97.331 42.8995 98.9164 44.5212 100.303 46.3064L90.2882 59.9945C90.1676 60.1594 90.2853 60.3912 90.4896 60.3912H106.269C106.463 61.7722 106.56 63.1652 106.559 64.5598Z" fill="#FDF6EC"/>
<path d="M57.1308 77.6059C55.9563 75.1779 55.0505 72.6289 54.4294 70.0042L49.591 76.6178H49.5894C50.5774 78.8458 51.8319 80.9285 53.3107 82.8271L57.1308 77.6059ZM53.8548 67.0601C53.5676 65.178 53.4236 63.2769 53.4242 61.373C53.4242 61.0443 53.43 60.7171 53.4384 60.3906H47.3355C47.1434 61.7533 47.0449 63.1449 47.0449 64.5592C47.0449 65.402 47.0804 66.2351 47.1499 67.0601H53.8548Z" fill="#FEF1DA"/>
<path d="M65.6784 60.3906H54.5605L54.9301 62.1012C55.4543 64.5276 57.6368 66.2888 60.1194 66.2888C62.6017 66.2888 64.7841 64.5279 65.3088 62.1012L65.6784 60.3906Z" fill="#FEF1DA"/>
<path d="M60.4178 27.7535C53.4403 27.5892 47.7324 33.1963 47.7324 40.1363C47.7324 42.9026 48.6399 45.4565 50.1724 47.518L55.7717 55.239C56.6907 56.506 57.3359 57.9504 57.6665 59.4803L58.0856 61.4197C58.2924 62.3771 59.1392 63.0604 60.1188 63.0604C61.0983 63.0604 61.9451 62.3771 62.1519 61.4197L62.571 59.4803C62.9015 57.9504 63.5468 56.5061 64.4658 55.2392L70.0651 47.5182C71.6345 45.4069 72.5485 42.7792 72.5035 39.9359C72.399 33.3261 67.0263 27.9092 60.4178 27.7535Z" fill="#EE6161"/>
<path d="M61.9631 58.5693C61.6325 57.0394 60.9873 55.5951 60.0684 54.328L54.469 46.6071C52.9364 44.5455 52.0291 41.9916 52.0291 39.2253C52.0291 34.0415 55.2141 29.6027 59.7334 27.7559C53.071 27.9596 47.7324 33.4237 47.7324 40.1354C47.7324 42.9017 48.6399 45.4556 50.1724 47.5172L55.7717 55.2381C56.6907 56.5051 57.3359 57.9495 57.6665 59.4794L58.0856 61.4188C58.2924 62.3762 59.1392 63.0595 60.1187 63.0595C61.0983 63.0595 61.9451 62.3762 62.1519 61.4188L62.3655 60.4308L61.9631 58.5693Z" fill="#E94444"/>
<path d="M55.0422 35.7412C56.2734 34.3189 58.0915 33.4199 60.1199 33.4199C63.829 33.4199 66.8355 36.4274 66.8355 40.1365C66.8382 41.751 66.2564 43.3119 65.1976 44.5308C63.9664 45.9532 62.1484 46.8521 60.1199 46.8521C56.4108 46.8521 53.4043 43.8456 53.4043 40.1365C53.4017 38.5217 53.9835 36.9605 55.0422 35.7412Z" fill="#F9F7F8"/>
<path d="M97.6104 85.832C92.2438 91.0823 84.9012 94.3178 76.8013 94.3178C68.7014 94.3178 61.3587 91.0823 55.9922 85.832H97.6104Z" fill="#FDF6EC"/>
<path d="M62.5544 85.832H55.9922C60.4299 90.1737 66.2198 93.1353 72.6709 94.0312C68.8462 91.9093 65.4224 89.1344 62.5544 85.832Z" fill="#FEF1DA"/>
<path d="M77.3202 88.4279C76.9991 88.4279 76.6911 88.3003 76.464 88.0733C76.2369 87.8462 76.1094 87.5382 76.1094 87.2171V77.7441C76.1094 77.0753 76.6514 76.5332 77.3202 76.5332C77.9891 76.5332 78.5311 77.0753 78.5311 77.7441V87.2171C78.5311 87.5382 78.4035 87.8462 78.1764 88.0733C77.9494 88.3003 77.6414 88.4279 77.3202 88.4279Z" fill="#FDDEB0"/>
<path d="M77.3197 81.3856C79.4714 81.3856 81.2157 79.6413 81.2157 77.4897C81.2157 75.338 79.4714 73.5938 77.3197 73.5938C75.1681 73.5938 73.4238 75.338 73.4238 77.4897C73.4238 79.6413 75.1681 81.3856 77.3197 81.3856Z" fill="#EE6161"/>
</g>
<defs>
<filter id="filter0_d_3379_90660" x="3.8147e-06" y="0.197268" width="160" height="160" filterUnits="userSpaceOnUse" color-interpolation-filters="sRGB">
<feFlood flood-opacity="0" result="BackgroundImageFix"/>
<feColorMatrix in="SourceAlpha" type="matrix" values="0 0 0 0 0 0 0 0 0 0 0 0 0 0 0 0 0 0 127 0" result="hardAlpha"/>
<feOffset dy="13"/>
<feGaussianBlur stdDeviation="20"/>
<feColorMatrix type="matrix" values="0 0 0 0 0.105977 0 0 0 0 0.0998438 0 0 0 0 0.3375 0 0 0 0.06 0"/>
<feBlend mode="normal" in2="BackgroundImageFix" result="effect1_dropShadow_3379_90660"/>
<feBlend mode="normal" in="SourceGraphic" in2="effect1_dropShadow_3379_90660" result="shape"/>
</filter>
<clipPath id="clip0_3379_90660">
<rect width="80" height="80" fill="white" transform="translate(40 27.1973)"/>
</clipPath>
</defs>
</svg>
