<svg width="48" height="58" viewBox="0 0 48 58" fill="none" xmlns="http://www.w3.org/2000/svg">
<path d="M24.1422 57.5704C35.9557 57.5704 45.5325 55.5111 45.5325 52.9708C45.5325 50.4304 35.9557 48.3711 24.1422 48.3711C12.3287 48.3711 2.75195 50.4304 2.75195 52.9708C2.75195 55.5111 12.3287 57.5704 24.1422 57.5704Z" fill="url(#paint0_linear_3992_13510)"/>
<path d="M45.5327 52.9708C45.5327 50.4305 35.956 48.3711 24.1424 48.3711C22.1772 48.3711 20.2745 48.4283 18.4668 48.5351L22.4707 54.4255C22.5785 54.5842 22.7082 54.7269 22.8559 54.8492L25.5667 57.56C36.716 57.4024 45.5327 55.4082 45.5327 52.9708Z" fill="url(#paint1_linear_3992_13510)"/>
<path d="M47.5863 23.8722C47.5863 10.9242 37.09 0.427734 24.1419 0.427734C11.2503 0.427734 0.827771 10.7407 0.698471 23.6318C0.60088 33.3679 6.4392 41.7509 14.8157 45.3866C16.2172 45.9958 17.4169 46.9904 18.2754 48.2546L22.4701 54.4257C23.2723 55.6057 25.0113 55.6057 25.8134 54.4257L30.0081 48.2547C30.8644 46.9949 32.0571 45.9979 33.4549 45.3923C41.7693 41.7894 47.5863 33.5108 47.5863 23.8722Z" fill="url(#paint2_linear_3992_13510)"/>
<path d="M24.1414 54.1421C24.0056 54.1421 23.665 54.1057 23.4359 53.7687L19.2413 47.5975C18.2548 46.1463 16.8852 45.0111 15.2805 44.3147C7.04161 40.7386 1.77629 32.6245 1.86637 23.6431C1.92576 17.7186 4.26592 12.1723 8.45573 8.02562C12.6451 3.8794 18.2163 1.5957 24.1414 1.5957H24.1416C36.4247 1.5957 46.4177 11.5889 46.4177 23.872C46.4177 32.7591 41.147 40.7854 32.9901 44.3201C31.3946 45.0115 30.0292 46.1448 29.0416 47.5977L24.847 53.7688C24.6179 54.1057 24.2772 54.1421 24.1414 54.1421Z" fill="url(#paint3_linear_3992_13510)"/>
<path d="M24.1433 38.6088C32.2823 38.6088 38.8803 32.0108 38.8803 23.8718C38.8803 15.7328 32.2823 9.13477 24.1433 9.13477C16.0042 9.13477 9.40625 15.7328 9.40625 23.8718C9.40625 32.0108 16.0042 38.6088 24.1433 38.6088Z" fill="url(#paint4_linear_3992_13510)"/>
<path d="M46.8528 29.7093L32.8514 15.7079C30.6733 13.3852 27.5772 11.9336 24.1417 11.9336C17.5482 11.9336 12.2031 17.2787 12.2031 23.8722C12.2031 27.3077 13.6548 30.4037 15.9775 32.5819L30.7333 47.3377C31.4915 46.5085 32.4165 45.8422 33.4549 45.3923C40.0307 42.5427 45.0436 36.768 46.8528 29.7093Z" fill="url(#paint5_linear_3992_13510)"/>
<path d="M24.1417 35.8108C30.7352 35.8108 36.0803 30.4657 36.0803 23.8722C36.0803 17.2787 30.7352 11.9336 24.1417 11.9336C17.5482 11.9336 12.2031 17.2787 12.2031 23.8722C12.2031 30.4657 17.5482 35.8108 24.1417 35.8108Z" fill="url(#paint6_linear_3992_13510)"/>
<defs>
<linearGradient id="paint0_linear_3992_13510" x1="23.6712" y1="50.9859" x2="26.3283" y2="62.1839" gradientUnits="userSpaceOnUse">
<stop stop-color="#FFDA45"/>
<stop offset="1" stop-color="#FFA425"/>
</linearGradient>
<linearGradient id="paint1_linear_3992_13510" x1="35.2494" y1="55.0993" x2="28.1748" y2="46.0729" gradientUnits="userSpaceOnUse">
<stop stop-color="#FFDA45" stop-opacity="0"/>
<stop offset="1" stop-color="#B53759"/>
</linearGradient>
<linearGradient id="paint2_linear_3992_13510" x1="9.99203" y1="9.72163" x2="56.7706" y2="56.5002" gradientUnits="userSpaceOnUse">
<stop stop-color="#FF7044"/>
<stop offset="1" stop-color="#F92814"/>
</linearGradient>
<linearGradient id="paint3_linear_3992_13510" x1="19.1138" y1="18.8573" x2="2.67523" y2="2.41878" gradientUnits="userSpaceOnUse">
<stop stop-color="#FF7044" stop-opacity="0"/>
<stop offset="1" stop-color="#FFA425"/>
</linearGradient>
<linearGradient id="paint4_linear_3992_13510" x1="33.0296" y1="32.7581" x2="3.63706" y2="3.36557" gradientUnits="userSpaceOnUse">
<stop stop-color="#FF7044"/>
<stop offset="1" stop-color="#F92814"/>
</linearGradient>
<linearGradient id="paint5_linear_3992_13510" x1="39.4735" y1="39.204" x2="26.4464" y2="26.1768" gradientUnits="userSpaceOnUse">
<stop stop-color="#F92814" stop-opacity="0"/>
<stop offset="1" stop-color="#C1272D"/>
</linearGradient>
<linearGradient id="paint6_linear_3992_13510" x1="21.2191" y1="19.4153" x2="28.2739" y2="30.1738" gradientUnits="userSpaceOnUse">
<stop stop-color="#F9F7FC"/>
<stop offset="1" stop-color="#F0DDFC"/>
</linearGradient>
</defs>
</svg>
