<svg width="42" height="40" viewBox="0 0 42 40" fill="none" xmlns="http://www.w3.org/2000/svg">
<circle cx="20.8436" cy="19.9842" r="19.9842" fill="#FFF7E1"/>
<g clip-path="url(#clip0_3566_22659)">
<g clip-path="url(#clip1_3566_22659)">
<path d="M21.0005 1.07031L22.7225 9.84204L21.0005 27.2527H8.43071C7.78435 27.2527 7.25977 26.7289 7.25977 26.0818V14.5792C7.25977 11.9102 9.17075 9.67834 11.6961 9.17952C11.8905 8.19124 12.3542 7.27166 13.0482 6.51913C13.7812 5.72288 14.721 5.16785 15.7538 4.90946C16.0605 3.94526 16.6266 3.08402 17.39 2.42003C18.3913 1.54937 19.6736 1.07001 21.0005 1.07031Z" fill="#B1705B"/>
<path d="M34.7407 14.5792V26.0818C34.7407 26.7289 34.2161 27.2527 33.5697 27.2527H21V1.07031C22.3269 1.07001 23.6091 1.54937 24.6104 2.42003C25.3739 3.08402 25.9399 3.94526 26.2466 4.90946C27.2794 5.16785 28.2193 5.72288 28.9523 6.51913C29.6463 7.27166 30.11 8.19124 30.3044 9.17952C32.8297 9.67834 34.7407 11.9102 34.7407 14.5792Z" fill="#885140"/>
<path d="M20.9997 19.4146L22.7217 24.7775L20.9997 32.4441H4.72347C4.38468 32.4441 4.06228 32.2973 3.8398 32.0421C3.40967 31.5471 3.56525 31.099 3.70475 30.103L5.54704 16.9251C5.55094 16.8931 5.55719 16.8603 5.56421 16.8283C5.75859 15.9712 6.42681 15.3342 7.25897 15.1656C7.4026 15.1359 7.55092 15.1211 7.70237 15.1211H15.5743C16.7148 15.1211 17.6429 16.0493 17.6429 17.1898V19.4146H20.9997Z" fill="#FFD298"/>
<path d="M37.2762 32.4441H21V19.4146H24.3567V17.1898C24.3567 16.0493 25.2849 15.1211 26.4254 15.1211H34.3238C34.4659 15.1211 34.6056 15.1344 34.7407 15.1601C35.5869 15.3209 36.2676 15.9642 36.4628 16.833C36.4698 16.865 36.4753 16.897 36.4799 16.929C38.4454 31.1768 38.2375 29.6689 38.4362 31.1131C38.5329 31.818 37.9863 32.4441 37.2762 32.4441Z" fill="#FFB555"/>
<path d="M20.9998 30.1035L22.3269 34.5328L20.9998 38.9621H3.2334C2.01015 38.9621 1.01562 37.9676 1.01562 36.7444V32.3213C1.01562 31.098 2.01015 30.1035 3.2334 30.1035H20.9998Z" fill="#FFB555"/>
<path d="M40.9842 32.3213V36.7444C40.9842 37.9676 39.9897 38.9621 38.7664 38.9621H21V30.1035H38.7664C39.9897 30.1035 40.9842 31.098 40.9842 32.3213Z" fill="#FF7C48"/>
<mask id="mask0_3566_22659" style="mask-type:luminance" maskUnits="userSpaceOnUse" x="12" y="11" width="18" height="18">
<path d="M12.2578 11.2731H29.7444V28.7598H12.2578V11.2731Z" fill="white"/>
</mask>
<g mask="url(#mask0_3566_22659)">
<path d="M27.3195 11.2725H13.7947C12.9473 11.2725 12.2578 11.9619 12.2578 12.8094V26.3342C12.2578 27.1816 12.9473 27.8711 13.7947 27.8711H23.9042C24.0401 27.8711 24.1704 27.8171 24.2664 27.721L28.7064 23.2811C28.754 23.2335 28.7917 23.177 28.8174 23.1149C28.8432 23.0527 28.8564 22.9861 28.8564 22.9188V12.8094C28.8564 11.9619 28.167 11.2725 27.3195 11.2725Z" fill="#696969"/>
<path d="M20.5571 11.2729H13.7947C12.9473 11.2729 12.2578 11.9624 12.2578 12.8099V19.5723H20.5571V11.2729Z" fill="#696969"/>
<path d="M28.856 19.5723V12.8099C28.856 11.9624 28.1665 11.2729 27.319 11.2729H20.5566V19.5723H28.856Z" fill="#555555"/>
<path d="M20.5566 19.5718V27.8711H23.9037C24.0396 27.8711 24.1699 27.8171 24.2659 27.721L28.7059 23.2811C28.7535 23.2335 28.7912 23.177 28.817 23.1149C28.8427 23.0527 28.856 22.9861 28.856 22.9188V19.5718H20.5566Z" fill="#414141"/>
<path d="M12.2578 19.5718V26.3342C12.2578 27.1816 12.9473 27.8711 13.7947 27.8711H20.5571V19.5718H12.2578Z" fill="#555555"/>
<path d="M17.6023 14.9109H16.9192V14.2278C16.9192 13.9449 16.6898 13.7155 16.4069 13.7155C16.124 13.7155 15.8946 13.9449 15.8946 14.2278V14.9109H15.2115C14.9286 14.9109 14.6992 15.1403 14.6992 15.4232C14.6992 15.7061 14.9286 15.9355 15.2115 15.9355H15.8946V16.6186C15.8946 16.9015 16.124 17.1309 16.4069 17.1309C16.6898 17.1309 16.9192 16.9015 16.9192 16.6186V15.9355H17.6023C17.8852 15.9355 18.1146 15.7061 18.1146 15.4232C18.1146 15.1403 17.8852 14.9109 17.6023 14.9109Z" fill="white"/>
<path d="M25.9031 15.9355H23.5123C23.2294 15.9355 23 15.7062 23 15.4232C23 15.1403 23.2294 14.9109 23.5123 14.9109H25.9031C26.186 14.9109 26.4154 15.1403 26.4154 15.4232C26.4154 15.7062 26.186 15.9355 25.9031 15.9355Z" fill="white"/>
<path d="M17.1317 23.7217L17.6233 23.2301C17.8233 23.0301 17.8233 22.7057 17.6233 22.5057C17.4232 22.3056 17.0988 22.3056 16.8988 22.5057L16.4072 22.9972L15.9156 22.5057C15.7155 22.3056 15.3911 22.3056 15.1911 22.5057C14.991 22.7057 14.991 23.0301 15.1911 23.2301L15.6827 23.7217L15.1911 24.2134C14.991 24.4134 14.991 24.7378 15.1911 24.9378C15.2386 24.9855 15.2951 25.0233 15.3572 25.049C15.4194 25.0748 15.486 25.088 15.5533 25.0879C15.6206 25.088 15.6873 25.0748 15.7494 25.049C15.8116 25.0233 15.8681 24.9855 15.9156 24.9378L16.4072 24.4462L16.8988 24.9378C16.9463 24.9855 17.0027 25.0233 17.0649 25.049C17.1271 25.0748 17.1937 25.088 17.261 25.0879C17.3283 25.088 17.3949 25.0748 17.4571 25.049C17.5193 25.0233 17.5758 24.9855 17.6233 24.9378C17.8233 24.7378 17.8233 24.4134 17.6233 24.2134L17.1317 23.7217Z" fill="white"/>
<path d="M24.4501 28.7598C21.531 28.7598 19.1562 26.385 19.1562 23.466C19.1562 20.547 21.531 18.1722 24.4501 18.1722C27.3691 18.1722 29.7439 20.547 29.7439 23.466C29.7439 26.385 27.3691 28.7598 24.4501 28.7598Z" fill="white"/>
<path d="M25.6452 25.002H23.2545C22.9716 25.002 22.7422 24.7726 22.7422 24.4896C22.7422 24.2067 22.9716 23.9773 23.2545 23.9773H25.6452C25.9282 23.9773 26.1575 24.2067 26.1575 24.4896C26.1575 24.7726 25.9282 25.002 25.6452 25.002Z" fill="#555555"/>
<path d="M25.6452 22.9531H23.2545C22.9716 22.9531 22.7422 22.7237 22.7422 22.4408C22.7422 22.1579 22.9716 21.9285 23.2545 21.9285H25.6452C25.9282 21.9285 26.1575 22.1579 26.1575 22.4408C26.1575 22.7237 25.9282 22.9531 25.6452 22.9531Z" fill="#555555"/>
</g>
</g>
</g>
<defs>
<clipPath id="clip0_3566_22659">
<rect width="39.9684" height="39.9684" fill="white" transform="translate(1.17188 0.03125)"/>
</clipPath>
<clipPath id="clip1_3566_22659">
<rect width="39.9684" height="39.9684" fill="white" transform="translate(1.01562 0.03125)"/>
</clipPath>
</defs>
</svg>
