<svg width="40" height="40" viewBox="0 0 40 40" fill="none" xmlns="http://www.w3.org/2000/svg">
<g clip-path="url(#clip0_3566_22487)">
<path d="M28.543 2.07812H34.425V10.9414H28.543V2.07812Z" fill="#EADFDA"/>
<path d="M28.543 2.07812H30.0418V10.9414H28.543V2.07812Z" fill="#C6BEB9"/>
<path d="M35.1056 16.0248V39.9991H4.89453V16.0248L5.61094 15.3036L7.18914 13.7133L16.3692 4.46461L20.0005 0.806641L23.6326 4.46539L34.3844 15.2979L35.1056 16.0248Z" fill="#EADFDA"/>
<path d="M7.18914 13.7148V40.0006H4.89453V16.0264L5.61094 15.3052L7.18914 13.7148Z" fill="#C6BEB9"/>
<path d="M35.1056 16.0251V20.414C28.6563 12.7395 20.0005 7.95719 20.0005 7.95719C20.0005 7.95719 11.3438 12.7395 4.89453 20.4148V16.0251L5.61094 15.3038L16.3692 4.46484C18.5605 3.18383 20.0005 2.57812 20.0005 2.57812C20.0005 2.57812 21.4414 3.18469 23.6327 4.4657L34.3845 15.2982L35.1056 16.0251Z" fill="#C6BEB9"/>
<path d="M20.0008 0C20.0008 0 32.4079 5.2207 39.7848 17.407L37.117 20.4391C30.6411 11.2579 20.0008 5.37914 20.0008 5.37914C20.0008 5.37914 9.36047 11.2579 2.88453 20.4391L0.216797 17.407C7.59367 5.2207 20.0008 0 20.0008 0Z" fill="#DA4A54"/>
<path d="M5.95117 35.8535H33.973V39.9995H5.95117V35.8535Z" fill="#8BC852"/>
<path d="M13.4746 17.6289H26.5278V34.0663H13.4746V17.6289Z" fill="#B9E4EF"/>
<path d="M12.8828 32.4023H26.5859V34.0617H12.8828V32.4023Z" fill="#DA4A54"/>
<path d="M6.11328 33.2344H33.8883V37.4243H6.11328V33.2344Z" fill="#934D36"/>
<path d="M27.1312 17.629C27.1312 17.4689 27.0676 17.3154 26.9544 17.2022C26.8412 17.089 26.6877 17.0254 26.5276 17.0254H13.4747C13.3146 17.0254 13.1611 17.089 13.0479 17.2022C12.9347 17.3154 12.8711 17.4689 12.8711 17.629V32.2945C12.8711 32.4545 12.9347 32.6081 13.0479 32.7213C13.1611 32.8345 13.3146 32.898 13.4747 32.898C13.6348 32.898 13.7883 32.8345 13.9015 32.7213C14.0147 32.6081 14.0783 32.4545 14.0783 32.2945V24.3567H19.3977V31.681C19.3977 31.8411 19.4612 31.9946 19.5744 32.1078C19.6876 32.221 19.8412 32.2846 20.0012 32.2846C20.1613 32.2846 20.3149 32.221 20.4281 32.1078C20.5413 31.9946 20.6048 31.8411 20.6048 31.681V24.3567H25.9239V32.2945C25.9239 32.4545 25.9875 32.6081 26.1007 32.7213C26.2139 32.8345 26.3674 32.898 26.5275 32.898C26.6876 32.898 26.8411 32.8345 26.9543 32.7213C27.0675 32.6081 27.1311 32.4545 27.1311 32.2945V17.629H27.1312ZM14.0783 23.1495V18.2327H19.3977V23.1495H14.0783ZM20.6048 23.1495V18.2327H25.9239V23.1495H20.6048Z" fill="#DA4A54"/>
<path d="M7.53766 31.5158L5.06664 29.9043L2.5957 31.5158V40.0006H7.53766V31.5158ZM15.0043 31.5158L12.5334 29.9043L10.0623 31.5158V40.0006H15.0043V31.5158ZM22.471 31.5158L20 29.9043L17.5291 31.5158V40.0006H22.471V31.5158ZM37.4043 31.5158L34.9334 29.9043L32.4623 31.5158V40.0006H37.4043V31.5158ZM29.9377 31.5158L27.4667 29.9043L24.9957 31.5158V40.0006H29.9377V31.5158Z" fill="#AA593D"/>
</g>
<defs>
<clipPath id="clip0_3566_22487">
<rect width="40" height="40" fill="white"/>
</clipPath>
</defs>
</svg>
