<svg width="40" height="41" viewBox="0 0 40 41" fill="none" xmlns="http://www.w3.org/2000/svg">
<g clip-path="url(#clip0_3566_22411)">
<path d="M37.4808 13.5153L34.1673 9.76142C33.5918 9.11006 32.5053 8.61857 31.6395 8.61857H28.5388V4.87154C28.5388 2.46095 26.5915 0.5 24.1977 0.5H15.5155C13.1217 0.5 11.1744 2.46095 11.1744 4.87154V8.61857H8.07366C7.20792 8.61857 6.12141 9.11006 5.54591 9.76142L2.23242 13.5153C1.68234 14.138 1.25195 15.2796 1.25195 16.1126V17.9862C1.25245 18.6434 1.42462 19.2889 1.75118 19.8579C2.07774 20.4269 2.54719 20.8994 3.11242 21.228V37.3458C3.11242 39.0676 4.50343 40.4684 6.21319 40.4684H33.5C35.2098 40.4684 36.6008 39.0676 36.6008 37.3458V21.228C37.166 20.8994 37.6355 20.4269 37.962 19.8579C38.2886 19.2889 38.4608 18.6434 38.4613 17.9862V16.1126C38.4613 15.2796 38.0309 14.138 37.4808 13.5153Z" fill="#FFDAAA"/>
<path d="M6.83203 39.8432C6.83203 40.0088 6.89737 40.1676 7.01367 40.2848C7.12997 40.4019 7.28771 40.4677 7.45219 40.4677H14.894C15.0585 40.4677 15.2163 40.4019 15.3326 40.2848C15.4489 40.1676 15.5142 40.0088 15.5142 39.8432V29.2266H6.83203V39.8432Z" fill="#A78966"/>
<path d="M37.4808 13.5153L34.1673 9.76142C33.5918 9.11006 32.5053 8.61857 31.6395 8.61857H28.5388V4.87154C28.5388 2.46095 26.5915 0.5 24.1977 0.5H15.5155C13.1217 0.5 11.1744 2.46095 11.1744 4.87154V8.61857H8.07366C7.20792 8.61857 6.12141 9.11006 5.54591 9.76142L2.23242 13.5153C1.68234 14.138 1.25195 15.2796 1.25195 16.1126V17.9862C1.25195 20.0526 2.92079 21.7332 4.97288 21.7332C5.89042 21.7356 6.77551 21.3915 7.4535 20.769C8.13071 21.3885 9.00327 21.7332 9.93412 21.7332C10.865 21.7332 11.7375 21.3885 12.4147 20.769C13.092 21.3885 13.9645 21.7332 14.8954 21.7332C15.8262 21.7332 16.6988 21.3885 17.376 20.769C18.0532 21.3885 18.9258 21.7332 19.8566 21.7332C20.7875 21.7332 21.66 21.3885 22.3372 20.769C23.0144 21.3885 23.887 21.7332 24.8178 21.7332C25.7487 21.7332 26.6213 21.3885 27.2985 20.769C27.9757 21.3885 28.8482 21.7332 29.7791 21.7332C30.7099 21.7332 31.5825 21.3885 32.2597 20.769C32.9377 21.3915 33.8228 21.7356 34.7403 21.7332C36.7924 21.7332 38.4613 20.0526 38.4613 17.9862V16.1126C38.4613 15.2796 38.0309 14.138 37.4808 13.5153Z" fill="#FFA733"/>
<path d="M24.1971 0.5H15.5149C13.1211 0.5 11.1738 2.46095 11.1738 4.87154V11.7411C11.1738 14.1517 13.1211 16.1126 15.5149 16.1126H24.1971C26.5909 16.1126 28.5382 14.1517 28.5382 11.7411V4.87154C28.5382 2.46095 26.5909 0.5 24.1971 0.5Z" fill="#FFDAAA"/>
<path d="M19.8576 7.36914C18.0493 7.36914 16.1367 9.61611 16.1367 11.7407C16.1367 12.5257 16.5522 13.1108 17.3063 13.3888C17.8229 13.5786 18.4307 13.6179 19.1848 13.6179L19.8576 13.6142L20.5305 13.6173C21.4428 13.6173 23.5786 13.6173 23.5786 11.7407C23.5786 9.61611 21.666 7.36914 19.8576 7.36914Z" fill="#6A563D"/>
<path d="M15.5167 8.61813C16.5442 8.61813 17.3772 7.77933 17.3772 6.74461C17.3772 5.7099 16.5442 4.87109 15.5167 4.87109C14.4892 4.87109 13.6562 5.7099 13.6562 6.74461C13.6562 7.77933 14.4892 8.61813 15.5167 8.61813Z" fill="#6A563D"/>
<path d="M19.8585 6.74508C20.886 6.74508 21.719 5.90628 21.719 4.87156C21.719 3.83685 20.886 2.99805 19.8585 2.99805C18.831 2.99805 17.998 3.83685 17.998 4.87156C17.998 5.90628 18.831 6.74508 19.8585 6.74508Z" fill="#6A563D"/>
<path d="M24.1984 8.61813C25.2259 8.61813 26.0588 7.77933 26.0588 6.74461C26.0588 5.7099 25.2259 4.87109 24.1984 4.87109C23.1708 4.87109 22.3379 5.7099 22.3379 6.74461C22.3379 7.77933 23.1708 8.61813 24.1984 8.61813Z" fill="#6A563D"/>
<path d="M31.6392 25.4805H20.4765C19.4507 25.4805 18.616 26.3211 18.616 27.354V28.603C18.616 28.7686 18.6813 28.9275 18.7976 29.0446C18.9139 29.1617 19.0717 29.2275 19.2361 29.2275H32.8796C33.044 29.2275 33.2018 29.1617 33.3181 29.0446C33.4344 28.9275 33.4997 28.7686 33.4997 28.603V27.354C33.4997 26.3211 32.665 25.4805 31.6392 25.4805ZM14.2749 25.4805H8.07336C7.04762 25.4805 6.21289 26.3211 6.21289 27.354V28.603C6.21289 28.7686 6.27823 28.9275 6.39453 29.0446C6.51083 29.1617 6.66857 29.2275 6.83305 29.2275H15.5152C15.6797 29.2275 15.8374 29.1617 15.9537 29.0446C16.07 28.9275 16.1354 28.7686 16.1354 28.603V27.354C16.1354 26.3211 15.3006 25.4805 14.2749 25.4805Z" fill="#FFA733"/>
<path d="M13.0343 34.8486H11.794C11.6295 34.8486 11.4718 34.7828 11.3555 34.6657C11.2392 34.5486 11.1738 34.3897 11.1738 34.2241C11.1738 34.0585 11.2392 33.8996 11.3555 33.7825C11.4718 33.6654 11.6295 33.5996 11.794 33.5996H13.0343C13.1988 33.5996 13.3565 33.6654 13.4728 33.7825C13.5891 33.8996 13.6544 34.0585 13.6544 34.2241C13.6544 34.3897 13.5891 34.5486 13.4728 34.6657C13.3565 34.7828 13.1988 34.8486 13.0343 34.8486Z" fill="#6A563D"/>
<path d="M19.2363 29.2266H32.8797V34.2226H19.2363V29.2266Z" fill="#806749"/>
<path d="M19.2363 36.0962C19.2363 36.2618 19.3017 36.4206 19.418 36.5378C19.5343 36.6549 19.692 36.7207 19.8565 36.7207H32.2596C32.4241 36.7207 32.5818 36.6549 32.6981 36.5378C32.8144 36.4206 32.8797 36.2618 32.8797 36.0962V34.2227H19.2363V36.0962Z" fill="#A78966"/>
</g>
<defs>
<clipPath id="clip0_3566_22411">
<rect width="39.6899" height="39.9684" fill="white" transform="translate(0.0117188 0.5)"/>
</clipPath>
</defs>
</svg>
