<svg width="24" height="25" viewBox="0 0 24 25" fill="none" xmlns="http://www.w3.org/2000/svg">
<g clip-path="url(#clip0_3379_90833)">
<path d="M12 0.199219C5.38323 0.199219 0 5.58245 0 12.1992C0 18.8155 5.38323 24.1992 12 24.1992C18.6163 24.1992 24 18.8155 24 12.1992C24 5.58245 18.6173 0.199219 12 0.199219ZM14.9843 12.6217H13.032V19.5802H10.139C10.139 19.5802 10.139 15.778 10.139 12.6217H8.76388V10.1623H10.139V8.57157C10.139 7.43228 10.6804 5.65205 13.0586 5.65205L15.2023 5.66027V8.0476C15.2023 8.0476 13.8996 8.0476 13.6463 8.0476C13.3931 8.0476 13.0329 8.17424 13.0329 8.71755V10.1628H15.2371L14.9843 12.6217Z" fill="#0B6614"/>
</g>
<defs>
<clipPath id="clip0_3379_90833">
<rect width="24" height="24" fill="white" transform="translate(0 0.199219)"/>
</clipPath>
</defs>
</svg>
