<svg width="24" height="25" viewBox="0 0 24 25" fill="none" xmlns="http://www.w3.org/2000/svg">
<rect y="0.199219" width="24" height="24" rx="12" fill="#0B6614"/>
<path d="M12.6844 5.53402C13.1709 5.53216 13.6574 5.53705 14.1437 5.54869L14.2731 5.55336C14.4224 5.55869 14.5697 5.56536 14.7477 5.57336C15.4571 5.60669 15.9411 5.71869 16.3657 5.88336C16.8057 6.05269 17.1764 6.28202 17.5471 6.65269C17.886 6.98576 18.1483 7.38865 18.3158 7.83336C18.4804 8.25802 18.5924 8.74269 18.6258 9.45202C18.6338 9.62936 18.6404 9.77736 18.6458 9.92669L18.6497 10.056C18.6616 10.5422 18.6667 11.0284 18.6651 11.5147L18.6658 12.012V12.8854C18.6674 13.3718 18.6623 13.8583 18.6504 14.3447L18.6464 14.474C18.6411 14.6234 18.6344 14.7707 18.6264 14.9487C18.5931 15.658 18.4798 16.142 18.3158 16.5667C18.1488 17.0119 17.8865 17.4151 17.5471 17.748C17.2137 18.0869 16.8106 18.3492 16.3657 18.5167C15.9411 18.6814 15.4571 18.7934 14.7477 18.8267C14.5697 18.8347 14.4224 18.8414 14.2731 18.8467L14.1437 18.8507C13.6574 18.8625 13.1709 18.8677 12.6844 18.866L12.1871 18.8667H11.3144C10.8279 18.8683 10.3414 18.8632 9.85508 18.8514L9.72575 18.8474C9.56749 18.8416 9.40926 18.835 9.25108 18.8274C8.54175 18.794 8.05775 18.6807 7.63242 18.5167C7.18754 18.3496 6.78457 18.0872 6.45175 17.748C6.11245 17.4149 5.8499 17.0117 5.68242 16.5667C5.51775 16.142 5.40575 15.658 5.37242 14.9487C5.36499 14.7905 5.35832 14.6323 5.35242 14.474L5.34908 14.3447C5.33679 13.8583 5.33124 13.3719 5.33242 12.8854V11.5147C5.33056 11.0284 5.33544 10.5422 5.34708 10.056L5.35175 9.92669C5.35708 9.77736 5.36375 9.62936 5.37175 9.45202C5.40508 8.74202 5.51708 8.25869 5.68175 7.83336C5.84933 7.38844 6.11239 6.98565 6.45242 6.65336C6.78501 6.31386 7.18772 6.05107 7.63242 5.88336C8.05775 5.71869 8.54108 5.60669 9.25108 5.57336L9.72575 5.55336L9.85508 5.55002C10.3412 5.53774 10.8275 5.53218 11.3137 5.53336L12.6844 5.53402ZM11.9991 8.86736C11.5574 8.86111 11.1189 8.94271 10.7091 9.1074C10.2992 9.2721 9.92618 9.51661 9.61165 9.82673C9.29711 10.1368 9.04735 10.5064 8.87687 10.9139C8.7064 11.3213 8.61861 11.7586 8.61861 12.2004C8.61861 12.6421 8.7064 13.0794 8.87687 13.4868C9.04735 13.8943 9.29711 14.2639 9.61165 14.574C9.92618 14.8841 10.2992 15.1286 10.7091 15.2933C11.1189 15.458 11.5574 15.5396 11.9991 15.5334C12.8831 15.5334 13.731 15.1822 14.3561 14.557C14.9812 13.9319 15.3324 13.0841 15.3324 12.2C15.3324 11.316 14.9812 10.4681 14.3561 9.843C13.731 9.21788 12.8831 8.86736 11.9991 8.86736ZM11.9991 10.2007C12.2648 10.1958 12.5287 10.2439 12.7756 10.3422C13.0225 10.4404 13.2473 10.5869 13.4369 10.7731C13.6266 10.9592 13.7772 11.1812 13.88 11.4263C13.9829 11.6713 14.0359 11.9343 14.0359 12.2C14.036 12.4657 13.9831 12.7288 13.8803 12.9738C13.7775 13.2189 13.627 13.441 13.4374 13.6272C13.2478 13.8134 13.0231 13.9599 12.7762 14.0583C12.5294 14.1566 12.2654 14.2048 11.9997 14.2C11.4693 14.2 10.9606 13.9893 10.5855 13.6142C10.2105 13.2392 9.99975 12.7305 9.99975 12.2C9.99975 11.6696 10.2105 11.1609 10.5855 10.7858C10.9606 10.4107 11.4693 10.2 11.9997 10.2L11.9991 10.2007ZM15.4991 7.86736C15.284 7.87596 15.0806 7.96746 14.9315 8.12267C14.7824 8.27788 14.6991 8.48478 14.6991 8.70002C14.6991 8.91527 14.7824 9.12216 14.9315 9.27738C15.0806 9.43259 15.284 9.52408 15.4991 9.53269C15.7201 9.53269 15.9321 9.44489 16.0883 9.28861C16.2446 9.13233 16.3324 8.92037 16.3324 8.69936C16.3324 8.47834 16.2446 8.26638 16.0883 8.1101C15.9321 7.95382 15.7201 7.86602 15.4991 7.86602V7.86736Z" fill="white"/>
</svg>
