<svg width="24" height="25" viewBox="0 0 24 25" fill="none" xmlns="http://www.w3.org/2000/svg">
<g clip-path="url(#clip0_3379_90815)">
<path d="M12 0.199219C9.62663 0.199219 7.30655 0.903006 5.33316 2.22158C3.35977 3.54016 1.8217 5.4143 0.913451 7.60702C0.00519938 9.79973 -0.232441 12.2125 0.230582 14.5403C0.693605 16.8681 1.83649 19.0063 3.51472 20.6845C5.19295 22.3627 7.33115 23.5056 9.65892 23.9686C11.9867 24.4317 14.3995 24.194 16.5922 23.2858C18.7849 22.3775 20.6591 20.8395 21.9776 18.8661C23.2962 16.8927 24 14.5726 24 12.1992C24 9.01662 22.7357 5.96437 20.4853 3.71394C18.2348 1.4635 15.1826 0.199219 12 0.199219V0.199219ZM8.51053 18.515H5.89264V10.0819H8.51053V18.515ZM7.20001 8.9308C6.89872 8.93204 6.60383 8.84394 6.35261 8.67762C6.10138 8.51131 5.90511 8.27424 5.78859 7.9964C5.67207 7.71855 5.64053 7.4124 5.69797 7.11664C5.75541 6.82088 5.89925 6.54879 6.11129 6.33475C6.32334 6.12072 6.59408 5.97436 6.8893 5.91416C7.18451 5.85397 7.49094 5.88265 7.76986 5.99657C8.04878 6.1105 8.28766 6.30455 8.45631 6.55422C8.62496 6.80388 8.71581 7.09794 8.71737 7.39922C8.71822 7.80322 8.55908 8.19112 8.27474 8.47813C7.9904 8.76513 7.604 8.92788 7.20001 8.9308ZM18.3158 18.515H15.6995V14.4097C15.6995 13.4308 15.6805 12.1755 14.3384 12.1755C12.9963 12.1755 12.7595 13.2397 12.7595 14.3387V18.515H10.1526V10.0819H12.6647V11.2313H12.7011C13.05 10.5682 13.9042 9.86869 15.1784 9.86869C17.8279 9.86869 18.3158 11.615 18.3158 13.8824V18.515Z" fill="#0B6614"/>
</g>
<defs>
<clipPath id="clip0_3379_90815">
<rect width="24" height="24" fill="white" transform="translate(0 0.199219)"/>
</clipPath>
</defs>
</svg>
