<svg width="18" height="22" viewBox="0 0 18 22" fill="none" xmlns="http://www.w3.org/2000/svg">
<path d="M15.859 7.72213C15.8175 7.27674 15.6109 6.86299 15.2797 6.56229C14.9485 6.26159 14.5168 6.0957 14.0695 6.09725H13.1076V4.232C13.1073 1.96737 11.2649 0.125 8.99877 0.125C6.73414 0.125 4.89177 1.96737 4.89177 4.232V6.09725H3.92952C3.4822 6.0957 3.0505 6.26159 2.71933 6.56229C2.38816 6.86299 2.18151 7.27674 2.14002 7.72213L0.961393 19.904C0.9374 20.1535 0.965765 20.4053 1.04467 20.6433C1.12358 20.8813 1.2513 21.1001 1.41964 21.2859C1.58839 21.4712 1.79393 21.6194 2.02315 21.7208C2.25237 21.8222 2.50023 21.8748 2.75089 21.875H15.2481C15.4988 21.8747 15.7467 21.8222 15.9759 21.7207C16.2052 21.6192 16.4107 21.4709 16.5794 21.2855C16.7478 21.0998 16.8756 20.8809 16.9545 20.643C17.0335 20.405 17.0619 20.1532 17.038 19.9036L15.859 7.72213ZM5.64177 4.232C5.64177 2.381 7.14777 0.875 9.00027 0.875C10.8516 0.875 12.3573 2.381 12.3573 4.232V6.09725H5.64177V4.232ZM16.024 20.7811C15.9258 20.8893 15.806 20.9758 15.6724 21.035C15.5388 21.0942 15.3943 21.1249 15.2481 21.125H2.75089C2.45577 21.125 2.17302 20.9998 1.97502 20.7815C1.77702 20.5632 1.67952 20.2696 1.70802 19.976L2.88702 7.79413C2.9111 7.53453 3.03151 7.29336 3.22453 7.11811C3.41755 6.94286 3.66919 6.84623 3.92989 6.84725H4.89214V9.95525H5.64214V6.84725H12.3576V9.95525H13.1076V6.84725H14.0695C14.3303 6.84622 14.582 6.94284 14.775 7.11808C14.9681 7.29333 15.0886 7.5345 15.1128 7.79413L16.2918 19.9756C16.3056 20.1211 16.2889 20.2679 16.2428 20.4066C16.1967 20.5453 16.1222 20.6728 16.024 20.7811Z" fill="#1D2432" stroke="#1D2432" stroke-width="0.2"/>
<path d="M6.49609 13.6113H11.5068V14.3613H6.49609V13.6113Z" fill="#1D2432" stroke="#1D2432" stroke-width="0.2"/>
</svg>
