<svg width="99" height="84" viewBox="0 0 99 84" fill="none" xmlns="http://www.w3.org/2000/svg">
<g filter="url(#filter0_d_3379_91114)">
<rect x="29.5723" y="20.3047" width="40.0001" height="40" rx="20" fill="white"/>
<rect x="29.5723" y="20.3047" width="40.0001" height="40" rx="20" stroke="#EBEBEB" stroke-width="0.714287"/>
<g clip-path="url(#clip0_3379_91114)">
<path d="M56.7143 33.875H42.4286C41.6407 33.875 41 34.5157 41 35.3036V45.3036C41 46.0915 41.6407 46.7321 42.4286 46.7321H56.7143C57.5022 46.7321 58.1429 46.0915 58.1429 45.3036V35.3036C58.1429 34.5157 57.5022 33.875 56.7143 33.875ZM42.4286 34.5893H56.7143C56.767 34.5893 56.8134 34.6085 56.8627 34.6193C55.6259 35.7512 51.5249 39.503 50.0898 40.796C49.9775 40.8972 49.7964 41.0178 49.5715 41.0178C49.3465 41.0178 49.1655 40.8972 49.0528 40.7957C47.6178 39.5028 43.5166 35.7509 42.28 34.6194C42.3294 34.6085 42.3759 34.5893 42.4286 34.5893ZM41.7143 45.3036V35.3036C41.7143 35.2336 41.7354 35.1701 41.7543 35.1062C42.7009 35.9726 45.5624 38.5903 47.4178 40.2776C45.5684 41.8662 42.7062 44.5799 41.752 45.4897C41.7352 45.429 41.7143 45.3696 41.7143 45.3036ZM56.7143 46.0179H42.4286C42.3715 46.0179 42.3208 45.998 42.2675 45.9853C43.2535 45.0453 46.134 42.3161 47.9509 40.7617C48.1585 40.9502 48.3664 41.1384 48.5747 41.3262C48.869 41.592 49.2136 41.7322 49.5714 41.7322C49.9293 41.7322 50.2739 41.5919 50.5679 41.3265C50.7762 41.1386 50.9843 40.9503 51.192 40.7617C53.009 42.3159 55.8891 45.045 56.8754 45.9853C56.8221 45.998 56.7714 46.0179 56.7143 46.0179ZM57.4286 45.3036C57.4286 45.3696 57.4077 45.429 57.3909 45.4897C56.4364 44.5794 53.5745 41.866 51.7251 40.2776C53.5806 38.5904 56.4417 35.9728 57.3886 35.1061C57.4075 35.1701 57.4286 35.2336 57.4286 35.3035V45.3036Z" fill="#1D2432"/>
</g>
</g>
<defs>
<filter id="filter0_d_3379_91114" x="0.643381" y="0.661528" width="97.8578" height="97.8578" filterUnits="userSpaceOnUse" color-interpolation-filters="sRGB">
<feFlood flood-opacity="0" result="BackgroundImageFix"/>
<feColorMatrix in="SourceAlpha" type="matrix" values="0 0 0 0 0 0 0 0 0 0 0 0 0 0 0 0 0 0 127 0" result="hardAlpha"/>
<feOffset dy="9.28572"/>
<feGaussianBlur stdDeviation="14.2857"/>
<feColorMatrix type="matrix" values="0 0 0 0 0.105977 0 0 0 0 0.0998438 0 0 0 0 0.3375 0 0 0 0.06 0"/>
<feBlend mode="normal" in2="BackgroundImageFix" result="effect1_dropShadow_3379_91114"/>
<feBlend mode="normal" in="SourceGraphic" in2="effect1_dropShadow_3379_91114" result="shape"/>
</filter>
<clipPath id="clip0_3379_91114">
<rect width="17.1429" height="17.1429" fill="white" transform="translate(41 31.7324)"/>
</clipPath>
</defs>
</svg>
