<svg width="99" height="84" viewBox="0 0 99 84" fill="none" xmlns="http://www.w3.org/2000/svg">
<g filter="url(#filter0_d_3379_91108)">
<rect x="29.7852" y="20.3047" width="40.0001" height="40" rx="20" fill="white"/>
<rect x="29.7852" y="20.3047" width="40.0001" height="40" rx="20" stroke="#EBEBEB" stroke-width="0.714287"/>
<g clip-path="url(#clip0_3379_91108)">
<path d="M44.0709 39.0167H47.7852C47.8609 39.0167 47.9336 38.9866 47.9872 38.9331C48.0408 38.8795 48.0709 38.8068 48.0709 38.731C48.0709 38.6553 48.0408 38.5826 47.9872 38.529C47.9336 38.4754 47.8609 38.4453 47.7852 38.4453H44.0709C43.9951 38.4453 43.9224 38.4754 43.8688 38.529C43.8153 38.5826 43.7852 38.6553 43.7852 38.731C43.7852 38.8068 43.8153 38.8795 43.8688 38.9331C43.9224 38.9866 43.9951 39.0167 44.0709 39.0167ZM51.4995 40.1596H44.0709C43.9951 40.1596 43.9224 40.1897 43.8688 40.2433C43.8153 40.2969 43.7852 40.3695 43.7852 40.4453C43.7852 40.5211 43.8153 40.5938 43.8688 40.6473C43.9224 40.7009 43.9951 40.731 44.0709 40.731H51.4995C51.5752 40.731 51.6479 40.7009 51.7015 40.6473C51.7551 40.5938 51.7852 40.5211 51.7852 40.4453C51.7852 40.3695 51.7551 40.2969 51.7015 40.2433C51.6479 40.1897 51.5752 40.1596 51.4995 40.1596ZM51.4995 41.8739H44.0709C43.9951 41.8739 43.9224 41.904 43.8688 41.9576C43.8153 42.0112 43.7852 42.0838 43.7852 42.1596C43.7852 42.2354 43.8153 42.308 43.8688 42.3616C43.9224 42.4152 43.9951 42.4453 44.0709 42.4453H51.4995C51.5752 42.4453 51.6479 42.4152 51.7015 42.3616C51.7551 42.308 51.7852 42.2354 51.7852 42.1596C51.7852 42.0838 51.7551 42.0112 51.7015 41.9576C51.6479 41.904 51.5752 41.8739 51.4995 41.8739Z" fill="#1D2432" stroke="#1D2432" stroke-width="0.0714287"/>
<path d="M56.664 32.4673L46.9091 32.4473C45.9749 32.4473 45.2149 33.2073 45.2149 34.1416V35.6056L42.9091 35.6104C41.9748 35.6104 41.2148 36.3704 41.2148 37.3047V43.345C41.2148 44.2793 41.9748 45.039 42.9091 45.039H44.6434V47.8961C44.6434 47.9538 44.6608 48.0101 44.6934 48.0577C44.726 48.1053 44.7723 48.1419 44.8261 48.1627C44.8799 48.1835 44.9387 48.1876 44.9948 48.1743C45.051 48.161 45.1018 48.1311 45.1406 48.0884L47.9131 45.0384L52.6634 45.019C53.5977 45.019 54.3577 44.259 54.3577 43.325V43.2927L55.8606 44.9458C55.8995 44.9882 55.9503 45.0179 56.0063 45.031C56.0624 45.0441 56.1211 45.04 56.1747 45.0192C56.2284 44.9984 56.2746 44.962 56.3072 44.9146C56.3399 44.8672 56.3575 44.8111 56.3577 44.7536V41.8964H56.6635C57.5977 41.8964 58.3577 41.1364 58.3577 40.2024V34.1616C58.3572 33.7125 58.1786 33.2819 57.8611 32.9643C57.5436 32.6467 57.1131 32.4679 56.664 32.4673ZM53.7863 43.3247C53.7859 43.6226 53.6673 43.9081 53.4566 44.1186C53.2458 44.329 52.9602 44.4473 52.6623 44.4473L47.7851 44.4673C47.7455 44.4674 47.7064 44.4758 47.6702 44.4919C47.634 44.508 47.6015 44.5314 47.5749 44.5607L45.2149 47.157V44.753C45.2149 44.6772 45.1848 44.6045 45.1312 44.551C45.0776 44.4974 45.0049 44.4673 44.9291 44.4673H42.9091C42.6115 44.467 42.3261 44.3486 42.1156 44.1382C41.9051 43.9277 41.7867 43.6424 41.7863 43.3447V37.3044C41.7867 37.0066 41.9052 36.7212 42.1158 36.5106C42.3264 36.3001 42.6119 36.1818 42.9097 36.1816L45.5006 36.1761H45.5011L52.6634 36.1613C52.9612 36.1616 53.2466 36.28 53.4571 36.4905C53.6676 36.701 53.786 36.9864 53.7863 37.2841V43.3247ZM57.7863 40.2018C57.7859 40.4995 57.6675 40.7848 57.457 40.9953C57.2465 41.2057 56.9611 41.3241 56.6635 41.3244H56.072C55.9962 41.3244 55.9236 41.3545 55.87 41.4081C55.8164 41.4617 55.7863 41.5343 55.7863 41.6101V44.0141L54.3577 42.4427V37.2844C54.3577 36.3501 53.5977 35.5901 52.6629 35.5901L45.7863 35.6041V34.1413C45.7866 33.8437 45.9049 33.5583 46.1153 33.3478C46.3257 33.1373 46.611 33.0189 46.9086 33.0184L56.6632 33.0384H56.6637C56.9614 33.0387 57.2469 33.1571 57.4574 33.3676C57.6679 33.5781 57.7863 33.8636 57.7866 34.1613L57.7863 40.2018Z" fill="#1D2432" stroke="#1D2432" stroke-width="0.0714287"/>
</g>
</g>
<defs>
<filter id="filter0_d_3379_91108" x="0.856272" y="0.661528" width="97.8578" height="97.8578" filterUnits="userSpaceOnUse" color-interpolation-filters="sRGB">
<feFlood flood-opacity="0" result="BackgroundImageFix"/>
<feColorMatrix in="SourceAlpha" type="matrix" values="0 0 0 0 0 0 0 0 0 0 0 0 0 0 0 0 0 0 127 0" result="hardAlpha"/>
<feOffset dy="9.28572"/>
<feGaussianBlur stdDeviation="14.2857"/>
<feColorMatrix type="matrix" values="0 0 0 0 0.105977 0 0 0 0 0.0998438 0 0 0 0 0.3375 0 0 0 0.06 0"/>
<feBlend mode="normal" in2="BackgroundImageFix" result="effect1_dropShadow_3379_91108"/>
<feBlend mode="normal" in="SourceGraphic" in2="effect1_dropShadow_3379_91108" result="shape"/>
</filter>
<clipPath id="clip0_3379_91108">
<rect width="17.1429" height="17.1429" fill="white" transform="translate(41.2148 31.7324)"/>
</clipPath>
</defs>
</svg>
