<svg width="24" height="25" viewBox="0 0 24 25" fill="none" xmlns="http://www.w3.org/2000/svg">
<g clip-path="url(#clip0_3379_90941)">
<path d="M13.4162 12.7802L5.29656 20.9009C4.9743 21.2232 4.45183 21.2232 4.12952 20.901L2.12059 18.892C1.79837 18.5698 1.79833 18.0473 2.12055 17.7251L7.64777 12.1967L4.40767 8.95661L2.12064 6.66957C1.79837 6.34731 1.79837 5.82484 2.12064 5.50257L4.12956 3.49365C4.45183 3.17139 4.9743 3.17139 5.29656 3.49365L10.7595 8.95661L13.4162 11.6132C13.7384 11.9355 13.7384 12.4579 13.4162 12.7802Z" fill="#A8D3D8"/>
<path d="M10.8223 9.0219L7.64642 12.1978L6.4325 10.9839L4.40764 8.95647L2.12061 6.66943C1.79834 6.34717 1.79834 5.8247 2.12061 5.50243L4.12939 3.49365C4.4517 3.17134 4.97431 3.17139 5.29653 3.49379L9.60842 7.80793L10.8223 9.0219Z" fill="#FE5E73"/>
<path d="M10.8211 9.02338L7.64516 12.1993L6.875 11.4279L10.0509 8.25195L10.8211 9.02338Z" fill="#CC2E43"/>
<path d="M21.881 12.7802L13.7615 20.9009C13.4392 21.2232 12.9167 21.2232 12.5944 20.901L10.5854 18.892C10.2632 18.5698 10.2632 18.0473 10.5854 17.7251L16.1126 12.1967L12.8725 8.95661L10.5855 6.66957C10.2632 6.34731 10.2632 5.82484 10.5855 5.50257L12.5944 3.49365C12.9167 3.17139 13.4391 3.17139 13.7614 3.49365L19.2244 8.95661L21.881 11.6132C22.2033 11.9355 22.2033 12.4579 21.881 12.7802Z" fill="#FE5E73"/>
<path d="M19.2872 9.0219L16.1113 12.1978L14.8973 10.9839L12.8725 8.95647L10.5854 6.66943C10.2632 6.34717 10.2632 5.8247 10.5854 5.50243L12.5942 3.49365C12.9165 3.17134 13.4392 3.17139 13.7614 3.49379L18.0733 7.80793L19.2872 9.0219Z" fill="#A8D3D8"/>
<path d="M19.2879 9.02338L16.112 12.1993L15.3418 11.4279L18.5177 8.25195L19.2879 9.02338ZM23.1578 23.101C23.0645 23.101 22.9751 23.138 22.9092 23.2039C22.8433 23.2699 22.8062 23.3593 22.8062 23.4525V23.8471C22.8062 24.0412 22.9636 24.1986 23.1578 24.1986C23.352 24.1986 23.5093 24.0412 23.5093 23.8471V23.4525C23.5093 23.3593 23.4723 23.2699 23.4064 23.2039C23.3404 23.138 23.251 23.101 23.1578 23.101ZM21.0825 23.101C20.9893 23.101 20.8999 23.138 20.8339 23.2039C20.768 23.2699 20.731 23.3593 20.731 23.4525V23.8471C20.731 24.0412 20.8883 24.1986 21.0825 24.1986C21.2767 24.1986 21.4341 24.0412 21.4341 23.8471V23.4525C21.4341 23.3593 21.3971 23.2699 21.3311 23.2039C21.2652 23.138 21.1758 23.101 21.0825 23.101ZM19.0073 23.101C18.914 23.101 18.8246 23.138 18.7587 23.2039C18.6928 23.2699 18.6557 23.3593 18.6557 23.4525V23.8471C18.6557 24.0412 18.8131 24.1986 19.0073 24.1986C19.2015 24.1986 19.3588 24.0412 19.3588 23.8471V23.4525C19.3588 23.3593 19.3218 23.2699 19.2559 23.2039C19.1899 23.138 19.1005 23.101 19.0073 23.101Z" fill="#DEECF1"/>
<path d="M4.99425 1.29494C5.08749 1.29494 5.17691 1.2579 5.24284 1.19197C5.30877 1.12604 5.34581 1.03662 5.34581 0.943375V0.548828C5.34581 0.455588 5.30877 0.366167 5.24284 0.300236C5.17691 0.234305 5.08749 0.197266 4.99425 0.197266C4.90101 0.197266 4.81159 0.234305 4.74566 0.300236C4.67973 0.366167 4.64269 0.455588 4.64269 0.548828V0.943375C4.64269 1.03662 4.67973 1.12604 4.74566 1.19197C4.81159 1.2579 4.90101 1.29494 4.99425 1.29494ZM2.919 1.29494C3.01224 1.29494 3.10166 1.2579 3.16759 1.19197C3.23352 1.12604 3.27056 1.03662 3.27056 0.943375V0.548828C3.27056 0.455588 3.23352 0.366167 3.16759 0.300236C3.10166 0.234305 3.01224 0.197266 2.919 0.197266C2.82576 0.197266 2.73634 0.234305 2.67041 0.300236C2.60448 0.366167 2.56744 0.455588 2.56744 0.548828V0.943375C2.56744 1.03662 2.60448 1.12604 2.67041 1.19197C2.73634 1.2579 2.82576 1.29494 2.919 1.29494ZM0.84375 0.197266C0.75051 0.197266 0.661089 0.234305 0.595158 0.300236C0.529227 0.366167 0.492188 0.455588 0.492188 0.548828V0.943375C0.492188 1.03662 0.529227 1.12604 0.595158 1.19197C0.661089 1.2579 0.75051 1.29494 0.84375 1.29494C0.93699 1.29494 1.02641 1.2579 1.09234 1.19197C1.15827 1.12604 1.19531 1.03662 1.19531 0.943375V0.548828C1.19531 0.455588 1.15827 0.366167 1.09234 0.300236C1.02641 0.234305 0.93699 0.197266 0.84375 0.197266Z" fill="#CC2E43"/>
</g>
<defs>
<clipPath id="clip0_3379_90941">
<rect width="24" height="24" fill="white" transform="translate(0 0.197266)"/>
</clipPath>
</defs>
</svg>
