<svg width="85" height="84" viewBox="0 0 85 84" fill="none" xmlns="http://www.w3.org/2000/svg">
<g filter="url(#filter0_d_3379_91103)">
<ellipse cx="36" cy="40.3047" rx="20" ry="20" fill="white"/>
<ellipse cx="36" cy="40.3047" rx="20" ry="20" stroke="#EBEBEB" stroke-width="0.714287"/>
</g>
<path d="M42.3445 42.4504V45.2575C42.3467 45.4639 42.3042 45.6683 42.2198 45.8566C42.1354 46.045 42.0112 46.2128 41.8558 46.3486C41.7003 46.4844 41.5173 46.5848 41.3193 46.6431C41.1213 46.7013 40.913 46.716 40.7088 46.6861C37.8781 46.3224 35.2488 45.0273 33.2352 43.0047C31.2217 40.9821 29.9383 38.347 29.5874 35.5146C29.5575 35.311 29.572 35.1034 29.6299 34.9059C29.6877 34.7084 29.7875 34.5258 29.9225 34.3704C30.0575 34.2151 30.2245 34.0908 30.4119 34.0059C30.5994 33.9211 30.803 33.8778 31.0088 33.8789H33.7731C33.9497 33.8779 34.1204 33.9422 34.2523 34.0596C34.3842 34.177 34.468 34.3391 34.4874 34.5146C34.5583 35.4508 34.8004 36.3659 35.2017 37.2146C35.2705 37.3754 35.2779 37.5558 35.2227 37.7216C35.1674 37.8875 35.0532 38.0273 34.9017 38.1146L34.2874 38.4646C34.1988 38.5133 34.1216 38.5803 34.0609 38.661C34.0001 38.7418 33.9572 38.8345 33.9349 38.933C33.9126 39.0316 33.9115 39.1338 33.9316 39.2328C33.9518 39.3318 33.9927 39.4255 34.0517 39.5075C34.7583 40.5426 35.6523 41.4366 36.6874 42.1432C36.7694 42.2022 36.8631 42.2431 36.9621 42.2632C37.0611 42.2834 37.1633 42.2823 37.2618 42.26C37.3604 42.2377 37.4531 42.1948 37.5339 42.134C37.6146 42.0732 37.6815 41.996 37.7302 41.9075L38.0802 41.2932C38.1728 41.1397 38.3196 41.0266 38.4916 40.9764C38.6636 40.9261 38.8482 40.9423 39.0088 41.0218C39.8575 41.4231 40.7727 41.6652 41.7088 41.7361C41.8843 41.7555 42.0464 41.8392 42.1638 41.9711C42.2812 42.1031 42.3456 42.2738 42.3445 42.4504Z" stroke="#1D2432" stroke-linecap="round" stroke-linejoin="round"/>
<defs>
<filter id="filter0_d_3379_91103" x="-12.9289" y="0.661528" width="97.8578" height="97.8578" filterUnits="userSpaceOnUse" color-interpolation-filters="sRGB">
<feFlood flood-opacity="0" result="BackgroundImageFix"/>
<feColorMatrix in="SourceAlpha" type="matrix" values="0 0 0 0 0 0 0 0 0 0 0 0 0 0 0 0 0 0 127 0" result="hardAlpha"/>
<feOffset dy="9.28572"/>
<feGaussianBlur stdDeviation="14.2857"/>
<feColorMatrix type="matrix" values="0 0 0 0 0.105977 0 0 0 0 0.0998438 0 0 0 0 0.3375 0 0 0 0.06 0"/>
<feBlend mode="normal" in2="BackgroundImageFix" result="effect1_dropShadow_3379_91103"/>
<feBlend mode="normal" in="SourceGraphic" in2="effect1_dropShadow_3379_91103" result="shape"/>
</filter>
</defs>
</svg>
