<svg width="24" height="25" viewBox="0 0 24 25" fill="none" xmlns="http://www.w3.org/2000/svg">
<rect y="0.199219" width="24" height="24" rx="12" fill="#0B6614"/>
<g clip-path="url(#clip0_3379_90823)">
<path fill-rule="evenodd" clip-rule="evenodd" d="M13.334 6.19922C13.5108 6.19922 13.6804 6.26946 13.8054 6.39448C13.9304 6.51951 14.0007 6.68907 14.0007 6.86589C14.001 7.4805 14.2135 8.07616 14.6022 8.55228C14.9908 9.0284 15.5319 9.3558 16.134 9.47922C16.3073 9.51458 16.4594 9.61733 16.5569 9.76486C16.6544 9.91238 16.6893 10.0926 16.654 10.2659C16.6186 10.4392 16.5159 10.5913 16.3683 10.6888C16.2208 10.7863 16.0406 10.8212 15.8673 10.7859C15.1726 10.6439 14.5283 10.3195 14.0007 9.84589V15.5326C14.0007 16.1918 13.8052 16.8363 13.4389 17.3845C13.0726 17.9326 12.552 18.3599 11.9429 18.6122C11.3338 18.8644 10.6636 18.9305 10.017 18.8018C9.37041 18.6732 8.77647 18.3558 8.3103 17.8896C7.84412 17.4234 7.52665 16.8295 7.39803 16.1829C7.26942 15.5363 7.33543 14.866 7.58772 14.2569C7.84001 13.6479 8.26725 13.1273 8.81542 12.761C9.36358 12.3947 10.008 12.1992 10.6673 12.1992C10.8441 12.1992 11.0137 12.2695 11.1387 12.3945C11.2637 12.5195 11.334 12.6891 11.334 12.8659C11.334 13.0427 11.2637 13.2123 11.1387 13.3373C11.0137 13.4623 10.8441 13.5326 10.6673 13.5326C10.2718 13.5326 9.88508 13.6499 9.55618 13.8696C9.22728 14.0894 8.97094 14.4017 8.81956 14.7672C8.66818 15.1326 8.62858 15.5348 8.70575 15.9227C8.78292 16.3107 8.9734 16.6671 9.25311 16.9468C9.53281 17.2265 9.88918 17.417 10.2771 17.4941C10.6651 17.5713 11.0672 17.5317 11.4327 17.3803C11.7981 17.2289 12.1105 16.9726 12.3303 16.6437C12.55 16.3148 12.6673 15.9281 12.6673 15.5326V6.86589C12.6673 6.68907 12.7376 6.51951 12.8626 6.39448C12.9876 6.26946 13.1572 6.19922 13.334 6.19922Z" fill="white"/>
</g>
<defs>
<clipPath id="clip0_3379_90823">
<rect width="16" height="16" fill="white" transform="translate(4 4.19922)"/>
</clipPath>
</defs>
</svg>
