<svg width="24" height="25" viewBox="0 0 24 25" fill="none" xmlns="http://www.w3.org/2000/svg">
<g clip-path="url(#clip0_3379_91093)">
<path d="M21.3682 21.9543C17.6957 24.9522 6.22879 24.9522 2.6313 21.9543C-1.04112 18.9564 -0.666388 6.14038 2.6313 2.76775C5.929 -0.604876 18.0705 -0.604876 21.3682 2.76775C24.6658 6.14038 25.0406 18.9564 21.3682 21.9543Z" fill="#52CE06"/>
<g opacity="0.2">
<path d="M12.0755 16.7084C8.77777 19.3316 5.10535 20.6806 1.65778 20.7555C-0.890451 16.4086 -0.365797 5.84104 2.6321 2.7682C5.3302 -0.00483613 13.7992 -0.529491 18.6709 1.19429C19.87 6.14083 17.3967 12.4364 12.0755 16.7084Z" fill="white"/>
</g>
<path d="M10.2754 18.8827C9.75076 18.8827 9.22616 18.6578 8.92637 18.2082L4.72934 12.812C4.12975 12.0625 4.27967 11.0133 5.02914 10.4137C5.7786 9.81407 6.82785 9.964 7.42744 10.7135L10.2754 14.3859L16.571 6.21664C17.1706 5.46717 18.2199 5.31725 18.9693 5.91684C19.7188 6.51643 19.8687 7.56569 19.2691 8.31515L11.6245 18.2082C11.2497 18.5829 10.8001 18.8827 10.2754 18.8827Z" fill="white"/>
</g>
<defs>
<clipPath id="clip0_3379_91093">
<rect width="24" height="24" fill="white" transform="translate(0 0.203125)"/>
</clipPath>
</defs>
</svg>
