<svg width="24" height="25" viewBox="0 0 24 25" fill="none" xmlns="http://www.w3.org/2000/svg">
<g clip-path="url(#clip0_3379_90831)">
<path d="M13.9241 11.9993L11.2289 10.7417C10.9937 10.6325 10.8005 10.7549 10.8005 11.0153V13.3841C10.8005 13.6445 10.9937 13.7669 11.2289 13.6577L13.9229 12.4001C14.1593 12.2897 14.1593 12.1097 13.9241 11.9993ZM12.0005 0.679688C5.63807 0.679688 0.480469 5.83729 0.480469 12.1997C0.480469 18.5621 5.63807 23.7197 12.0005 23.7197C18.3629 23.7197 23.5205 18.5621 23.5205 12.1997C23.5205 5.83729 18.3629 0.679688 12.0005 0.679688ZM12.0005 16.8797C6.10367 16.8797 6.00047 16.3481 6.00047 12.1997C6.00047 8.05129 6.10367 7.51969 12.0005 7.51969C17.8973 7.51969 18.0005 8.05129 18.0005 12.1997C18.0005 16.3481 17.8973 16.8797 12.0005 16.8797Z" fill="#0B6614"/>
</g>
<defs>
<clipPath id="clip0_3379_90831">
<rect width="24" height="24" fill="white" transform="translate(0 0.199219)"/>
</clipPath>
</defs>
</svg>
