<svg width="40" height="40" viewBox="0 0 40 40" fill="none" xmlns="http://www.w3.org/2000/svg">
<path d="M33.5479 30.6632H6.45117V27.1578C6.45117 19.6752 12.517 13.6094 19.9996 13.6094C27.4821 13.6094 33.5479 19.6752 33.5479 27.1578V30.6632Z" fill="#FF8C22"/>
<path d="M19.9998 15.9368C24.4125 15.9368 27.9898 12.3692 27.9898 7.96839C27.9898 3.56757 24.4125 0 19.9998 0C15.587 0 12.0098 3.56757 12.0098 7.96839C12.0098 12.3692 15.587 15.9368 19.9998 15.9368Z" fill="#F5DCB4"/>
<path d="M29.0795 29.3554H27.6473C27.4521 28.399 27.0615 27.4735 26.4757 26.6712L27.5173 25.7148C27.7776 25.468 27.7776 25.0977 27.5499 24.8509L26.2805 23.6477C26.1588 23.5318 25.9987 23.4646 25.8307 23.4589C25.6628 23.4532 25.4985 23.5094 25.3692 23.6167L24.3276 24.5732C23.5141 24.0486 22.5699 23.6477 21.5286 23.4625V22.1051C21.5286 21.7657 21.2357 21.457 20.8776 21.457H19.1199C18.7944 21.488 18.4689 21.7348 18.4689 22.0741L18.5015 23.4935C17.4924 23.6786 16.516 24.049 15.6699 24.6041L14.6608 23.6167C14.5391 23.5008 14.379 23.4337 14.2111 23.428C14.0431 23.4222 13.8789 23.4784 13.7495 23.5857L12.5128 24.758C12.2524 25.0048 12.2524 25.3751 12.4802 25.6219L13.4892 26.6093C12.936 27.3806 12.5128 28.2754 12.3176 29.2625H10.8853C10.5599 29.2935 10.2344 29.5403 10.2344 29.8796V31.5457C10.267 31.8541 10.5273 32.1628 10.8853 32.1628H12.3176C12.5128 33.1193 12.9034 34.0448 13.4892 34.847L12.4476 35.8035C12.1873 36.0503 12.1873 36.4206 12.415 36.6674L13.6518 37.8396C13.7735 37.9555 13.9336 38.0227 14.1016 38.0284C14.2695 38.0341 14.4338 37.9779 14.5631 37.8706L15.6047 36.9141C16.4182 37.4386 17.3624 37.8396 18.4037 38.0248V39.3822C18.4363 39.6906 18.6966 39.9993 19.0547 39.9993H20.8124C21.1379 39.9683 21.4634 39.7215 21.4634 39.3822V38.0248C22.4724 37.8396 23.4489 37.4693 24.295 36.9141L25.3041 37.9015C25.4258 38.0174 25.5858 38.0846 25.7538 38.0903C25.9218 38.096 26.086 38.0399 26.2153 37.9325L27.4521 36.7603C27.7124 36.5135 27.7124 36.1432 27.4847 35.8964L26.5082 34.909C27.0615 34.1377 27.4847 33.2428 27.6799 32.2557H29.1121C29.4376 32.2248 29.7631 31.978 29.7631 31.6386V29.9725C29.7631 29.6022 29.4702 29.3554 29.0795 29.3554Z" fill="#666666"/>
<path d="M19.9996 34.4724C22.1719 34.4724 23.9329 32.8031 23.9329 30.744C23.9329 28.6849 22.1719 27.0156 19.9996 27.0156C17.8274 27.0156 16.0664 28.6849 16.0664 30.744C16.0664 32.8031 17.8274 34.4724 19.9996 34.4724Z" fill="#E6E6E6"/>
</svg>
