<svg width="40" height="40" viewBox="0 0 40 40" fill="none" xmlns="http://www.w3.org/2000/svg">
<g clip-path="url(#clip0_3566_22728)">
<path d="M29.0039 3.16804C29.0039 1.42264 30.4188 0.0078125 32.1641 0.0078125H7.56589C6.17793 0.0078125 5.05273 1.13301 5.05273 2.52097V31.1395H29.0038L29.0039 3.16804Z" fill="#FFE07D"/>
<path d="M30.2556 0.0078125C28.5102 0.0078125 27.0953 1.42272 27.0953 3.16804V15.7005C27.0953 16.4378 26.611 17.0938 25.9013 17.2939C20.6679 18.7696 16.832 23.5786 16.832 29.2841C16.832 30.784 17.0973 32.2221 17.5832 33.5539H29.0033V3.16804C29.0033 1.42264 30.4182 0.0078125 32.1635 0.0078125H30.2556Z" fill="#FFD064"/>
<path d="M25.1848 5.45924H9.35169C9.01831 5.45924 8.74805 5.18906 8.74805 4.8556C8.74805 4.52214 9.01823 4.25195 9.35169 4.25195H25.1848C25.5182 4.25195 25.7884 4.52214 25.7884 4.8556C25.7884 5.18906 25.5182 5.45924 25.1848 5.45924ZM25.1848 11.4784H9.35169C9.01831 11.4784 8.74805 11.2082 8.74805 10.8747C8.74805 10.5412 9.01823 10.2711 9.35169 10.2711H25.1848C25.5182 10.2711 25.7884 10.5412 25.7884 10.8747C25.7884 11.2082 25.5182 11.4784 25.1848 11.4784ZM25.1848 17.4976H9.35169C9.27242 17.4976 9.19392 17.482 9.12068 17.4517C9.04743 17.4214 8.98088 17.3769 8.92483 17.3208C8.86877 17.2648 8.82431 17.1982 8.79398 17.125C8.76364 17.0517 8.74804 16.9732 8.74805 16.894C8.74804 16.8147 8.76364 16.7362 8.79398 16.663C8.82431 16.5897 8.86877 16.5232 8.92483 16.4671C8.98088 16.4111 9.04743 16.3666 9.12068 16.3363C9.19392 16.3059 9.27242 16.2903 9.35169 16.2903H25.1848C25.5182 16.2903 25.7884 16.5605 25.7884 16.894C25.7884 17.2274 25.5182 17.4976 25.1848 17.4976ZM25.1848 23.5168H9.35169C9.01831 23.5168 8.74805 23.2466 8.74805 22.9132C8.74805 22.5797 9.01823 22.3095 9.35169 22.3095H25.1848C25.5182 22.3095 25.7884 22.5797 25.7884 22.9132C25.7884 23.2466 25.5182 23.5168 25.1848 23.5168Z" fill="#2B4D66"/>
<path d="M26.1167 33.5541H4.46805C2.00043 33.5541 0 31.5537 0 29.086V28.2947C2.07087e-05 28.1943 0.0399243 28.098 0.110937 28.027C0.181949 27.9559 0.278257 27.916 0.378684 27.916H26.1167V33.5541Z" fill="#EAB14D"/>
<path d="M16.832 29.2843C16.832 30.7843 17.0973 32.2223 17.5832 33.5541H26.1159V27.916H16.9072C16.8573 28.3704 16.8322 28.8272 16.832 29.2843Z" fill="#E49542"/>
<path d="M29.2899 39.9938C35.2047 39.9938 39.9996 35.1988 39.9996 29.284C39.9996 23.3691 35.2047 18.5742 29.2899 18.5742C23.375 18.5742 18.5801 23.3691 18.5801 29.284C18.5801 35.1988 23.375 39.9938 29.2899 39.9938Z" fill="#DD636E"/>
<path d="M29.2909 18.5742C29.0069 18.5742 28.7257 18.5855 28.4473 18.6072C33.9678 19.0373 38.3134 23.6531 38.3134 29.284C38.3134 34.9149 33.9677 39.5307 28.4473 39.9608C28.7257 39.9825 29.0069 39.9938 29.2909 39.9938C35.2057 39.9938 40.0006 35.1988 40.0006 29.284C40.0006 23.3692 35.2057 18.5742 29.2909 18.5742Z" fill="#DA4A54"/>
<path d="M29.2891 37.2715C33.7009 37.2715 37.2774 33.695 37.2774 29.2832C37.2774 24.8714 33.7009 21.2949 29.2891 21.2949C24.8773 21.2949 21.3008 24.8714 21.3008 29.2832C21.3008 33.695 24.8773 37.2715 29.2891 37.2715Z" fill="#F4FBFF"/>
<path d="M29.2902 21.2949C28.92 21.2949 28.556 21.3207 28.1992 21.3694C32.0949 21.9015 35.0965 25.2415 35.0965 29.2832C35.0965 33.3249 32.0948 36.665 28.1992 37.1971C28.556 37.2458 28.92 37.2715 29.2902 37.2715C33.702 37.2715 37.2785 33.695 37.2785 29.2831C37.2785 24.8714 33.702 21.2949 29.2902 21.2949Z" fill="#DAF1F4"/>
<path d="M29.2909 24.3588C29.2116 24.3588 29.1331 24.3432 29.0599 24.3129C28.9867 24.2825 28.9201 24.2381 28.8641 24.182C28.808 24.126 28.7635 24.0594 28.7332 23.9862C28.7029 23.9129 28.6873 23.8344 28.6873 23.7552V23.4786C28.6873 23.3994 28.7029 23.3209 28.7332 23.2476C28.7635 23.1744 28.808 23.1078 28.8641 23.0518C28.9201 22.9957 28.9867 22.9513 29.0599 22.9209C29.1331 22.8906 29.2116 22.875 29.2909 22.875C29.3702 22.875 29.4487 22.8906 29.5219 22.9209C29.5952 22.9513 29.6617 22.9957 29.7178 23.0518C29.7738 23.1078 29.8183 23.1744 29.8486 23.2476C29.879 23.3209 29.8946 23.3994 29.8946 23.4786V23.7552C29.8946 23.8344 29.879 23.9129 29.8486 23.9862C29.8183 24.0594 29.7738 24.126 29.7178 24.182C29.6617 24.2381 29.5952 24.2825 29.5219 24.3129C29.4487 24.3432 29.3702 24.3588 29.2909 24.3588ZM33.2011 25.9784C33.0817 25.9785 32.965 25.9431 32.8657 25.8767C32.7664 25.8104 32.689 25.7161 32.6433 25.6058C32.5977 25.4955 32.5857 25.3741 32.609 25.257C32.6324 25.1399 32.6899 25.0323 32.7744 24.9479L32.9699 24.7525C33.026 24.6965 33.0925 24.652 33.1657 24.6217C33.239 24.5914 33.3175 24.5758 33.3967 24.5758C33.476 24.5758 33.5545 24.5915 33.6277 24.6218C33.7009 24.6522 33.7675 24.6967 33.8235 24.7527C33.8795 24.8088 33.924 24.8753 33.9543 24.9486C33.9846 25.0218 34.0002 25.1003 34.0002 25.1796C34.0001 25.2588 33.9845 25.3373 33.9542 25.4105C33.9238 25.4838 33.8793 25.5503 33.8233 25.6063L33.6277 25.8018C33.5718 25.8579 33.5053 25.9024 33.4321 25.9327C33.3588 25.963 33.2803 25.9786 33.2011 25.9784ZM35.0973 29.8886H34.8207C34.4874 29.8886 34.2171 29.6184 34.2171 29.285C34.2171 28.9515 34.4873 28.6813 34.8207 28.6813H35.0973C35.4306 28.6813 35.7009 28.9515 35.7009 29.285C35.7009 29.6184 35.4306 29.8886 35.0973 29.8886ZM23.761 29.8886H23.4845C23.1511 29.8886 22.8809 29.6184 22.8809 29.285C22.8809 28.9515 23.151 28.6813 23.4845 28.6813H23.761C24.0944 28.6813 24.3647 28.9515 24.3647 29.285C24.3647 29.6184 24.0945 29.8886 23.761 29.8886ZM33.3967 33.9944C33.3174 33.9945 33.2389 33.9789 33.1657 33.9486C33.0925 33.9183 33.026 33.8738 32.97 33.8177L32.7745 33.6223C32.7184 33.5662 32.6739 33.4997 32.6436 33.4265C32.6132 33.3533 32.5976 33.2748 32.5975 33.1955C32.5975 33.1163 32.6131 33.0378 32.6434 32.9645C32.6737 32.8913 32.7182 32.8247 32.7742 32.7687C32.8302 32.7126 32.8967 32.6681 32.97 32.6377C33.0432 32.6073 33.1217 32.5917 33.201 32.5916C33.2802 32.5916 33.3588 32.6072 33.432 32.6376C33.5052 32.6679 33.5718 32.7124 33.6278 32.7684L33.8233 32.9639C33.9078 33.0483 33.9653 33.1558 33.9887 33.2729C34.012 33.39 34.0001 33.5114 33.9544 33.6217C33.9087 33.732 33.8313 33.8263 33.7321 33.8927C33.6328 33.959 33.5161 33.9944 33.3967 33.9944ZM29.2909 35.695C29.2116 35.695 29.1331 35.6794 29.0599 35.6491C28.9867 35.6188 28.9201 35.5743 28.8641 35.5183C28.808 35.4622 28.7635 35.3957 28.7332 35.3224C28.7029 35.2492 28.6873 35.1707 28.6873 35.0914V34.8149C28.6873 34.7356 28.7029 34.6571 28.7332 34.5839C28.7635 34.5106 28.808 34.4441 28.8641 34.388C28.9201 34.332 28.9867 34.2875 29.0599 34.2572C29.1331 34.2268 29.2116 34.2112 29.2909 34.2112C29.3702 34.2112 29.4487 34.2268 29.5219 34.2572C29.5952 34.2875 29.6617 34.332 29.7178 34.388C29.7738 34.4441 29.8183 34.5106 29.8486 34.5839C29.879 34.6571 29.8946 34.7356 29.8946 34.8149V35.0914C29.8946 35.1707 29.879 35.2492 29.8486 35.3224C29.8183 35.3957 29.7738 35.4622 29.7178 35.5183C29.6617 35.5743 29.5952 35.6188 29.5219 35.6491C29.4487 35.6794 29.3702 35.695 29.2909 35.695ZM25.1852 33.9944C25.0658 33.9944 24.9491 33.959 24.8499 33.8927C24.7506 33.8263 24.6732 33.7321 24.6275 33.6218C24.5819 33.5115 24.5699 33.3901 24.5932 33.273C24.6165 33.1559 24.6739 33.0484 24.7583 32.964L24.9538 32.7685C25.0098 32.7122 25.0763 32.6675 25.1496 32.637C25.2229 32.6064 25.3016 32.5906 25.381 32.5905C25.4604 32.5904 25.539 32.606 25.6124 32.6363C25.6858 32.6666 25.7525 32.7112 25.8087 32.7673C25.8648 32.8235 25.9093 32.8902 25.9397 32.9636C25.97 33.0369 25.9856 33.1156 25.9855 33.195C25.9853 33.2744 25.9696 33.353 25.939 33.4263C25.9085 33.4996 25.8638 33.5662 25.8075 33.6222L25.612 33.8176C25.556 33.8737 25.4895 33.9182 25.4163 33.9486C25.343 33.9789 25.2645 33.9945 25.1852 33.9944ZM25.3807 25.9784C25.3014 25.9785 25.2229 25.9629 25.1496 25.9326C25.0763 25.9023 25.0098 25.8578 24.9538 25.8017L24.7583 25.6062C24.702 25.5502 24.6573 25.4837 24.6268 25.4104C24.5962 25.3371 24.5805 25.2585 24.5804 25.1791C24.5802 25.0996 24.5958 25.021 24.6261 24.9476C24.6565 24.8742 24.701 24.8075 24.7572 24.7514C24.8133 24.6952 24.88 24.6507 24.9534 24.6204C25.0268 24.59 25.1054 24.5745 25.1848 24.5746C25.2643 24.5747 25.3429 24.5905 25.4162 24.621C25.4895 24.6515 25.556 24.6963 25.612 24.7526L25.8075 24.948C25.8919 25.0324 25.9493 25.14 25.9726 25.2571C25.9959 25.3741 25.984 25.4955 25.9383 25.6058C25.8926 25.7161 25.8152 25.8104 25.716 25.8767C25.6167 25.943 25.5 25.9784 25.3807 25.9784Z" fill="#365E7D"/>
<path d="M30.9364 29.8873H29.2911C29.2119 29.8873 29.1334 29.8717 29.0601 29.8414C28.9869 29.811 28.9203 29.7666 28.8643 29.7105C28.8082 29.6544 28.7638 29.5879 28.7334 29.5147C28.7031 29.4414 28.6875 29.3629 28.6875 29.2836V26.0978C28.6875 26.0185 28.7031 25.94 28.7334 25.8668C28.7638 25.7935 28.8082 25.727 28.8643 25.6709C28.9203 25.6149 28.9869 25.5704 29.0601 25.5401C29.1334 25.5097 29.2119 25.4941 29.2911 25.4941C29.3704 25.4941 29.4489 25.5097 29.5222 25.5401C29.5954 25.5704 29.662 25.6149 29.718 25.6709C29.7741 25.727 29.8185 25.7935 29.8489 25.8668C29.8792 25.94 29.8948 26.0185 29.8948 26.0978V28.68H30.9364C31.2698 28.68 31.54 28.9502 31.54 29.2836C31.54 29.6171 31.2699 29.8873 30.9364 29.8873Z" fill="#2B4D66"/>
<path d="M34.7619 7.938H29.0039V3.16804C29.0039 1.42264 30.4188 0.0078125 32.1641 0.0078125C33.9095 0.0078125 35.3244 1.42272 35.3244 3.16804V7.37544C35.3244 7.44931 35.3099 7.52247 35.2816 7.59073C35.2533 7.65898 35.2119 7.721 35.1597 7.77324C35.1074 7.82549 35.0454 7.86692 34.9772 7.89519C34.9089 7.92346 34.8358 7.93801 34.7619 7.938Z" fill="#EAB14D"/>
<path d="M33.1936 0.180283C32.8624 0.0660034 32.5145 0.00771515 32.1641 0.00781262C30.4188 0.00781262 29.0039 1.42272 29.0039 3.16804V7.938H31.0629V3.16804C31.0628 1.78329 31.9539 0.607396 33.1936 0.180283Z" fill="#E49542"/>
</g>
<defs>
<clipPath id="clip0_3566_22728">
<rect width="40" height="40" fill="white"/>
</clipPath>
</defs>
</svg>
