<svg width="40" height="40" viewBox="0 0 40 40" fill="none" xmlns="http://www.w3.org/2000/svg">
<g clip-path="url(#clip0_3566_22747)">
<path d="M16.3667 24.5014L14.8092 24.9777C14.6023 25.0409 14.3798 25.0306 14.1796 24.9485C13.9794 24.8664 13.8138 24.7176 13.7108 24.5273L9.82422 17.3517L13.2111 16.3164L16.917 23.1583C16.9832 23.2804 17.0214 23.4157 17.0289 23.5544C17.0363 23.6931 17.0129 23.8317 16.9602 23.9603C16.9076 24.0888 16.827 24.204 16.7244 24.2976C16.6217 24.3912 16.4996 24.4608 16.3667 24.5014Z" fill="#C2185B"/>
<path d="M20.4994 0.69235C20.2555 0.764763 20.0282 0.884521 19.8305 1.04478C19.6329 1.20505 19.4687 1.40267 19.3475 1.62638C19.2262 1.85009 19.1502 2.09549 19.1238 2.34858C19.0973 2.60167 19.121 2.85748 19.1935 3.10141L23.7329 17.9536C23.8909 18.4408 24.2339 18.8465 24.6882 19.0832C25.1424 19.3199 25.6714 19.3686 26.1613 19.219C26.6511 19.0694 27.0626 18.7333 27.3071 18.2832C27.5515 17.8331 27.6094 17.305 27.4682 16.8127L22.9275 1.95954C22.7734 1.46964 22.4311 1.06097 21.9758 0.823359C21.5205 0.585745 20.9894 0.538624 20.4994 0.69235Z" fill="#EEEEEE"/>
<path d="M23.7334 17.9521L19.1924 3.09986C19.1351 2.91195 19.1073 2.7163 19.1099 2.51986C16.414 6.2408 12.0218 8.33236 9.18462 9.37799C8.70806 9.55393 7.24212 9.97174 7.24212 9.97174C6.8889 10.0797 6.56041 10.2563 6.2754 10.4912C5.9904 10.7262 5.75447 11.015 5.58108 11.3411C5.4077 11.6672 5.30025 12.0243 5.26488 12.392C5.22951 12.7597 5.26691 13.1307 5.37494 13.4839L6.4715 17.0702C6.68988 17.7832 7.18246 18.3803 7.84096 18.7302C8.49946 19.0801 9.26996 19.1542 9.98306 18.9361C9.98306 18.9361 11.4321 18.463 11.9256 18.3424C14.8631 17.6236 19.6734 16.9008 23.9881 18.478C23.8764 18.3169 23.7905 18.1395 23.7334 17.9521ZM26.2187 12.7214C26.9463 12.3333 27.5164 11.7044 27.8314 10.9424C28.1465 10.1803 28.1869 9.33242 27.9458 8.54384C27.7047 7.75525 27.197 7.07497 26.5096 6.61939C25.8223 6.16382 24.998 5.96128 24.1777 6.04643L26.2187 12.7214ZM32.7871 6.08361L30.9943 6.63174C30.7565 6.70443 30.5574 6.86859 30.4406 7.08813C30.3239 7.30766 30.2991 7.56458 30.3718 7.80236C30.4445 8.04015 30.6087 8.23932 30.8282 8.35606C31.0477 8.4728 31.3047 8.49755 31.5424 8.42486L33.3356 7.87643C33.4548 7.84173 33.566 7.78369 33.6626 7.70566C33.7593 7.62764 33.8394 7.53119 33.8985 7.42193C33.9575 7.31266 33.9942 7.19275 34.0066 7.06916C34.0189 6.94557 34.0065 6.82077 33.9702 6.70201C33.9338 6.58324 33.8743 6.47288 33.7949 6.37733C33.7156 6.28178 33.618 6.20294 33.508 6.14541C33.3979 6.08787 33.2775 6.05278 33.1537 6.04218C33.03 6.03157 32.9054 6.04565 32.7871 6.08361ZM33.3709 13.3367L31.7146 12.4567C31.6059 12.399 31.5096 12.3203 31.4312 12.2253C31.3528 12.1303 31.294 12.0208 31.2579 11.9031C31.2219 11.7853 31.2094 11.6616 31.2212 11.539C31.2329 11.4164 31.2687 11.2974 31.3265 11.1886C31.3843 11.0799 31.4629 10.9836 31.5579 10.9052C31.6529 10.8268 31.7624 10.768 31.8802 10.7319C31.9979 10.6959 32.1216 10.6834 32.2442 10.6951C32.3668 10.7069 32.4859 10.7427 32.5946 10.8005L34.2509 11.6808C34.3596 11.7386 34.4559 11.8173 34.5343 11.9123C34.6126 12.0073 34.6715 12.1168 34.7075 12.2346C34.7436 12.3524 34.756 12.4761 34.7442 12.5987C34.7325 12.7213 34.6966 12.8403 34.6388 12.9491C34.581 13.0578 34.5024 13.1541 34.4074 13.2325C34.3123 13.3108 34.2028 13.3697 34.0851 13.4057C33.9673 13.4418 33.8436 13.4542 33.721 13.4425C33.5984 13.4307 33.4793 13.3949 33.3706 13.3371L33.3709 13.3367ZM29.7634 1.53674L28.8831 3.19299C28.8253 3.30174 28.7894 3.42081 28.7777 3.5434C28.7659 3.666 28.7784 3.78971 28.8144 3.90748C28.8871 4.14533 29.0514 4.34453 29.271 4.46127C29.4907 4.57801 29.7477 4.60271 29.9855 4.52996C30.2234 4.4572 30.4226 4.29293 30.5393 4.0733L31.4196 2.41705C31.5364 2.19742 31.5611 1.94041 31.4883 1.70256C31.4156 1.46471 31.2513 1.26551 31.0317 1.14877C30.812 1.03203 30.555 1.00733 30.3172 1.08009C30.0793 1.15284 29.8801 1.31711 29.7634 1.53674Z" fill="#E91E63"/>
<path d="M11.9254 18.343L9.98295 18.9367C9.26964 19.1548 8.49891 19.0806 7.84031 18.7304C7.18171 18.3803 6.68918 17.7828 6.47107 17.0695L5.37482 13.4845C5.26685 13.1313 5.2295 12.7603 5.26491 12.3926C5.30033 12.025 5.40781 11.6679 5.58122 11.3418C5.75464 11.0157 5.99059 10.7269 6.2756 10.492C6.56061 10.2571 6.8891 10.0806 7.24232 9.97266L9.18482 9.37891L11.9254 18.343Z" fill="#EEEEEE"/>
<path d="M4.0625 21.7188V36.7188C4.0625 37.4647 4.35882 38.18 4.88626 38.7075C5.41371 39.2349 6.12908 39.5312 6.875 39.5312H33.125C33.8709 39.5312 34.5863 39.2349 35.1137 38.7075C35.6412 38.18 35.9375 37.4647 35.9375 36.7188V21.7188C35.9375 21.4701 35.8387 21.2317 35.6629 21.0558C35.4871 20.88 35.2486 20.7812 35 20.7812H5C4.75136 20.7812 4.5129 20.88 4.33709 21.0558C4.16127 21.2317 4.0625 21.4701 4.0625 21.7188Z" fill="#FFC107"/>
<path d="M25 20.7812V39.5312H33.125C33.8709 39.5312 34.5863 39.2349 35.1137 38.7075C35.6412 38.18 35.9375 37.4647 35.9375 36.7188V21.7188C35.9375 21.4701 35.8387 21.2317 35.6629 21.0558C35.4871 20.88 35.2486 20.7812 35 20.7812H25Z" fill="#FFB300"/>
<path d="M0.881236 24.5516L3.50061 21.4469C3.67661 21.2383 3.89601 21.0708 4.14349 20.9558C4.39096 20.8408 4.66055 20.7813 4.93342 20.7812H25.0006L21.36 25.0953C21.096 25.4081 20.7668 25.6595 20.3956 25.832C20.0244 26.0044 19.6199 26.0938 19.2106 26.0938H1.59749C1.41881 26.0937 1.24387 26.0426 1.09326 25.9465C0.942649 25.8504 0.822647 25.7132 0.747385 25.5511C0.672123 25.3891 0.644737 25.2089 0.66845 25.0318C0.692164 24.8547 0.765991 24.6881 0.881236 24.5516Z" fill="#FFD54F"/>
<path d="M39.1194 24.5516L36.5 21.4469C36.324 21.2383 36.1046 21.0708 35.8571 20.9558C35.6096 20.8408 35.3401 20.7813 35.0672 20.7812H25L28.6406 25.0953C28.9046 25.4081 29.2338 25.6595 29.605 25.832C29.9763 26.0044 30.3807 26.0938 30.79 26.0938H38.4031C38.5818 26.0937 38.7567 26.0426 38.9074 25.9465C39.058 25.8504 39.178 25.7132 39.2532 25.5511C39.3285 25.3891 39.3559 25.2089 39.3322 25.0318C39.3084 24.8547 39.2346 24.6881 39.1194 24.5516Z" fill="#FFC107"/>
<path d="M11.4062 34.2188H7.34375C7.08487 34.2188 6.875 34.4286 6.875 34.6875V36.25C6.875 36.5089 7.08487 36.7188 7.34375 36.7188H11.4062C11.6651 36.7188 11.875 36.5089 11.875 36.25V34.6875C11.875 34.4286 11.6651 34.2188 11.4062 34.2188Z" fill="white"/>
<path d="M31.68 8.87547L33.4728 8.32734C33.6494 8.27336 33.8137 8.18511 33.9562 8.06765C34.0987 7.95019 34.2166 7.80581 34.3034 7.64276C34.3901 7.47971 34.4438 7.30117 34.4615 7.11735C34.4792 6.93352 34.4606 6.74801 34.4066 6.5714C34.3526 6.3948 34.2643 6.23055 34.1469 6.08805C34.0294 5.94554 33.885 5.82757 33.722 5.74086C33.5589 5.65416 33.3804 5.60041 33.1966 5.58271C33.0127 5.565 32.8272 5.58367 32.6506 5.63765L30.8575 6.18578C30.6809 6.23979 30.5167 6.32805 30.3742 6.44553C30.2317 6.56301 30.1137 6.7074 30.027 6.87047C29.9403 7.03354 29.8866 7.21209 29.8689 7.39592C29.8512 7.57975 29.8699 7.76527 29.9239 7.94187C29.9779 8.11848 30.0662 8.28272 30.1837 8.42522C30.3011 8.56771 30.4455 8.68568 30.6086 8.77237C30.7717 8.85906 30.9502 8.91279 31.134 8.93048C31.3179 8.94816 31.5034 8.92947 31.68 8.87547ZM31.1316 7.08172C31.1316 7.08172 32.4778 6.67547 32.9247 6.53359C32.984 6.51384 33.0467 6.50616 33.109 6.511C33.1714 6.51584 33.2321 6.53311 33.2877 6.56178C33.3433 6.59045 33.3925 6.62994 33.4326 6.67794C33.4727 6.72594 33.5027 6.78148 33.521 6.84127C33.5393 6.90107 33.5454 6.96391 33.5391 7.02612C33.5327 7.08832 33.5139 7.14862 33.4839 7.20346C33.4539 7.25831 33.4132 7.30659 33.3642 7.34547C33.3152 7.38435 33.259 7.41303 33.1988 7.42984L31.4066 7.97828C31.2877 8.01466 31.1592 8.00233 31.0494 7.94399C30.9396 7.88565 30.8575 7.78608 30.8211 7.66719C30.7847 7.54829 30.797 7.41982 30.8554 7.31002C30.9137 7.20022 31.0133 7.1181 31.1322 7.08172H31.1316ZM31.4956 12.872L33.1519 13.7527C33.4807 13.9227 33.8633 13.9563 34.2167 13.846C34.5701 13.7358 34.8658 13.4906 35.0396 13.1638C35.2134 12.8369 35.2513 12.4547 35.145 12.1001C35.0388 11.7455 34.7971 11.447 34.4722 11.2695L32.8159 10.3889C32.4871 10.2188 32.1045 10.1853 31.7511 10.2955C31.3977 10.4058 31.102 10.6509 30.9283 10.9778C30.7545 11.3046 30.7166 11.6868 30.8228 12.0415C30.929 12.3961 31.1708 12.6945 31.4956 12.872ZM31.7419 11.4108C31.7708 11.3564 31.8101 11.3082 31.8576 11.269C31.9051 11.2298 31.9598 11.2004 32.0187 11.1824C32.0776 11.1644 32.1394 11.1581 32.2007 11.164C32.262 11.1699 32.3216 11.1878 32.3759 11.2167L34.0322 12.097C34.0865 12.1259 34.1347 12.1653 34.1738 12.2128C34.213 12.2603 34.2424 12.3151 34.2604 12.3739C34.2784 12.4328 34.2846 12.4947 34.2787 12.5559C34.2728 12.6172 34.2549 12.6767 34.2259 12.7311C34.197 12.7854 34.1577 12.8336 34.1102 12.8727C34.0627 12.9119 34.0079 12.9413 33.949 12.9593C33.8902 12.9773 33.8283 12.9835 33.767 12.9776C33.7057 12.9717 33.6462 12.9538 33.5919 12.9248L31.9356 12.0445C31.8263 11.9857 31.7447 11.8862 31.7084 11.7675C31.6721 11.6488 31.6842 11.5206 31.7419 11.4108ZM30.9528 4.29453L31.8331 2.63828C31.9211 2.47511 31.976 2.29614 31.9946 2.11168C32.0132 1.92723 31.9951 1.74091 31.9414 1.56346C31.8877 1.38601 31.7995 1.22093 31.6818 1.07771C31.564 0.934499 31.4192 0.815974 31.2554 0.728961C31.0917 0.641948 30.9124 0.588165 30.7279 0.570704C30.5433 0.553243 30.3571 0.572451 30.18 0.627221C30.0029 0.681991 29.8383 0.771244 29.6958 0.889842C29.5533 1.00844 29.4357 1.15405 29.3497 1.31828L28.4691 2.97422C28.3799 3.13746 28.324 3.31677 28.3045 3.50177C28.2851 3.68677 28.3026 3.87378 28.356 4.05198C28.4094 4.23017 28.4976 4.39601 28.6155 4.53988C28.7334 4.68375 28.8787 4.80279 29.0429 4.89012C29.2072 4.97745 29.3871 5.03133 29.5723 5.04864C29.7575 5.06594 29.9443 5.04632 30.1219 4.99093C30.2995 4.93553 30.4643 4.84546 30.6068 4.72592C30.7493 4.60638 30.8667 4.45975 30.9522 4.29453H30.9528ZM29.4913 4.04828C29.4369 4.0194 29.3887 3.98009 29.3495 3.93259C29.3103 3.88509 29.2809 3.83034 29.2629 3.77146C29.2448 3.71257 29.2386 3.65072 29.2445 3.58942C29.2504 3.52812 29.2683 3.46859 29.2972 3.41422L30.1775 1.75797C30.2062 1.70322 30.2454 1.65469 30.2929 1.61515C30.3404 1.57562 30.3952 1.54587 30.4543 1.52761C30.5133 1.50936 30.5754 1.50295 30.6369 1.50877C30.6984 1.5146 30.7582 1.53252 30.8128 1.56153C30.8673 1.59053 30.9156 1.63004 30.9549 1.67778C30.9941 1.72552 31.0235 1.78054 31.0414 1.83969C31.0593 1.89884 31.0653 1.96095 31.0591 2.02244C31.0529 2.08392 31.0347 2.14358 31.0053 2.19797L30.125 3.85422C30.0667 3.96398 29.9672 4.04608 29.8483 4.08247C29.7295 4.11886 29.601 4.10656 29.4913 4.04828Z" fill="black"/>
<path d="M36.4061 36.7183V26.562H38.403C38.6709 26.5619 38.9332 26.4853 39.159 26.3411C39.3848 26.197 39.5648 25.9914 39.6777 25.7484C39.7906 25.5055 39.8317 25.2353 39.7963 24.9698C39.7609 24.7043 39.6503 24.4544 39.4777 24.2495L36.8574 21.1445C36.6375 20.8835 36.3633 20.6738 36.0539 20.53C35.7445 20.3862 35.4073 20.3118 35.0661 20.312H17.6561C17.868 20.0627 17.9963 19.7531 18.0229 19.427C18.0495 19.1008 17.973 18.7745 17.8042 18.4942L17.5174 18.0173C19.6193 17.9182 21.7213 18.2117 23.7158 18.8826C24.0689 19.3159 24.5609 19.6137 25.1085 19.7256C25.6561 19.8374 26.2255 19.7565 26.7202 19.4965C27.215 19.2365 27.6046 18.8134 27.823 18.299C28.0414 17.7845 28.0752 17.2104 27.9186 16.6739L26.7739 12.9348C27.495 12.4552 28.0421 11.7557 28.3338 10.9402C28.6255 10.1248 28.6463 9.23701 28.3931 8.40882C28.1399 7.58062 27.6262 6.85624 26.9284 6.34334C26.2306 5.83045 25.3859 5.55643 24.5199 5.56201L23.3764 1.8217C23.2049 1.28876 22.8543 0.831545 22.3842 0.527548C21.914 0.223551 21.3532 0.091478 20.7968 0.153716C20.2404 0.215955 19.7227 0.468676 19.3313 0.86904C18.94 1.2694 18.6991 1.79278 18.6496 2.35045C16.0996 5.7967 12.0161 7.83482 9.02237 8.9392C8.56768 9.10701 7.12799 9.51795 7.10487 9.52451C6.27323 9.77989 5.57685 10.3547 5.16846 11.1228C4.76007 11.891 4.67303 12.7898 4.92643 13.622L6.02268 17.2079C6.28127 18.0391 6.85803 18.7343 7.62715 19.1418C8.39628 19.5494 9.29536 19.6363 10.1283 19.3836L10.3527 19.3111L10.8946 20.312H4.93362C4.59245 20.3117 4.25535 20.386 3.94593 20.5297C3.6365 20.6734 3.36225 20.883 3.14237 21.1439L0.522367 24.2495C0.349741 24.4543 0.239206 24.7042 0.203768 24.9697C0.16833 25.2352 0.209462 25.5053 0.322326 25.7483C0.43519 25.9912 0.61509 26.1968 0.840859 26.341C1.06663 26.4852 1.32887 26.5618 1.59674 26.562H3.59362V36.7183C3.59461 37.5882 3.94063 38.4222 4.55577 39.0374C5.17091 39.6525 6.00493 39.9985 6.87487 39.9995H33.1249C33.9948 39.9985 34.8288 39.6525 35.444 39.0374C36.0591 38.4222 36.4051 37.5882 36.4061 36.7183ZM35.0661 21.2495C35.2709 21.2494 35.4732 21.294 35.6589 21.3804C35.8445 21.4668 36.009 21.5928 36.1408 21.7495L38.7611 24.8542C38.8185 24.9225 38.8552 25.0057 38.8669 25.0941C38.8787 25.1826 38.8649 25.2725 38.8273 25.3534C38.7897 25.4343 38.7298 25.5027 38.6546 25.5508C38.5795 25.5988 38.4922 25.6244 38.403 25.6245H30.7899C30.4489 25.6247 30.112 25.5502 29.8028 25.4065C29.4936 25.2627 29.2195 25.0531 28.9999 24.7923L26.0089 21.2495H35.0661ZM27.4971 8.68201C27.676 9.27103 27.6751 9.90004 27.4946 10.4886C27.3141 11.0771 26.9621 11.5984 26.4836 11.9858L24.8096 6.5092C25.423 6.56257 26.0065 6.79789 26.4853 7.185C26.9641 7.57212 27.3164 8.09339 27.4971 8.68201ZM20.6355 1.13982C21.0068 1.02657 21.4077 1.0632 21.7523 1.24188C22.0969 1.42055 22.3578 1.72706 22.4792 2.09576C23.5958 5.81451 25.8486 13.2461 27.0199 16.9479C27.1264 17.3219 27.0819 17.7227 26.8961 18.0642C26.7103 18.4058 26.3979 18.6608 26.0261 18.7745C25.6543 18.8881 25.2527 18.8514 24.9077 18.6722C24.5626 18.493 24.3016 18.1856 24.1808 17.8161C23.0461 14.1029 20.8124 6.66545 19.6408 2.96357C19.536 2.5899 19.5813 2.19007 19.7672 1.84936C19.953 1.50865 20.2646 1.25403 20.6355 1.13982ZM18.8542 3.6017L23.1724 17.7267C19.3311 16.6233 15.2299 17.1017 12.2442 17.7892L9.7608 9.66138C12.6196 8.56201 16.2877 6.66482 18.8555 3.6017H18.8542ZM14.7986 18.2623C15.3497 18.1828 15.9032 18.1213 16.4583 18.0779L16.9999 18.9792C17.0477 19.0602 17.0766 19.1509 17.0845 19.2447C17.0923 19.3384 17.079 19.4327 17.0453 19.5205C17.0117 19.6083 16.9586 19.6875 16.8902 19.7519C16.8217 19.8164 16.7396 19.8646 16.6499 19.8929L15.8186 20.147L14.7986 18.2623ZM14.8436 20.312H11.9608L11.2633 19.0236C12.101 18.7678 12.9545 18.5666 13.8183 18.4214L14.8436 20.312ZM9.8458 18.4898C9.25144 18.6685 8.61054 18.6053 8.06253 18.3139C7.51453 18.0226 7.10375 17.5266 6.91955 16.9339L5.82299 13.3479C5.64158 12.7549 5.70257 12.1142 5.99263 11.5661C6.28268 11.018 6.77814 10.6071 7.37049 10.4236C7.41674 10.4108 8.26299 10.1689 8.87643 9.97545L11.3364 18.022C10.7202 18.2048 9.88518 18.477 9.8458 18.4898ZM1.59674 25.6245C1.50743 25.6245 1.42 25.5989 1.34472 25.5509C1.26944 25.5028 1.20946 25.4342 1.17184 25.3532C1.13421 25.2722 1.12051 25.1822 1.13234 25.0937C1.14417 25.0051 1.18104 24.9218 1.23862 24.8536L3.85862 21.7495C3.99048 21.5928 4.15503 21.4668 4.34074 21.3804C4.52645 21.2941 4.72881 21.2494 4.93362 21.2495H23.9908L20.9999 24.7923C20.7802 25.0531 20.5062 25.2627 20.197 25.4065C19.8877 25.5502 19.5509 25.6247 19.2099 25.6245H1.59674ZM24.5311 39.062H6.87487C6.25347 39.0613 5.65771 38.8142 5.21832 38.3748C4.77892 37.9354 4.53178 37.3397 4.53112 36.7183V26.562H19.2099C19.6877 26.5627 20.1599 26.4588 20.5933 26.2575C21.0267 26.0562 21.4108 25.7625 21.7186 25.397L24.5311 22.0633V39.062ZM33.1249 39.062H25.4686V22.062L28.2811 25.3958C28.5888 25.7615 28.9728 26.0555 29.4062 26.2569C29.8396 26.4584 30.3119 26.5626 30.7899 26.562H35.4686V36.7183C35.468 37.3397 35.2208 37.9354 34.7814 38.3748C34.342 38.8142 33.7463 39.0613 33.1249 39.062Z" fill="black"/>
<path d="M22.3438 36.0938H19.5312C19.4069 36.0938 19.2877 36.1431 19.1998 36.231C19.1119 36.319 19.0625 36.4382 19.0625 36.5625C19.0625 36.6868 19.1119 36.806 19.1998 36.894C19.2877 36.9819 19.4069 37.0312 19.5312 37.0312H22.3438C22.4681 37.0312 22.5873 36.9819 22.6752 36.894C22.7631 36.806 22.8125 36.6868 22.8125 36.5625C22.8125 36.4382 22.7631 36.319 22.6752 36.231C22.5873 36.1431 22.4681 36.0938 22.3438 36.0938ZM19.0625 34.0625C19.0625 34.1868 19.1119 34.306 19.1998 34.394C19.2877 34.4819 19.4069 34.5312 19.5312 34.5312H22.3438C22.4681 34.5312 22.5873 34.4819 22.6752 34.394C22.7631 34.306 22.8125 34.1868 22.8125 34.0625C22.8125 33.9382 22.7631 33.819 22.6752 33.731C22.5873 33.6431 22.4681 33.5938 22.3438 33.5938H19.5312C19.4069 33.5938 19.2877 33.6431 19.1998 33.731C19.1119 33.819 19.0625 33.9382 19.0625 34.0625ZM11.4062 33.75H7.34375C7.09511 33.75 6.85665 33.8488 6.68084 34.0246C6.50502 34.2004 6.40625 34.4389 6.40625 34.6875V36.25C6.40625 36.4986 6.50502 36.7371 6.68084 36.9129C6.85665 37.0887 7.09511 37.1875 7.34375 37.1875H11.4062C11.6549 37.1875 11.8933 37.0887 12.0692 36.9129C12.245 36.7371 12.3438 36.4986 12.3438 36.25V34.6875C12.3438 34.4389 12.245 34.2004 12.0692 34.0246C11.8933 33.8488 11.6549 33.75 11.4062 33.75ZM7.34375 36.25V34.6875H11.4062V36.25H7.34375Z" fill="black"/>
</g>
<defs>
<clipPath id="clip0_3566_22747">
<rect width="40" height="40" fill="white"/>
</clipPath>
</defs>
</svg>
