<svg width="40" height="40" viewBox="0 0 40 40" fill="none" xmlns="http://www.w3.org/2000/svg">
<g clip-path="url(#clip0_3566_22631)">
<path d="M28.235 37.6479L29.8429 38.2557L31.7645 37.6479L32.4507 34.1184L31.7645 30.589L28.2605 29.0156C27.3737 29.4334 26.5685 30.0059 25.8828 30.7064L28.235 37.6479Z" fill="#59F3DE"/>
<path d="M40.0009 36.4698C40.0009 33.1859 38.0808 30.3471 35.2947 29.0254L31.7656 30.5874V37.6463L35.6036 38.7428L40.0009 37.6463V36.4698Z" fill="#00CDD6"/>
<path d="M27.0586 25.8817C27.0586 28.4764 29.1696 30.5875 31.7645 30.5875L32.9409 25.8817L31.7645 21.1758C29.1697 21.1758 27.0586 23.2868 27.0586 25.8817Z" fill="#FFDDCE"/>
<path d="M36.4715 25.8817C36.4715 23.2869 34.3605 21.1758 31.7656 21.1758V30.5875C34.3604 30.5875 36.4715 28.4766 36.4715 25.8817Z" fill="#FFBDA9"/>
<path d="M31.7641 39.9994H28.2346L27.666 38.6549L28.2346 37.6465H31.7641L32.4503 38.823L31.7641 39.9994Z" fill="#00CDD6"/>
<path d="M31.7656 37.6465H40.0009V39.9994H31.7656V37.6465Z" fill="#00AFD2"/>
<path d="M0 36.4714V37.6479L4.11765 38.3276L8.2353 37.6479L8.94118 34.1184L8.2353 30.589L4.72863 29.0176C1.92824 30.3344 0 33.1864 0 36.4714Z" fill="#59F3DE"/>
<path d="M14.1166 30.7069C13.4332 30.0075 12.6307 29.4354 11.7466 29.0176L8.23438 30.5891V37.6479L10.0057 38.3611L11.7638 37.6479L14.1166 30.7069Z" fill="#00CDD6"/>
<path d="M3.5293 25.8817C3.5293 28.4764 5.64028 30.5875 8.23518 30.5875L9.41165 25.8817L8.23518 21.1758C5.64043 21.1758 3.5293 23.2868 3.5293 25.8817Z" fill="#FFDDCE"/>
<path d="M12.9403 25.8817C12.9403 23.2869 10.8293 21.1758 8.23438 21.1758V30.5875C10.8291 30.5875 12.9403 28.4766 12.9403 25.8817Z" fill="#FFBDA9"/>
<path d="M11.7656 36.4699V37.6464L15.8833 38.3595L20.0009 37.6464L20.7068 34.117L20.0009 30.5875L16.4936 29.0156C13.6942 30.3346 11.7656 33.1834 11.7656 36.4699Z" fill="#FF7C45"/>
<path d="M28.2353 36.4696C28.2353 33.1859 26.3153 30.3473 23.5296 29.0254L20 30.5873V37.6461L23.5294 38.6545L28.2353 37.6461V36.4696Z" fill="#FF415C"/>
<path d="M15.293 25.8817C15.293 28.4764 17.4039 30.5875 19.9989 30.5875L21.1753 25.8817L19.9989 21.1758C17.4041 21.1758 15.293 23.2868 15.293 25.8817Z" fill="#FFDDCE"/>
<path d="M24.7059 25.8817C24.7059 23.2869 22.5949 21.1758 20 21.1758V30.5875C22.5947 30.5875 24.7059 28.4766 24.7059 25.8817Z" fill="#FFBDA9"/>
<path d="M7.05859 0V14.1176H15.9831L19.9998 18.1344L21.1762 9.06714L19.9998 0H7.05859Z" fill="#ABE751"/>
<path d="M32.9412 14.1176V0H20V18.1344L24.0167 14.1176H32.9412Z" fill="#00DA7B"/>
<path d="M11.7656 5.88281V8.23575H20.0009L21.1774 7.05928L20.0009 5.88281H11.7656Z" fill="#F2F4F9"/>
<path d="M28.2353 5.88281H20V8.23575H28.2353V5.88281Z" fill="#DBF0F9"/>
<path d="M8.2353 39.9994H0V37.6465H8.2353L8.94118 38.823L8.2353 39.9994Z" fill="#00CDD6"/>
<path d="M11.7638 39.9994H8.23438V37.6465H11.7638L12.6004 38.823L11.7638 39.9994Z" fill="#00AFD2"/>
<path d="M20.0009 39.9994H11.7656V37.6465H20.0009L20.7068 38.823L20.0009 39.9994Z" fill="#FF415C"/>
<path d="M20 37.6465H28.2353V39.9994H20V37.6465Z" fill="#F20050"/>
</g>
<defs>
<clipPath id="clip0_3566_22631">
<rect width="40" height="40" fill="white"/>
</clipPath>
</defs>
</svg>
