<svg width="40" height="40" viewBox="0 0 40 40" fill="none" xmlns="http://www.w3.org/2000/svg">
<g clip-path="url(#clip0_3566_22580)">
<path d="M19.4932 15.7696L17.9037 15.025L16.2135 12.1468L17.3001 9.57234L17.5929 9.16992H15.8677L12.4442 10.8869L12.3869 11.2165L12.4912 11.5442L12.2586 11.9542L11.5625 15.9568L12.1491 16.1318L13.8556 18.4859L14.6704 19.3744H15.2678L17.3805 17.2987L19.614 16.6348L19.9752 16.2789L19.4932 15.7696Z" fill="#CE7BBC"/>
<path d="M12.0933 15.3524C12.0933 12.3503 14.3735 9.88072 17.2966 9.58103L17.3003 9.57213L18.1085 8.46142C17.1594 7.66314 15.9327 7.18572 14.5991 7.20361C13.3939 7.21978 12.2897 7.64033 11.4056 8.33299L11.7872 9.33064L12.4914 11.5439L11.4056 13.4581L9.79523 14.381L9.33156 15.0252C9.32648 15.0252 9.32148 15.0249 9.31641 15.0248V15.0257C9.32172 15.0257 9.32703 15.026 9.33234 15.026L9.65445 15.387L12.1469 16.1306C12.1116 15.8727 12.0937 15.6127 12.0933 15.3524Z" fill="#C464B0"/>
<path d="M28.3641 13.092C28.3439 13.0316 28.022 10.436 28.022 10.436L28.5427 9.10547L26.4755 9.16836L23.2963 12.1452L22.7305 15.8483L23.1577 18.3874L25.2988 19.7117L30.3156 15.7278L30.6225 15.0248C30.6441 15.0252 30.6659 15.0254 30.6876 15.0256V15.0223C30.6659 15.0227 30.6446 15.0239 30.6229 15.0239C30.623 15.024 28.3842 13.1523 28.3641 13.092Z" fill="#FFE02F"/>
<path d="M23.297 15.3524C23.297 12.4023 25.4992 9.96822 28.3491 9.60018L28.5648 9.04893L28.5809 8.31049C27.6602 7.60361 26.5066 7.18682 25.2594 7.20361C23.9703 7.22088 22.7964 7.70049 21.8842 8.48127L19.9785 16.2787L20.5162 16.7553L25.2123 19.6599C24.0363 18.598 23.297 17.0616 23.297 15.3524Z" fill="#FBC700"/>
<path d="M32.7764 15.4609L31.948 15.6576L31.0627 16.1002L29.9058 17.6295L29.3223 19.4839V24.4906L29.8655 25.0942L30.2273 25.2094H34.9812C35.5986 25.2094 36.0991 24.7089 36.0991 24.0916V20.477C36.0991 18.2329 34.7247 16.295 32.7764 15.4609Z" fill="#FF5CA8"/>
<path d="M29.4525 24.0915V20.4769C29.4525 18.2327 30.827 16.2948 32.7752 15.4608C32.0791 15.1622 31.3279 15.0134 30.5705 15.024C27.9832 15.0586 25.8525 16.9221 25.3203 19.3597V19.7118L25.7765 21.4556V24.8091L26.143 25.1957C26.1972 25.2038 26.2522 25.2093 26.3087 25.2093H30.5702C29.9529 25.2093 29.4525 24.7088 29.4525 24.0915Z" fill="#FF3C98"/>
<path d="M14.694 19.372C14.323 17.589 13.0741 16.1184 11.4245 15.4355H10.6598L8.84898 17.0766L8.02406 19.0686L7.80273 20.117V24.5605L8.39125 25.0948L8.87844 25.21H13.6896C13.7461 25.21 13.8012 25.2045 13.8554 25.1964L14.2414 24.4879V21.832L14.9389 20.1172L14.694 19.372Z" fill="#73D578"/>
<path d="M8.03258 24.0915V20.5485C8.03258 18.2578 9.42844 16.2644 11.4245 15.4348C10.745 15.1534 10.0153 15.0136 9.28 15.024C6.28523 15.0641 3.90039 17.5536 3.90039 20.5486V24.0916C3.90039 24.7089 4.40086 25.2094 5.0182 25.2094H9.15039C8.53305 25.2093 8.03258 24.7088 8.03258 24.0915Z" fill="#00C63A"/>
<path d="M22.0711 16.6387H20.8416L18.1587 18.7459L17.2734 20.7311V26.5527L18.0749 27.4884L18.8356 27.7527H24.885C25.5805 27.7527 26.1444 27.1889 26.1444 26.4934V22.421C26.1445 19.7676 24.4395 17.4934 22.0711 16.6387Z" fill="#00C2FB"/>
<path d="M17.9877 26.494V22.5022C17.9877 19.8225 19.683 17.5037 22.0706 16.6392C21.3802 16.39 20.6504 16.2676 19.9165 16.278C16.5424 16.3233 13.8555 19.1279 13.8555 22.5022V26.494C13.8555 27.1895 14.4193 27.7533 15.1148 27.7533H19.247C18.5515 27.7533 17.9877 27.1894 17.9877 26.494Z" fill="#00ABF2"/>
<path d="M32.4799 8.18164H32.0089L30.6461 9.20977L30.2383 10.8999L30.6461 12.7913L31.5059 14.1595L32.4799 14.5332C33.5759 13.899 34.3137 12.7148 34.3137 11.3574C34.3137 10.0001 33.5759 8.81586 32.4799 8.18164Z" fill="#FFCEBE"/>
<path d="M30.6462 11.3571C30.6462 9.99977 31.3841 8.81555 32.48 8.18133C31.9228 7.85845 31.2901 7.68874 30.6462 7.68946C28.6205 7.68946 26.9785 9.33149 26.9785 11.3571C26.9785 13.3827 28.6205 15.0248 30.6462 15.0248C31.2901 15.0255 31.9228 14.8558 32.48 14.5329C31.384 13.8986 30.6462 12.7144 30.6462 11.3571Z" fill="#FFB1A0"/>
<path d="M27.1882 0.501953H26.7025L25.6965 1.68414L24.9453 3.4682L25.227 5.06445L26.4947 6.49977L27.1884 6.70102C28.2464 6.07367 28.9561 4.9207 28.9561 3.60148C28.9561 2.28227 28.2462 1.1293 27.1882 0.501953Z" fill="#FFCEBE"/>
<path d="M25.4216 3.60157C25.4216 2.28235 26.1312 1.12938 27.1893 0.502034C26.6344 0.172658 26.0008 -0.000787919 25.3555 2.69079e-06C23.3664 2.69079e-06 21.7539 1.6125 21.7539 3.60157C21.7539 5.59063 23.3664 7.20313 25.3555 7.20313C26.0008 7.20392 26.6344 7.03047 27.1893 6.7011C26.1312 6.07368 25.4216 4.92078 25.4216 3.60157Z" fill="#FFB1A0"/>
<path d="M21.8343 8.44336H21.2845L20.1041 9.51828C20.1041 9.51828 19.3395 11.1979 19.3127 11.3574C19.2859 11.517 19.3127 13.2884 19.3127 13.2884L20.426 15.3399L21.1102 15.8228L21.8343 15.8494C23.1962 15.1737 24.1327 13.7697 24.1327 12.1463C24.1326 10.523 23.1961 9.11906 21.8343 8.44336Z" fill="#FFCEBE"/>
<path d="M19.5348 12.1459C19.5348 10.5225 20.4714 9.1186 21.8332 8.44281C21.2633 8.15989 20.6356 8.01299 19.9994 8.01367C17.7172 8.01367 15.8672 9.86375 15.8672 12.1459C15.8672 14.428 17.7173 16.278 19.9994 16.278C20.6356 16.2787 21.2633 16.1318 21.8332 15.8489C20.4714 15.1732 19.5348 13.7692 19.5348 12.1459Z" fill="#FFB1A0"/>
<path d="M16.5275 0.501953H16.213L14.7911 1.76461L14.3887 3.44133V4.44734L15.2203 5.97656L15.7837 6.49969L16.5274 6.70094C17.5855 6.07359 18.2952 4.92063 18.2952 3.60141C18.2952 2.28219 17.5855 1.1293 16.5275 0.501953Z" fill="#FFCEBE"/>
<path d="M14.7595 3.60157C14.7595 2.28235 15.4692 1.12938 16.5273 0.502034C15.9723 0.172656 15.3387 -0.000790362 14.6934 2.70753e-06C12.7043 2.70753e-06 11.0918 1.6125 11.0918 3.60157C11.0918 5.59063 12.7043 7.20313 14.6934 7.20313C15.3387 7.20392 15.9723 7.03047 16.5272 6.7011C15.4692 6.07368 14.7595 4.92078 14.7595 3.60157Z" fill="#FFB1A0"/>
<path d="M11.1879 8.18164H10.602L9.69422 9.16953L9.13086 10.5579V11.9663L9.71438 13.5257L10.5494 14.4714L11.1879 14.5332C12.2838 13.899 13.0217 12.7148 13.0217 11.3574C13.0217 10.0001 12.2838 8.81586 11.1879 8.18164Z" fill="#FFCEBE"/>
<path d="M9.35516 11.3571C9.35516 9.99977 10.093 8.81555 11.189 8.18133C10.6318 7.85845 9.99912 7.68874 9.35516 7.68946C7.32953 7.68946 5.6875 9.33149 5.6875 11.3571C5.6875 13.3827 7.32953 15.0248 9.35516 15.0248C9.99912 15.0255 10.6318 14.8558 11.189 14.5329C10.093 13.8986 9.35516 12.7144 9.35516 11.3571Z" fill="#FFB1A0"/>
<path d="M18.2005 33.5578L17.8438 34.0074L18.2005 36.0806L19.7409 37.5752C19.7409 37.5752 21.2833 37.8755 21.3379 37.8755C21.3925 37.8755 22.5322 37.6571 22.5322 37.6571L22.861 37.3866L22.8581 37.3698C22.8338 37.2278 22.8443 37.082 22.8888 36.9449C22.9334 36.8079 23.0106 36.6837 23.1137 36.5831L24.2688 35.4572C24.7963 34.9431 24.5052 34.0472 23.7763 33.9413L22.18 33.7093C22.0374 33.6886 21.902 33.6335 21.7854 33.5488C21.6689 33.4641 21.5746 33.3524 21.5109 33.2231L20.797 31.7767C20.4709 31.1161 19.529 31.1161 19.203 31.7767L18.4891 33.2231C18.4227 33.3572 18.3234 33.4723 18.2005 33.5578Z" fill="#FFE02F"/>
<path d="M22.8601 37.3855C22.4967 37.5069 22.116 37.5687 21.7328 37.5686C19.7654 37.5686 18.1705 35.9737 18.1705 34.0063C18.1705 33.8538 18.1812 33.7041 18.1997 33.5566C18.0864 33.6362 17.9561 33.6881 17.8191 33.7082L16.2228 33.9402C15.4939 34.0461 15.2028 34.9419 15.7303 35.456L16.8853 36.582C16.9885 36.6825 17.0657 36.8067 17.1102 36.9437C17.1548 37.0808 17.1653 37.2266 17.141 37.3686L16.8683 38.9584C16.7438 39.6844 17.5058 40.238 18.1578 39.8953L19.5856 39.1447C19.7131 39.0776 19.8551 39.0426 19.9992 39.0426C20.1433 39.0426 20.2852 39.0776 20.4128 39.1447L21.8405 39.8953C22.4925 40.238 23.2546 39.6845 23.13 38.9584L22.8601 37.3855Z" fill="#FBC700"/>
<path d="M28.3999 31.8201L28.1367 32.1517L28.3999 33.6812L29.5363 34.7837C29.5363 34.7837 30.674 35.0051 30.7143 35.0051C30.7546 35.0051 31.5953 34.844 31.5953 34.844L31.8379 34.6445L31.8358 34.6321C31.8178 34.5273 31.8256 34.4198 31.8584 34.3187C31.8913 34.2176 31.9482 34.126 32.0243 34.0518L32.8764 33.2212C33.2655 32.8419 33.0508 32.181 32.513 32.1029L31.3355 31.9318C31.2303 31.9165 31.1304 31.8758 31.0444 31.8134C30.9584 31.7509 30.8889 31.6684 30.8418 31.5731L30.3152 30.5061C30.0747 30.0188 29.3798 30.0188 29.1393 30.5061L28.6127 31.5731C28.5638 31.6721 28.4906 31.757 28.3999 31.8201Z" fill="#FFE02F"/>
<path d="M31.8374 34.6448C31.5693 34.7344 31.2884 34.78 31.0057 34.7799C29.5543 34.7799 28.3778 33.6034 28.3778 32.152C28.3778 32.0395 28.3857 31.929 28.3993 31.8203C28.3157 31.879 28.2196 31.9172 28.1186 31.9321L26.941 32.1032C26.4032 32.1813 26.1885 32.8422 26.5776 33.2215L27.4297 34.0521C27.5058 34.1263 27.5628 34.2179 27.5956 34.319C27.6285 34.4201 27.6362 34.5277 27.6182 34.6324L27.4171 35.8052C27.3252 36.3409 27.8874 36.7492 28.3683 36.4964L29.4215 35.9427C29.5156 35.8932 29.6203 35.8674 29.7266 35.8674C29.8329 35.8674 29.9376 35.8932 30.0317 35.9427L31.0849 36.4964C31.5659 36.7493 32.128 36.3409 32.0361 35.8052L31.8374 34.6448Z" fill="#FBC700"/>
<path d="M36.117 28.785L35.8984 29.0604L36.117 30.3303L37.0605 31.2458C37.0605 31.2458 38.0052 31.4297 38.0386 31.4297C38.072 31.4297 38.7701 31.296 38.7701 31.296L38.9715 31.1303L38.9697 31.1199C38.9548 31.033 38.9612 30.9436 38.9885 30.8597C39.0158 30.7758 39.063 30.6997 39.1263 30.6381L39.8338 29.9485C40.1568 29.6336 39.9785 29.0849 39.532 29.02L38.5543 28.8779C38.467 28.8652 38.384 28.8315 38.3126 28.7796C38.2412 28.7277 38.1835 28.6592 38.1445 28.5801L37.7072 27.6941C37.5075 27.2895 36.9305 27.2895 36.7309 27.6941L36.2936 28.5801C36.253 28.6622 36.1922 28.7327 36.117 28.785Z" fill="#FFE02F"/>
<path d="M38.9736 31.1304C38.7509 31.2048 38.5178 31.2426 38.2831 31.2426C37.078 31.2426 36.1011 30.2657 36.1011 29.0605C36.1011 28.9672 36.1076 28.8755 36.1189 28.7852C36.0495 28.8339 35.9697 28.8657 35.8858 28.878L34.9081 29.0201C34.4616 29.0849 34.2833 29.6337 34.6064 29.9486L35.3139 30.6382C35.3771 30.6998 35.4243 30.7759 35.4516 30.8598C35.4789 30.9438 35.4854 31.0331 35.4704 31.1201L35.3034 32.0938C35.2271 32.5385 35.6939 32.8777 36.0932 32.6677L36.9678 32.208C37.0459 32.1669 37.1328 32.1455 37.2211 32.1455C37.3093 32.1455 37.3963 32.1669 37.4744 32.208L38.3489 32.6677C38.7483 32.8777 39.215 32.5386 39.1388 32.0939L38.9736 31.1304Z" fill="#FBC700"/>
<path d="M8.94484 31.8201L8.68164 32.1517L8.94484 33.6812L10.0812 34.7837C10.0812 34.7837 11.2189 35.0051 11.2592 35.0051C11.2995 35.0051 12.1402 34.844 12.1402 34.844L12.3828 34.6445L12.3807 34.6321C12.3627 34.5273 12.3705 34.4198 12.4034 34.3187C12.4362 34.2176 12.4931 34.126 12.5692 34.0518L13.4213 33.2212C13.8105 32.8419 13.5957 32.181 13.058 32.1029L11.8804 31.9318C11.7752 31.9165 11.6753 31.8758 11.5893 31.8134C11.5033 31.7509 11.4338 31.6684 11.3867 31.5731L10.8601 30.5061C10.6196 30.0188 9.92477 30.0188 9.68422 30.5061L9.15758 31.5731C9.10873 31.6721 9.03553 31.7571 8.94484 31.8201Z" fill="#FFE02F"/>
<path d="M12.3823 34.6448C12.1142 34.7344 11.8333 34.78 11.5507 34.7799C10.0993 34.7799 8.92269 33.6034 8.92269 32.152C8.92269 32.0395 8.93058 31.929 8.94426 31.8203C8.86066 31.879 8.76451 31.9172 8.66347 31.9321L7.4859 32.1032C6.94816 32.1813 6.7334 32.8422 7.12254 33.2215L7.97465 34.0521C8.05076 34.1263 8.10769 34.2179 8.14054 34.319C8.17338 34.4201 8.18114 34.5277 8.16316 34.6324L7.96199 35.8052C7.87011 36.3409 8.4323 36.7492 8.91324 36.4964L9.96644 35.9427C10.0605 35.8932 10.1652 35.8674 10.2715 35.8674C10.3778 35.8674 10.4825 35.8932 10.5766 35.9427L11.6298 36.4964C12.1108 36.7493 12.6729 36.3409 12.5811 35.8052L12.3823 34.6448Z" fill="#FBC700"/>
<path d="M1.6775 28.785L1.45898 29.0604L1.6775 30.3303L2.62102 31.2458C2.62102 31.2458 3.5657 31.4297 3.59914 31.4297C3.63258 31.4297 4.33062 31.296 4.33062 31.296L4.53203 31.1303L4.53023 31.1199C4.51531 31.033 4.52176 30.9436 4.54904 30.8597C4.57631 30.7758 4.62359 30.6997 4.6868 30.6381L5.3943 29.9485C5.71734 29.6336 5.53906 29.0849 5.09258 29.02L4.11484 28.8779C4.02751 28.8652 3.94456 28.8315 3.87317 28.7796C3.80177 28.7277 3.74406 28.6592 3.705 28.5801L3.26773 27.6941C3.06805 27.2895 2.49109 27.2895 2.29141 27.6941L1.85414 28.5801C1.81351 28.6622 1.75274 28.7327 1.6775 28.785Z" fill="#FFE02F"/>
<path d="M4.53214 31.1304C4.30954 31.2048 4.07637 31.2426 3.84168 31.2426C2.6366 31.2426 1.65964 30.2657 1.65964 29.0605C1.65964 28.9672 1.66621 28.8755 1.67754 28.7852C1.60814 28.8339 1.5283 28.8657 1.44441 28.878L0.466676 29.0201C0.0201916 29.0849 -0.15809 29.6337 0.164957 29.9486L0.872457 30.6382C0.935665 30.6998 0.982943 30.7759 1.01022 30.8598C1.03749 30.9438 1.04394 31.0331 1.02902 31.1201L0.861988 32.0938C0.785738 32.5385 1.25246 32.8777 1.65183 32.6677L2.52636 32.208C2.60449 32.1669 2.69143 32.1455 2.77968 32.1455C2.86794 32.1455 2.95488 32.1669 3.033 32.208L3.90754 32.6677C4.30691 32.8777 4.77363 32.5386 4.69738 32.0939L4.53214 31.1304Z" fill="#FBC700"/>
</g>
<defs>
<clipPath id="clip0_3566_22580">
<rect width="40" height="40" fill="white"/>
</clipPath>
</defs>
</svg>
