<svg width="40" height="40" viewBox="0 0 40 40" fill="none" xmlns="http://www.w3.org/2000/svg">
<ellipse cx="19.845" cy="19.9842" rx="19.845" ry="19.9842" fill="#FFEBEB"/>
<g clip-path="url(#clip0_3566_22691)">
<g clip-path="url(#clip1_3566_22691)">
<path d="M19.9993 0.03125C9.09228 0.03125 0.154297 9.03194 0.154297 20.0154C0.154297 30.9989 9.09228 39.9996 19.9993 39.9996C30.9062 39.9996 39.8442 30.9989 39.8442 20.0154C39.8442 9.03194 30.9062 0.03125 19.9993 0.03125Z" fill="#C6E2E7"/>
<path d="M39.845 20.0154C39.845 30.9989 30.907 39.9996 20 39.9996V0.03125C30.907 0.03125 39.845 9.03194 39.845 20.0154Z" fill="#A8D3D8"/>
<path d="M19.9998 2.37305C10.3719 2.37305 2.48047 10.3199 2.48047 20.0153C2.48047 29.7108 10.3719 37.5796 19.9998 37.5796C29.6278 37.5796 37.5192 29.7108 37.5192 20.0153C37.5192 10.3199 29.6278 2.37305 19.9998 2.37305Z" fill="#DEECF1"/>
<path d="M37.5194 20.0153C37.5194 29.7108 29.6279 37.5796 20 37.5796V2.37305C29.6279 2.37305 37.5194 10.3199 37.5194 20.0153Z" fill="#C6E2E7"/>
<path d="M23.486 8.30603C23.486 8.95278 22.9655 9.47729 22.3229 9.47729C21.6807 9.47729 21.1602 8.95278 21.1602 8.30603C21.1602 7.65927 21.6807 7.13477 22.3229 7.13477C22.9655 7.13477 23.486 7.65927 23.486 8.30603Z" fill="#CC2E43"/>
<path d="M13.0223 11.8186C12.3797 11.8186 11.8596 11.2948 11.8596 10.6476V8.30571C11.8596 7.65857 12.3797 7.13477 13.0223 7.13477C13.665 7.13477 14.1851 7.65857 14.1851 8.30571V10.6476C14.1851 11.2948 13.665 11.8186 13.0223 11.8186ZM8.37118 16.5024H6.0456C5.40297 16.5024 4.88281 15.9785 4.88281 15.3314C4.88281 14.6843 5.40297 14.1605 6.0456 14.1605H8.37118C9.01382 14.1605 9.53398 14.6843 9.53398 15.3314C9.53398 15.9785 9.01382 16.5024 8.37118 16.5024ZM8.37118 25.8699C8.07351 25.8699 7.77615 25.7556 7.54909 25.5268C7.09483 25.0695 7.09483 24.3285 7.54909 23.8711L9.36715 22.0402C9.82134 21.5829 10.5572 21.5829 11.0113 22.0402C11.4655 22.4976 11.4656 23.2387 11.0113 23.696L9.19328 25.5268C9.08546 25.6358 8.95732 25.7222 8.81624 25.781C8.67516 25.8399 8.5239 25.8701 8.37118 25.8699ZM15.3467 32.8956C15.172 32.8956 14.9948 32.8557 14.8277 32.7721C14.2533 32.4827 14.0204 31.7796 14.3078 31.2008L15.414 28.9744C15.701 28.3948 16.3996 28.1615 16.9741 28.4509C17.5488 28.74 17.7813 29.4434 17.4942 30.022L16.3881 32.2486C16.1837 32.659 15.7737 32.8956 15.3467 32.8956Z" fill="#E63950"/>
<path d="M24.6511 35.2368C24.0084 35.2368 23.4883 34.713 23.4883 34.0659V31.724C23.4883 31.0768 24.0084 30.553 24.6511 30.553C25.2937 30.553 25.8139 31.0768 25.8139 31.724V34.0659C25.8139 34.713 25.2937 35.2368 24.6511 35.2368ZM31.6278 25.8692H28.68C28.0374 25.8692 27.5172 25.3454 27.5172 24.6983C27.5172 24.0511 28.0374 23.5273 28.68 23.5273H31.6278C32.2705 23.5273 32.7906 24.0511 32.7906 24.6983C32.7906 25.3454 32.2705 25.8692 31.6278 25.8692Z" fill="#CC2E43"/>
<path d="M20.5114 14.0432L19.9999 14.3008L18.0696 15.2842C17.9069 15.3547 17.721 15.4013 17.5348 15.4013C17.1163 15.4013 16.6975 15.1671 16.5116 14.7457C16.2094 14.1603 16.4417 13.4577 17.023 13.1765L19.4885 11.9355C19.6511 11.865 19.8141 11.8184 19.9999 11.8184C20.4184 11.8184 20.8372 12.0525 21.0465 12.4739C21.3257 13.036 21.0928 13.7389 20.5114 14.0432Z" fill="#E63950"/>
<path d="M24.4175 23.5286C24.2733 23.5286 24.1268 23.5021 23.9848 23.4451C23.3885 23.2039 23.0991 22.5221 23.3373 21.9216L24.7333 18.4115C24.9728 17.8099 25.6475 17.5205 26.2462 17.7596C26.8424 18.0011 27.1319 18.6826 26.8935 19.283L25.4977 22.7931C25.411 23.0103 25.2619 23.1963 25.0694 23.3274C24.8769 23.4585 24.6499 23.5285 24.4175 23.5286Z" fill="#CC2E43"/>
<path d="M26.9776 16.5014C26.0837 16.5014 25.191 16.1595 24.5106 15.4744C23.1501 14.1043 23.1501 11.8761 24.5106 10.506C25.8711 9.13601 28.0838 9.13601 29.4443 10.506C30.8048 11.8761 30.8048 14.1043 29.4443 15.4744C28.7639 16.1595 27.8712 16.5014 26.9776 16.5014Z" fill="#E63950"/>
<path d="M20.5115 14.0432L20 14.3008V11.8184C20.4184 11.8184 20.8372 12.0525 21.0465 12.4739C21.3257 13.036 21.0929 13.7389 20.5115 14.0432Z" fill="#CC2E43"/>
<path d="M24.6508 21.186C22.7437 21.186 21.0694 20.2727 19.9997 18.8441C19.2788 17.884 18.8369 16.6428 18.8369 15.3313C18.8369 12.0996 16.2321 9.47656 13.0229 9.47656C9.81379 9.47656 7.20898 12.0996 7.20898 15.3313C7.20898 23.4108 12.6277 30.2023 19.9997 32.2396C21.4881 32.6848 23.0462 32.8955 24.6508 32.8955C27.86 32.8955 30.4648 30.2724 30.4648 27.0408C30.4648 23.8091 27.86 21.186 24.6508 21.186Z" fill="#EC5569"/>
<path d="M30.4651 27.0404C30.4651 30.272 27.8603 32.8951 24.6512 32.8951C23.0465 32.8951 21.4884 32.6844 20 32.2392V18.8438C21.0698 20.2723 22.744 21.1856 24.6512 21.1856C27.8603 21.1856 30.4651 23.8087 30.4651 27.0404Z" fill="#E63950"/>
<path d="M14.183 15.3311C14.183 15.9779 13.6621 16.5021 13.0202 16.5021C12.3779 16.5021 11.8574 15.9779 11.8574 15.3311C11.8574 14.6844 12.3779 14.1602 13.0202 14.1602C13.6621 14.1602 14.183 14.6844 14.183 15.3311ZM15.3458 21.1858C15.3458 21.8326 14.8249 22.3568 14.183 22.3568C13.5407 22.3568 13.0202 21.8326 13.0202 21.1858C13.0202 20.5391 13.5407 20.0149 14.183 20.0149C14.8249 20.0149 15.3458 20.5391 15.3458 21.1858Z" fill="#FDBF00"/>
<path d="M25.81 27.042C25.81 27.6888 25.289 28.213 24.6472 28.213C24.0048 28.213 23.4844 27.6888 23.4844 27.042C23.4844 26.3953 24.0048 25.8711 24.6472 25.8711C25.289 25.8711 25.81 26.3953 25.81 27.042Z" fill="#FF9F00"/>
<path d="M19.9975 25.8702C19.9975 26.5169 19.4765 27.0411 18.8347 27.0411C18.1923 27.0411 17.6719 26.5169 17.6719 25.8702C17.6719 25.2234 18.1923 24.6992 18.8347 24.6992C19.4765 24.6992 19.9975 25.2234 19.9975 25.8702Z" fill="#FDBF00"/>
</g>
</g>
<defs>
<clipPath id="clip0_3566_22691">
<rect width="39.6899" height="39.9684" fill="white" transform="translate(0.310547 0.03125)"/>
</clipPath>
<clipPath id="clip1_3566_22691">
<rect width="39.6899" height="39.9684" fill="white" transform="translate(0.154297 0.03125)"/>
</clipPath>
</defs>
</svg>
